<svg width="72" height="73" viewBox="0 0 72 73" fill="none" xmlns="http://www.w3.org/2000/svg">
<rect y="0.5" width="72" height="72" rx="36" fill="#F2F2F2"/>
<path d="M49.25 21.6667H25.5C24.6601 21.6667 23.8547 22.0003 23.2608 22.5942C22.667 23.188 22.3333 23.9935 22.3333 24.8333V29.5833H19.1667V32.75H22.3333V35.9167H19.1667V39.0833H22.3333V42.25H19.1667V45.4167H22.3333V50.1667C22.3333 51.0065 22.667 51.812 23.2608 52.4058C23.8547 52.9997 24.6601 53.3333 25.5 53.3333H49.25C49.6699 53.3333 50.0726 53.1665 50.3696 52.8696C50.6665 52.5726 50.8333 52.1699 50.8333 51.75V23.25C50.8333 22.8301 50.6665 22.4273 50.3696 22.1304C50.0726 21.8335 49.6699 21.6667 49.25 21.6667ZM36.5833 26.4151C39.1927 26.4151 41.3333 28.5542 41.3333 31.1651C41.3287 32.4236 40.8269 33.6293 39.9371 34.5193C39.0473 35.4094 37.8418 35.9117 36.5833 35.9167C33.9756 35.9167 31.8333 33.7744 31.8333 31.1651C31.8333 28.5542 33.9756 26.4151 36.5833 26.4151ZM46.0833 47H27.0833V45.8125C27.0833 42.2991 31.3662 38.6875 36.5833 38.6875C41.8004 38.6875 46.0833 42.2991 46.0833 45.8125V47Z" fill="#2F80ED"/>
</svg>
