<svg width="152" height="252" viewBox="0 0 152 252" fill="none" xmlns="http://www.w3.org/2000/svg">
<g opacity="0.4" filter="url(#filter0_f_1502:3527)">
<path fill-rule="evenodd" clip-rule="evenodd" d="M32.8142 241.873H119.832C125.857 241.873 133.032 242.179 133.032 242.557C133.032 242.935 125.37 243.241 119.832 243.241H32.8142C26.7019 243.241 18.9004 242.935 18.9004 242.557C18.9004 242.179 26.58 241.873 32.8142 241.873Z" fill="url(#paint0_linear_1502:3527)"/>
</g>
<g opacity="0.1" filter="url(#filter1_f_1502:3527)">
<path fill-rule="evenodd" clip-rule="evenodd" d="M25.343 241.513H127.493C132.686 241.513 143 241.999 143 242.593C143 243.187 133.484 243.673 125.471 243.673H25.343C18.6467 243.673 9.01978 243.187 9.01978 242.593C9.01978 241.999 18.35 241.513 25.343 241.513Z" fill="url(#paint1_linear_1502:3527)"/>
</g>
<path fill-rule="evenodd" clip-rule="evenodd" d="M16.802 44.3407V35.7907L17.1114 35.5027H17.9322V44.6287H17.1001L16.802 44.3407ZM134.95 58.2547H135.724L136.498 58.6507V85.8127L135.724 86.1907H134.95V58.2547ZM16.6902 52.7828V69.7748L17.4642 70.1528H17.8422V52.3868H17.4462L16.6902 52.7828ZM16.6902 91.7707V74.7787L17.4462 74.3827H17.8422V92.1487H17.4642L16.6902 91.7707Z" fill="#C0C0C0"/>
<mask id="mask0_1502:3527" style="mask-type:alpha" maskUnits="userSpaceOnUse" x="16" y="35" width="121" height="58">
<path fill-rule="evenodd" clip-rule="evenodd" d="M16.802 44.3407V35.7907L17.1114 35.5027H17.9322V44.6287H17.1001L16.802 44.3407ZM134.95 58.2547H135.724L136.498 58.6507V85.8127L135.724 86.1907H134.95V58.2547ZM16.6902 52.7828V69.7748L17.4642 70.1528H17.8422V52.3868H17.4462L16.6902 52.7828ZM16.6902 91.7707V74.7787L17.4462 74.3827H17.8422V92.1487H17.4642L16.6902 91.7707Z" fill="white"/>
</mask>
<g mask="url(#mask0_1502:3527)">
<g opacity="0.3" filter="url(#filter2_f_1502:3527)">
<path fill-rule="evenodd" clip-rule="evenodd" d="M16.2041 53.5567L17.8421 52.6027V50.5867L16.2041 51.5407V53.5567ZM16.2041 71.0166L17.8421 71.9706V69.9546L16.2041 69.0006V71.0166ZM16.2041 75.5347L17.8421 74.5807V72.5647L16.2041 73.5187V75.5347ZM16.2041 93.0127L17.8421 93.9667V91.9507L16.2041 90.9967V93.0127ZM135.238 56.2927V58.3087L136.876 59.2627V57.2467L135.238 56.2927ZM135.238 88.0626L136.876 87.1086V85.0926L135.238 86.0466V88.0626ZM16.4921 35.9887H18.1301V33.9727H16.4921V35.9887ZM16.4921 46.2486H18.1301V44.2327H16.4921V46.2486Z" fill="black"/>
</g>
<path opacity="0.9" fill-rule="evenodd" clip-rule="evenodd" d="M17.3562 36.6957V43.3332C17.3562 44.9375 16.777 44.8448 16.6708 44.8278C16.6601 44.826 16.6542 44.8251 16.6542 44.8267V35.1248C16.6542 35.1248 17.3562 35.1657 17.3562 36.6957ZM15.9342 51.4868H16.3122C16.9422 51.4868 17.4642 52.7828 17.4642 53.4128V69.2348C17.4642 69.8648 16.9422 71.1608 16.3122 71.1608H15.9342V51.4868ZM16.3122 73.4107H15.8982V93.0307H16.3122C16.9422 93.0307 17.4642 91.7347 17.4642 91.1047V75.3187C17.4642 74.6887 16.9422 73.4107 16.3122 73.4107ZM135.724 59.2087C135.724 58.5787 136.246 57.2827 136.876 57.2827H137.362V87.2707H136.876C136.246 87.2707 135.724 85.9747 135.724 85.3447V59.2087Z" fill="#EFEFEF"/>
<mask id="mask1_1502:3527" style="mask-type:alpha" maskUnits="userSpaceOnUse" x="15" y="35" width="123" height="59">
<path fill-rule="evenodd" clip-rule="evenodd" d="M17.3562 36.6957V43.3332C17.3562 44.9375 16.777 44.8448 16.6708 44.8278C16.6601 44.826 16.6542 44.8251 16.6542 44.8267V35.1248C16.6542 35.1248 17.3562 35.1657 17.3562 36.6957ZM15.9342 51.4868H16.3122C16.9422 51.4868 17.4642 52.7828 17.4642 53.4128V69.2348C17.4642 69.8648 16.9422 71.1608 16.3122 71.1608H15.9342V51.4868ZM16.3122 73.4107H15.8982V93.0307H16.3122C16.9422 93.0307 17.4642 91.7347 17.4642 91.1047V75.3187C17.4642 74.6887 16.9422 73.4107 16.3122 73.4107ZM135.724 59.2087C135.724 58.5787 136.246 57.2827 136.876 57.2827H137.362V87.2707H136.876C136.246 87.2707 135.724 85.9747 135.724 85.3447V59.2087Z" fill="white"/>
</mask>
<g mask="url(#mask1_1502:3527)">
<g opacity="0.7" filter="url(#filter3_f_1502:3527)">
<path fill-rule="evenodd" clip-rule="evenodd" d="M16.2041 35.845L17.8421 35.017V33.199L16.2041 34.027V35.845ZM16.2041 46.0149L17.8421 46.8429V45.0249L16.2041 44.1969V46.0149ZM16.2041 52.981L17.8421 52.027V50.011L16.2041 50.965V52.981ZM16.2041 71.5029L17.4281 72.2229L16.2041 72.9429V74.9589L17.8421 74.0049V70.4589L16.2041 69.5049V71.5029ZM16.2041 93.4809L17.8421 94.4349V92.4189L16.2041 91.4649V93.4809ZM135.148 56.293V58.309L136.786 59.263V57.247L135.148 56.293ZM135.148 88.153L136.786 87.199V85.183L135.148 86.137V88.153Z" fill="black"/>
</g>
<g opacity="0.2" filter="url(#filter4_f_1502:3527)">
<path fill-rule="evenodd" clip-rule="evenodd" d="M16.2041 53.5569L17.8421 52.6029V50.5869L16.2041 51.5409V53.5569ZM16.2041 71.0168L17.8421 71.9708V69.9548L16.2041 69.0008V71.0168ZM16.2041 75.5349L17.8421 74.5809V72.5649L16.2041 73.5189V75.5349ZM16.2041 93.0129L17.8421 93.9669V91.9509L16.2041 90.9969V93.0129ZM135.238 56.2928V58.3088L136.876 59.2628V57.2468L135.238 56.2928ZM135.238 88.0628L136.876 87.1088V85.0928L135.238 86.0468V88.0628ZM16.2041 36.2049L17.8421 35.2509V33.2349L16.2041 34.1889V36.2049ZM16.2041 45.9068L17.8421 47.0228V45.0068L16.2041 43.8908V45.9068Z" fill="black"/>
</g>
<g filter="url(#filter5_f_1502:3527)">
<path fill-rule="evenodd" clip-rule="evenodd" d="M16.2041 53.4489L17.8421 52.4949V50.4789L16.2041 51.4329V53.4489ZM16.2041 71.1608L17.8421 72.1148V70.0988L16.2041 69.1448V71.1608ZM16.2041 75.3909L17.8421 74.4369V72.4209L16.2041 73.3749V75.3909ZM16.2041 93.157L17.8421 94.111V92.095L16.2041 91.141V93.157ZM135.238 56.383V58.273L136.876 59.227V57.337L135.238 56.383ZM135.238 88.063L136.876 87.109V85.093L135.238 86.047V88.063ZM16.2041 45.8708L17.8421 46.9328V44.9168L16.2041 43.8548V45.8708ZM16.2041 36.1689L17.8421 35.3949V33.3789L16.2041 34.1529V36.1689Z" fill="white"/>
</g>
</g>
<path fill-rule="evenodd" clip-rule="evenodd" d="M16.9601 36.375V43.5807C16.9601 44.3681 16.722 44.4115 16.74 44.3935L16.2401 44.3227V35.7727L16.6978 35.655C16.6978 35.655 16.9601 35.8688 16.9601 36.375ZM15.4121 51.8287L15.885 51.8943C16.7287 52.1812 16.9819 53.5453 16.9819 54.3637V68.1928C16.9819 68.7806 16.9284 70.1278 16.0509 70.3106L15.4121 70.8367V51.8287ZM15.7624 73.8386H15.2764V92.7375H15.7624C16.3924 92.7375 16.9144 91.4775 16.9144 90.8475V75.7106C16.9144 75.0986 16.4104 73.8386 15.7624 73.8386ZM136.188 60.3009C136.188 59.6231 136.216 58.3125 137.23 57.5887H137.836V86.7847L137.033 86.2575C136.335 86.2266 136.188 85.3012 136.188 84.4449V60.3009Z" fill="#D0D0D0"/>
<mask id="mask2_1502:3527" style="mask-type:alpha" maskUnits="userSpaceOnUse" x="15" y="35" width="123" height="58">
<path fill-rule="evenodd" clip-rule="evenodd" d="M16.9601 36.375V43.5807C16.9601 44.3681 16.722 44.4115 16.74 44.3935L16.2401 44.3227V35.7727L16.6978 35.655C16.6978 35.655 16.9601 35.8688 16.9601 36.375ZM15.4121 51.8287L15.885 51.8943C16.7287 52.1812 16.9819 53.5453 16.9819 54.3637V68.1928C16.9819 68.7806 16.9284 70.1278 16.0509 70.3106L15.4121 70.8367V51.8287ZM15.7624 73.8386H15.2764V92.7375H15.7624C16.3924 92.7375 16.9144 91.4775 16.9144 90.8475V75.7106C16.9144 75.0986 16.4104 73.8386 15.7624 73.8386ZM136.188 60.3009C136.188 59.6231 136.216 58.3125 137.23 57.5887H137.836V86.7847L137.033 86.2575C136.335 86.2266 136.188 85.3012 136.188 84.4449V60.3009Z" fill="white"/>
</mask>
<g mask="url(#mask2_1502:3527)">
<g opacity="0.4" filter="url(#filter6_f_1502:3527)">
<rect x="15.1602" y="35.4307" width="1.31893" height="9.72" fill="black"/>
</g>
<g opacity="0.4" filter="url(#filter7_f_1502:3527)">
<rect x="14.6201" y="51.2498" width="1.85893" height="42.4781" fill="black"/>
</g>
<g opacity="0.4" filter="url(#filter8_f_1502:3527)">
<rect x="137.009" y="51.2498" width="1.85893" height="42.4781" fill="black"/>
</g>
</g>
<path opacity="0.5" fill-rule="evenodd" clip-rule="evenodd" d="M16.5713 74.5293C16.5713 74.5293 16.913 75.1508 16.913 75.8483L16.9312 90.2226C16.9312 90.8526 16.8592 92.1486 16.2292 92.1486H16.2652C17.0032 92.1306 17.0392 90.8526 17.0392 90.2226L17.021 75.8624C17.0011 75.2268 16.8863 74.9624 16.6811 74.5433C16.6497 74.4791 16.5713 74.5293 16.5713 74.5293ZM16.4921 52.4893C16.8738 52.8522 16.9781 53.9113 16.9781 54.4693V68.1366C16.9781 68.7666 16.9061 70.0626 16.2761 70.0626H16.3121C17.0501 70.0446 17.0861 68.7666 17.0861 68.1366V54.4693C17.0693 53.9315 16.9509 52.843 16.5878 52.4893C16.5599 52.4621 16.5051 52.4412 16.4921 52.4893ZM136.277 84.2647V60.2167C136.277 59.6587 136.385 58.5607 136.727 58.2547C136.277 58.5067 136.187 59.6587 136.187 60.2167V84.2647C136.187 84.8947 136.205 86.1727 136.925 86.1907H136.961C136.349 86.1907 136.277 84.9127 136.277 84.2647ZM136.925 58.1647C136.853 58.1647 136.799 58.2007 136.745 58.2547C136.799 58.2187 136.853 58.2007 136.925 58.2007V58.1647ZM16.7801 44.3877C16.8052 44.3848 16.7912 44.498 16.8131 44.4806C17.0606 44.2837 17.0719 43.6396 17.0719 43.6396V36.4424C17.0719 36.4424 17.0606 35.9446 16.8497 35.6577C16.8074 35.6002 16.7831 35.7345 16.7372 35.6746C16.9481 35.9559 16.9639 36.4424 16.9639 36.4424V43.6396C16.9639 43.6396 16.9566 44.1599 16.7801 44.3877Z" fill="white"/>
<g style="mix-blend-mode:soft-light" opacity="0.6">
<rect x="-67.4597" y="-21.0894" width="288" height="288" fill="#E4E4E4"/>
</g>
</g>
<path fill-rule="evenodd" clip-rule="evenodd" d="M117.202 242.953H83.1819C82.7859 242.701 81.0219 242.665 80.6619 242.665H72.5439C72.1659 242.665 70.4019 242.701 70.0239 242.953H36.0039C24.5739 242.953 17.2839 235.843 17.2839 223.171V92.6166C17.5179 91.9506 17.6619 91.4106 17.6619 91.0686V75.3366C17.6619 74.9946 17.5179 74.4726 17.2839 74.0406V70.7106C17.5179 70.0446 17.6619 69.5046 17.6619 69.1626V53.4306C17.6619 53.0886 17.5179 52.5666 17.2839 52.1346V44.9166C17.5179 44.3226 17.5719 43.8366 17.5719 43.5126V36.5286C17.5719 36.2046 17.5179 35.7186 17.2839 35.3406V23.3706C17.2839 10.4106 24.1959 2.92261 37.8219 2.92261H115.384C129.01 2.92261 135.922 10.4106 135.922 23.3706V57.5526C135.688 58.4166 135.544 58.9566 135.544 59.2986V85.2006C135.544 85.5426 135.688 86.0646 135.922 86.4966V223.171C135.922 235.861 128.614 242.953 117.202 242.953Z" fill="#D0D0D0"/>
<mask id="mask3_1502:3527" style="mask-type:alpha" maskUnits="userSpaceOnUse" x="17" y="2" width="119" height="241">
<path fill-rule="evenodd" clip-rule="evenodd" d="M117.202 242.953H83.1819C82.7859 242.701 81.0219 242.665 80.6619 242.665H72.5439C72.1659 242.665 70.4019 242.701 70.0239 242.953H36.0039C24.5739 242.953 17.2839 235.843 17.2839 223.171V92.6166C17.5179 91.9506 17.6619 91.4106 17.6619 91.0686V75.3366C17.6619 74.9946 17.5179 74.4726 17.2839 74.0406V70.7106C17.5179 70.0446 17.6619 69.5046 17.6619 69.1626V53.4306C17.6619 53.0886 17.5179 52.5666 17.2839 52.1346V44.9166C17.5179 44.3226 17.5719 43.8366 17.5719 43.5126V36.5286C17.5719 36.2046 17.5179 35.7186 17.2839 35.3406V23.3706C17.2839 10.4106 24.1959 2.92261 37.8219 2.92261H115.384C129.01 2.92261 135.922 10.4106 135.922 23.3706V57.5526C135.688 58.4166 135.544 58.9566 135.544 59.2986V85.2006C135.544 85.5426 135.688 86.0646 135.922 86.4966V223.171C135.922 235.861 128.614 242.953 117.202 242.953Z" fill="white"/>
</mask>
<g mask="url(#mask3_1502:3527)">
<g style="mix-blend-mode:hard-light" opacity="0.4">
<rect x="-67.46" y="-21.0894" width="288" height="288" fill="#E4E4E4"/>
</g>
<g opacity="0.49983" filter="url(#filter9_f_1502:3527)">
<path d="M120.064 1.95068H33.4839C23.8899 1.95068 16.0959 9.72668 16.0959 19.3387V224.575C16.0959 232.891 21.9459 240.325 29.7579 242.143C22.5939 240.145 17.3739 233.863 17.3739 225.295V22.6147C17.3739 9.76268 25.1679 2.20268 34.7799 2.20268H118.354C127.966 2.20268 135.76 9.58268 135.76 21.9487V225.313C135.76 234.619 130.126 240.757 122.548 242.395C130.972 241.099 137.434 233.341 137.434 224.575V19.3387C137.452 9.72668 129.676 1.95068 120.064 1.95068Z" fill="black"/>
</g>
<g filter="url(#filter10_f_1502:3527)">
<path fill-rule="evenodd" clip-rule="evenodd" d="M133.042 22.4526C133.042 12.2826 127.282 5.83862 115.96 5.83862H37.228C25.906 5.83862 20.146 12.2646 20.146 22.4526L20.146 224.611C20.146 237.283 28.12 241.693 37.048 241.693H116.14C125.068 241.693 133.042 237.283 133.042 224.611V22.4526Z" fill="#EDEDED"/>
</g>
<g filter="url(#filter11_f_1502:3527)">
<path fill-rule="evenodd" clip-rule="evenodd" d="M125.158 239.047C129.082 236.329 131.602 231.919 131.602 226.339V21.7866C131.602 13.3266 128.128 8.26858 122.98 5.89258C129.586 8.34058 134.284 14.7126 134.284 22.2186V223.225C134.284 229.867 130.594 235.933 125.158 239.047ZM21.2981 22.4885V226.338C21.2981 230.73 22.8461 234.366 25.4021 237.048C21.5321 233.682 18.9041 228.642 18.9041 223.224V22.2185C18.9041 15.3965 22.9901 9.49249 28.6601 6.64849C24.2141 9.34849 21.2981 14.4245 21.2981 22.4885Z" fill="white"/>
</g>
<g filter="url(#filter12_f_1502:3527)">
<path fill-rule="evenodd" clip-rule="evenodd" d="M125.158 239.047C129.082 236.329 131.602 231.919 131.602 226.339V21.7866C131.602 13.3266 128.128 8.26858 122.98 5.89258C129.586 8.34058 134.284 14.7126 134.284 22.2186V223.225C134.284 229.867 130.594 235.933 125.158 239.047ZM21.2981 22.4885V226.338C21.2981 230.73 22.8461 234.366 25.4021 237.048C21.5321 233.682 18.9041 228.642 18.9041 223.224V22.2185C18.9041 15.3965 22.9901 9.49249 28.6601 6.64849C24.2141 9.34849 21.2981 14.4245 21.2981 22.4885Z" fill="white"/>
</g>
<g filter="url(#filter13_f_1502:3527)">
<path fill-rule="evenodd" clip-rule="evenodd" d="M116.824 7.80076H36.3641C27.0581 7.80076 21.4241 11.0948 19.5701 18.0788C20.3981 9.15076 26.1761 3.62476 36.7601 3.62476H116.428C127.012 3.62476 132.79 9.15076 133.618 18.0788C131.764 11.1128 126.13 7.80076 116.824 7.80076Z" fill="white"/>
</g>
<g opacity="0.2" filter="url(#filter14_f_1502:3527)">
<path d="M32.991 242.736H120.179C128.592 242.736 135.652 237.21 137.672 229.74V231.792C137.672 241.386 129.667 249.18 119.771 249.18H33.3987C23.5217 249.18 15.4978 241.404 15.4978 231.792V229.74C17.5362 237.21 24.5965 242.736 32.991 242.736Z" fill="black"/>
</g>
<g opacity="0.1" filter="url(#filter15_f_1502:3527)">
<path fill-rule="evenodd" clip-rule="evenodd" d="M32.9922 242.683H120.196C126.278 242.683 131.661 239.803 134.932 235.357C131.9 240.703 126.094 244.303 119.424 244.303H33.7639C27.0941 244.303 21.2695 240.685 18.2561 235.357C21.5267 239.803 26.9103 242.683 32.9922 242.683Z" fill="#808080"/>
</g>
<g opacity="0.2" filter="url(#filter16_f_1502:3527)">
<path fill-rule="evenodd" clip-rule="evenodd" d="M34.4918 243.096H118.696C127.39 243.096 134.59 236.76 135.922 228.48V231.432C135.922 241.026 128.146 248.82 118.534 248.82H34.6358C25.0418 248.82 17.2478 241.044 17.2478 231.432V228.48C18.5798 236.76 25.7978 243.096 34.4918 243.096Z" fill="black"/>
</g>
<g opacity="0.9" filter="url(#filter17_f_1502:3527)">
<path fill-rule="evenodd" clip-rule="evenodd" d="M122.206 242.611C130.213 240.855 135.634 234.42 135.634 223.057V23.145C135.634 7.88998 125.353 3.08468 115.924 3.08468H37.018C26.7805 3.08468 17.4819 8.49739 17.4819 23.3475V222.247C17.4819 234.713 23.878 241.08 30.4779 242.449C15.508 246.435 15.1599 233.125 15.1599 224.539V19.3387C15.1599 9.74468 23.9079 1.95068 33.5019 1.95068H120.082C129.676 1.95068 138.424 9.72668 138.424 19.3387V224.575C138.406 233.449 134.713 244.5 122.206 242.611Z" fill="white"/>
</g>
<g opacity="0.7" filter="url(#filter18_f_1502:3527)">
<path fill-rule="evenodd" clip-rule="evenodd" d="M133.042 22.4526C133.042 12.2826 127.282 5.83862 115.96 5.83862H37.228C25.906 5.83862 20.146 12.2646 20.146 22.4526V222.991C20.146 235.663 28.12 240.073 37.048 240.073H116.14C125.068 240.073 133.042 235.663 133.042 222.991V22.4526Z" fill="white"/>
</g>
</g>
<mask id="mask4_1502:3527" style="mask-type:alpha" maskUnits="userSpaceOnUse" x="17" y="2" width="119" height="241">
<path fill-rule="evenodd" clip-rule="evenodd" d="M133.804 222.991C133.804 229.119 131.999 233.788 128.438 236.867C125.429 239.471 121.176 240.846 116.14 240.846H37.036C32.0003 240.846 27.7476 239.471 24.7377 236.867C21.1773 233.788 19.372 229.119 19.372 222.991V22.4466C19.372 17.1449 20.9346 12.7667 23.8908 9.78574C26.9934 6.65698 31.4808 5.07046 37.228 5.07046H115.948C121.695 5.07046 126.183 6.65698 129.285 9.78574C132.241 12.7667 133.804 17.1449 133.804 22.4466V222.991ZM37.8041 2.9585C24.1721 2.9585 17.2856 10.4465 17.2856 23.4065V223.182C17.2856 235.855 24.5561 242.959 35.9801 242.959H117.196C128.62 242.959 135.916 235.855 135.916 223.182V23.4065C135.916 10.4465 129.004 2.9585 115.372 2.9585H37.8041Z" fill="white"/>
</mask>
<g mask="url(#mask4_1502:3527)">
<path fill-rule="evenodd" clip-rule="evenodd" d="M17.0681 27.6365V25.9985H136.102V27.6365H17.0681ZM136.102 220.021H17.0681V218.383H136.102V220.021Z" fill="#989899" fill-opacity="0.6"/>
<mask id="mask5_1502:3527" style="mask-type:alpha" maskUnits="userSpaceOnUse" x="17" y="25" width="120" height="196">
<path fill-rule="evenodd" clip-rule="evenodd" d="M17.0681 27.6365V25.9985H136.102V27.6365H17.0681ZM136.102 220.021H17.0681V218.383H136.102V220.021Z" fill="white"/>
</mask>
<g mask="url(#mask5_1502:3527)">
<g opacity="0.8" filter="url(#filter19_f_1502:3527)">
<path fill-rule="evenodd" clip-rule="evenodd" d="M131.89 29.2386H134.446V24.3606H131.89V29.2386ZM135.814 24.3786V29.2566H138.352V24.3786H135.814ZM131.89 221.623H134.446V216.745H131.89V221.623ZM135.814 221.623H138.352V216.745H135.814V221.623ZM14.9621 29.2386H17.5001V24.3606H14.9441V29.2386H14.9621ZM18.6881 29.2386H21.2441V24.3606H18.6881V29.2386ZM14.9621 221.623H17.5001V216.745H14.9441V221.623H14.9621ZM18.6881 221.623H21.2441V216.745H18.6881V221.623Z" fill="white"/>
</g>
<g style="mix-blend-mode:hard-light" opacity="0.15">
<rect x="-67.46" y="-21.0894" width="288" height="288" fill="#E4E4E4"/>
</g>
</g>
</g>
<path opacity="0.1" fill-rule="evenodd" clip-rule="evenodd" d="M129.486 9.55003C126.354 6.38203 121.818 4.78003 116.004 4.78003H37.2903C31.4943 4.78003 26.9583 6.38203 23.8083 9.55003C20.8203 12.574 19.2363 16.984 19.2363 22.348V222.886C19.2363 229.078 21.0723 233.794 24.6723 236.908C27.7143 239.536 32.0163 240.94 37.0923 240.94H116.202C121.278 240.94 125.58 239.554 128.622 236.908C132.222 233.794 134.058 229.078 134.058 222.886V22.348C134.058 16.984 132.474 12.556 129.486 9.55003ZM37.2903 5.7341H116.004C127.344 5.7341 133.104 12.1601 133.104 22.3481V222.886C133.104 235.558 125.13 239.968 116.202 239.968H37.1103C28.1823 239.968 20.2083 235.558 20.2083 222.886V22.3481C20.2083 12.1601 25.9683 5.7341 37.2903 5.7341ZM127.866 236.044C131.214 233.146 132.906 228.718 132.906 222.886V22.3481C132.906 17.2361 131.466 13.2041 128.658 10.3601C125.742 7.42606 121.494 5.93206 116.004 5.93206H37.2903C31.8183 5.93206 27.5523 7.42606 24.6363 10.3601C21.8103 13.2041 20.3883 17.2361 20.3883 22.3481V222.886C20.3883 228.736 22.0803 233.164 25.4283 236.044C28.2543 238.492 32.2863 239.788 37.0923 239.788H116.202C120.99 239.788 125.04 238.492 127.866 236.044ZM128.496 236.764C132.06 233.686 133.86 229.006 133.86 222.886V22.348C133.86 17.056 132.294 12.682 129.342 9.69399C126.246 6.56199 121.746 4.97799 116.004 4.97799H37.2904C31.5484 4.97799 27.0484 6.56199 23.9524 9.69399C21.0004 12.664 19.4344 17.038 19.4344 22.348V222.886C19.4344 229.024 21.2344 233.686 24.7984 236.764C27.8044 239.374 32.0524 240.742 37.0924 240.742H116.202C121.242 240.742 125.49 239.374 128.496 236.764Z" fill="black"/>
<path d="M82.8759 11.4004H70.2939C69.7359 11.4004 69.2859 11.8504 69.2859 12.4084C69.2859 12.9664 69.7359 13.4164 70.2939 13.4164H82.8759C83.4339 13.4164 83.8839 12.9664 83.8839 12.4084C83.8839 11.8504 83.4339 11.4004 82.8759 11.4004Z" fill="#DDDDDD"/>
<mask id="mask6_1502:3527" style="mask-type:alpha" maskUnits="userSpaceOnUse" x="69" y="11" width="15" height="3">
<path d="M82.8759 11.4004H70.2939C69.7359 11.4004 69.2859 11.8504 69.2859 12.4084C69.2859 12.9664 69.7359 13.4164 70.2939 13.4164H82.8759C83.4339 13.4164 83.8839 12.9664 83.8839 12.4084C83.8839 11.8504 83.4339 11.4004 82.8759 11.4004Z" fill="white"/>
</mask>
<g mask="url(#mask6_1502:3527)">
<path opacity="0.503748" fill-rule="evenodd" clip-rule="evenodd" d="M67.71 13.5678L69.8044 11.196L69.8971 11.301L67.8026 13.6727L67.71 13.5678ZM70.3234 11.196L68.2289 13.5678L68.3216 13.6727L70.4161 11.301L70.3234 11.196ZM68.7294 13.5678L70.8239 11.196L70.9166 11.301L68.8221 13.6727L68.7294 13.5678ZM71.3244 11.196L69.2299 13.5678L69.3225 13.6727L71.417 11.301L71.3244 11.196ZM69.7303 13.5678L71.8248 11.196L71.9174 11.301L69.8229 13.6727L69.7303 13.5678ZM72.3253 11.196L70.2308 13.5678L70.3235 13.6727L72.418 11.301L72.3253 11.196ZM70.7497 13.5678L72.8442 11.196L72.9369 11.301L70.8424 13.6727L70.7497 13.5678ZM73.3447 11.196L71.2502 13.5678L71.3429 13.6727L73.4374 11.301L73.3447 11.196ZM71.7507 13.5678L73.8452 11.196L73.9378 11.301L71.8434 13.6727L71.7507 13.5678ZM74.3456 11.196L72.2511 13.5678L72.3438 13.6727L74.4383 11.301L74.3456 11.196ZM72.7701 13.5678L74.8646 11.196L74.9572 11.301L72.8627 13.6727L72.7701 13.5678ZM75.365 11.196L73.2705 13.5678L73.3632 13.6727L75.4577 11.301L75.365 11.196ZM73.771 13.5678L75.8655 11.196L75.9582 11.301L73.8637 13.6727L73.771 13.5678ZM76.3659 11.196L74.2714 13.5678L74.3641 13.6727L76.4586 11.301L76.3659 11.196ZM74.7719 13.5678L76.8664 11.196L76.9591 11.301L74.8646 13.6727L74.7719 13.5678ZM77.3854 11.196L75.2909 13.5678L75.3836 13.6727L77.4781 11.301L77.3854 11.196ZM75.7914 13.5678L77.8859 11.196L77.9785 11.301L75.884 13.6727L75.7914 13.5678ZM78.3863 11.196L76.2918 13.5678L76.3845 13.6727L78.479 11.301L78.3863 11.196ZM76.7923 13.5678L78.8868 11.196L78.9795 11.301L76.885 13.6727L76.7923 13.5678ZM79.4058 11.196L77.3113 13.5678L77.4039 13.6727L79.4984 11.301L79.4058 11.196ZM77.8117 13.5678L79.9062 11.196L79.9988 11.301L77.9044 13.6727L77.8117 13.5678ZM80.4067 11.196L78.3122 13.5678L78.4049 13.6727L80.4994 11.301L80.4067 11.196ZM78.8126 13.5678L80.9071 11.196L80.9998 11.301L78.9053 13.6727L78.8126 13.5678ZM81.4075 11.196L79.313 13.5678L79.4057 13.6727L81.5002 11.301L81.4075 11.196ZM79.8321 13.5678L81.9266 11.196L82.0193 11.301L79.9248 13.6727L79.8321 13.5678ZM82.427 11.196L80.3325 13.5678L80.4252 13.6727L82.5197 11.301L82.427 11.196ZM80.8329 13.5678L82.9274 11.196L83.0201 11.301L80.9256 13.6727L80.8329 13.5678ZM83.4279 11.196L81.3334 13.5678L81.4261 13.6727L83.5206 11.301L83.4279 11.196ZM81.8524 13.5678L83.9469 11.196L84.0396 11.301L81.9451 13.6727L81.8524 13.5678ZM84.4473 11.196L82.3528 13.5678L82.4455 13.6727L84.54 11.301L84.4473 11.196ZM84.9479 11.196L82.8534 13.5678L82.946 13.6727L85.0405 11.301L84.9479 11.196Z" fill="white"/>
<path opacity="0.6" fill-rule="evenodd" clip-rule="evenodd" d="M69.8044 13.6517L67.71 11.28L67.8026 11.196L69.8971 13.5468L69.8044 13.6517ZM68.2104 11.28L70.3049 13.6517L70.3976 13.5468L68.3031 11.196L68.2104 11.28ZM70.8239 13.6517L68.7294 11.28L68.8036 11.196L70.9166 13.5468L70.8239 13.6517ZM69.2299 11.28L71.3244 13.6517L71.417 13.5468L69.3225 11.196L69.2299 11.28ZM71.8248 13.6517L69.7303 11.28L69.8229 11.196L71.9174 13.5468L71.8248 13.6517ZM70.2308 11.28L72.3253 13.6517L72.418 13.5468L70.3235 11.196L70.2308 11.28ZM72.8442 13.6517L70.7497 11.28L70.8239 11.196L72.9369 13.5468L72.8442 13.6517ZM71.2502 11.28L73.3447 13.6517L73.4374 13.5468L71.3429 11.196L71.2502 11.28ZM73.8452 13.6517L71.7507 11.28L71.8434 11.196L73.9378 13.5468L73.8452 13.6517ZM72.2511 11.28L74.3456 13.6517L74.4383 13.5468L72.3438 11.196L72.2511 11.28ZM74.846 13.6517L72.7515 11.28L72.8442 11.196L74.9387 13.5468L74.846 13.6517ZM73.2705 11.28L75.365 13.6517L75.4577 13.5468L73.3446 11.196L73.2705 11.28ZM75.8655 13.6517L73.771 11.28L73.8637 11.196L75.9582 13.5468L75.8655 13.6517ZM74.2714 11.28L76.3659 13.6517L76.4586 13.5468L74.3641 11.196L74.2714 11.28ZM76.8664 13.6517L74.7719 11.28L74.8646 11.196L76.9591 13.5468L76.8664 13.6517ZM75.2909 11.28L77.3854 13.6517L77.4781 13.5468L75.3651 11.196L75.2909 11.28ZM77.8859 13.6517L75.7914 11.28L75.8655 11.196L77.9785 13.5468L77.8859 13.6517ZM76.2918 11.28L78.3863 13.6517L78.479 13.5468L76.3845 11.196L76.2918 11.28ZM78.8868 13.6517L76.7923 11.28L76.885 11.196L78.9795 13.5468L78.8868 13.6517ZM77.2927 11.28L79.3872 13.6517L79.4799 13.5468L77.3854 11.196L77.2927 11.28ZM79.9062 13.6517L77.8117 11.28L77.8858 11.196L79.9988 13.5468L79.9062 13.6517ZM78.3122 11.28L80.4067 13.6517L80.4994 13.5468L78.4049 11.196L78.3122 11.28ZM80.9071 13.6517L78.8126 11.28L78.9053 11.196L80.9998 13.5468L80.9071 13.6517ZM79.313 11.28L81.4075 13.6517L81.5002 13.5468L79.4057 11.196L79.313 11.28ZM81.9081 13.6517L79.8136 11.28L79.9062 11.196L82.0007 13.5468L81.9081 13.6517ZM80.3325 11.28L82.427 13.6517L82.5197 13.5468L80.4066 11.196L80.3325 11.28ZM82.9274 13.6517L80.8329 11.28L80.9256 11.196L83.0201 13.5468L82.9274 13.6517ZM81.3334 11.28L83.4279 13.6517L83.5206 13.5468L81.4261 11.196L81.3334 11.28ZM83.9284 13.6517L81.8339 11.28L81.9266 11.196L84.021 13.5468L83.9284 13.6517ZM82.3528 11.28L84.4473 13.6517L84.54 13.5468L82.427 11.196L82.3528 11.28ZM82.946 11.196L82.8534 11.301L84.9479 13.6727L85.0405 13.5678L82.946 11.196Z" fill="white"/>
</g>
<mask id="mask7_1502:3527" style="mask-type:alpha" maskUnits="userSpaceOnUse" x="69" y="11" width="16" height="3">
<path fill-rule="evenodd" clip-rule="evenodd" d="M70.2939 11.2205H82.8759C83.5419 11.2205 84.0819 11.7605 84.0819 12.4265C84.0819 13.0925 83.5419 13.6325 82.8759 13.6325H70.2939C69.6279 13.6325 69.0879 13.0925 69.0879 12.4265C69.0879 11.7605 69.6279 11.2205 70.2939 11.2205ZM70.2939 13.4164H82.8759C83.4339 13.4164 83.8839 12.9664 83.8839 12.4084C83.8839 11.8504 83.4339 11.4004 82.8759 11.4004H70.2939C69.7359 11.4004 69.2859 11.8504 69.2859 12.4084C69.2859 12.9664 69.7359 13.4164 70.2939 13.4164Z" fill="white"/>
</mask>
<g mask="url(#mask7_1502:3527)">
<g opacity="0.799366" filter="url(#filter20_f_1502:3527)">
<path fill-rule="evenodd" clip-rule="evenodd" d="M68.8359 12.5164H84.2079V14.6944H68.8359V12.5164Z" fill="white"/>
</g>
<g filter="url(#filter21_f_1502:3527)">
<path d="M82.876 11.4004H70.294C69.664 11.4004 69.142 11.8864 69.106 12.4984C69.106 12.4624 69.106 12.4264 69.106 12.4084C69.106 11.7424 69.646 11.2024 70.312 11.2024H82.894C83.56 11.2024 84.1 11.7424 84.1 12.4084C84.1 12.4444 84.1 12.4804 84.1 12.4984C84.028 11.8864 83.506 11.4004 82.876 11.4004Z" fill="black"/>
</g>
<g style="mix-blend-mode:soft-light" opacity="0.15">
<rect x="-86" y="-20.7295" width="288" height="288" fill="#E4E4E4"/>
</g>
</g>
<path fill-rule="evenodd" clip-rule="evenodd" d="M70.2939 13.6146H82.8759C83.5239 13.6146 84.0459 13.1106 84.0819 12.4626C84.0819 12.4806 84.0819 12.4986 84.0819 12.5166C84.0819 13.1826 83.5419 13.7226 82.8759 13.7226H70.2939C69.6279 13.7226 69.0879 13.1826 69.0879 12.5166C69.0879 12.4986 69.0879 12.4806 69.0879 12.4626C69.1239 13.1106 69.6459 13.6146 70.2939 13.6146Z" fill="white"/>
<path opacity="0.9" fill-rule="evenodd" clip-rule="evenodd" d="M82.8759 11.2205H70.2939C69.6459 11.2205 69.1239 11.7245 69.0879 12.3726C69.0879 12.3546 69.0879 12.3366 69.0879 12.3186C69.0879 11.6525 69.6279 11.1125 70.2939 11.1125H82.8759C83.5419 11.1125 84.0819 11.6525 84.0819 12.3186C84.0819 12.3366 84.0819 12.3546 84.0819 12.3726C84.0459 11.7245 83.5239 11.2205 82.8759 11.2205Z" fill="white"/>
<g opacity="0.5" filter="url(#filter22_i_1502:3527)">
<path d="M82.8759 11.4004H70.2939C69.7359 11.4004 69.2859 11.8504 69.2859 12.4084C69.2859 12.9664 69.7359 13.4164 70.2939 13.4164H82.8759C83.4339 13.4164 83.8839 12.9664 83.8839 12.4084C83.8839 11.8504 83.4339 11.4004 82.8759 11.4004Z" fill="black" fill-opacity="0.01"/>
</g>
<mask id="mask8_1502:3527" style="mask-type:alpha" maskUnits="userSpaceOnUse" x="69" y="11" width="15" height="3">
<path d="M82.8759 11.4004H70.2939C69.7359 11.4004 69.2859 11.8504 69.2859 12.4084C69.2859 12.9664 69.7359 13.4164 70.2939 13.4164H82.8759C83.4339 13.4164 83.8839 12.9664 83.8839 12.4084C83.8839 11.8504 83.4339 11.4004 82.8759 11.4004Z" fill="white"/>
</mask>
<g mask="url(#mask8_1502:3527)">
<g style="mix-blend-mode:soft-light" opacity="0.03">
<rect x="-86" y="-20.9094" width="288" height="288" fill="#E4E4E4"/>
</g>
</g>
<path d="M91.1741 12.5526C91.1741 13.5606 90.3641 14.3706 89.3561 14.3706C88.3481 14.3706 87.5381 13.5606 87.5381 12.5526C87.5381 11.5446 88.3481 10.7346 89.3561 10.7346C90.3641 10.7346 91.1741 11.5446 91.1741 12.5526Z" fill="#E2E2E2"/>
<mask id="mask9_1502:3527" style="mask-type:alpha" maskUnits="userSpaceOnUse" x="87" y="10" width="5" height="5">
<path d="M91.1741 12.5526C91.1741 13.5606 90.3641 14.3706 89.3561 14.3706C88.3481 14.3706 87.5381 13.5606 87.5381 12.5526C87.5381 11.5446 88.3481 10.7346 89.3561 10.7346C90.3641 10.7346 91.1741 11.5446 91.1741 12.5526Z" fill="white"/>
</mask>
<g mask="url(#mask9_1502:3527)">
<g filter="url(#filter23_f_1502:3527)">
<path d="M91.2281 14.4068C91.2281 15.4508 90.3821 16.3148 89.3201 16.3148C88.2761 16.3148 87.4121 15.4688 87.4121 14.4068C87.4121 13.3628 88.2581 12.4988 89.3201 12.4988C90.3821 12.4988 91.2281 13.3628 91.2281 14.4068Z" fill="white"/>
</g>
<g opacity="0.1" filter="url(#filter24_f_1502:3527)">
<path d="M91.2281 10.9505C91.2281 11.9945 90.3821 12.8585 89.3201 12.8585C88.2761 12.8585 87.4121 12.0125 87.4121 10.9505C87.4121 9.90648 88.2581 9.04248 89.3201 9.04248C90.3821 9.04248 91.2281 9.90648 91.2281 10.9505Z" fill="black"/>
</g>
<g style="mix-blend-mode:soft-light" opacity="0.297101">
<rect x="-67.46" y="-21.0894" width="288" height="288" fill="#E4E4E4"/>
</g>
</g>
<g filter="url(#filter25_i_1502:3527)">
<path d="M90.5081 12.5526C90.5081 13.1826 89.9861 13.7046 89.3561 13.7046C88.7261 13.7046 88.2041 13.1826 88.2041 12.5526C88.2041 11.9226 88.7261 11.4006 89.3561 11.4006C89.9861 11.4006 90.5081 11.9226 90.5081 12.5526Z" fill="#E0E0E0"/>
</g>
<mask id="mask10_1502:3527" style="mask-type:alpha" maskUnits="userSpaceOnUse" x="88" y="11" width="3" height="3">
<path d="M90.5081 12.5526C90.5081 13.1826 89.9861 13.7046 89.3561 13.7046C88.7261 13.7046 88.2041 13.1826 88.2041 12.5526C88.2041 11.9226 88.7261 11.4006 89.3561 11.4006C89.9861 11.4006 90.5081 11.9226 90.5081 12.5526Z" fill="white"/>
</mask>
<g mask="url(#mask10_1502:3527)">
<g filter="url(#filter26_f_1502:3527)">
<path fill-rule="evenodd" clip-rule="evenodd" d="M88.4921 12.7866C88.3661 12.9846 88.8521 13.5066 89.3201 13.5066C89.7701 13.5066 90.3461 13.0206 90.2561 12.8046C90.0941 12.8946 89.7341 13.0746 89.3381 13.0746C88.9421 13.0746 88.6181 12.9126 88.4921 12.7866Z" fill="white"/>
</g>
<g filter="url(#filter27_f_1502:3527)">
<path fill-rule="evenodd" clip-rule="evenodd" d="M89.1583 11.9407C89.4103 11.9407 89.6083 12.1387 89.6083 12.3907C89.6083 12.6427 89.4103 12.8407 89.1583 12.8407C88.9063 12.8407 88.7083 12.6427 88.7083 12.3907C88.7083 12.1387 88.9063 11.9407 89.1583 11.9407Z" fill="white"/>
</g>
<g style="mix-blend-mode:soft-light" opacity="0.297101">
<rect x="-66.9199" y="-20.3694" width="288" height="288" fill="#E4E4E4"/>
</g>
</g>
<defs>
<filter id="filter0_f_1502:3527" x="10.7455" y="233.718" width="130.441" height="17.6776" filterUnits="userSpaceOnUse" color-interpolation-filters="sRGB">
<feFlood flood-opacity="0" result="BackgroundImageFix"/>
<feBlend mode="normal" in="SourceGraphic" in2="BackgroundImageFix" result="shape"/>
<feGaussianBlur stdDeviation="4.07742" result="effect1_foregroundBlur_1502:3527"/>
</filter>
<filter id="filter1_f_1502:3527" x="0.86493" y="233.358" width="150.29" height="18.4696" filterUnits="userSpaceOnUse" color-interpolation-filters="sRGB">
<feFlood flood-opacity="0" result="BackgroundImageFix"/>
<feBlend mode="normal" in="SourceGraphic" in2="BackgroundImageFix" result="shape"/>
<feGaussianBlur stdDeviation="4.07742" result="effect1_foregroundBlur_1502:3527"/>
</filter>
<filter id="filter2_f_1502:3527" x="-0.105589" y="17.663" width="153.292" height="92.6135" filterUnits="userSpaceOnUse" color-interpolation-filters="sRGB">
<feFlood flood-opacity="0" result="BackgroundImageFix"/>
<feBlend mode="normal" in="SourceGraphic" in2="BackgroundImageFix" result="shape"/>
<feGaussianBlur stdDeviation="8.15485" result="effect1_foregroundBlur_1502:3527"/>
</filter>
<filter id="filter3_f_1502:3527" x="8.04926" y="25.0441" width="136.892" height="77.5455" filterUnits="userSpaceOnUse" color-interpolation-filters="sRGB">
<feFlood flood-opacity="0" result="BackgroundImageFix"/>
<feBlend mode="normal" in="SourceGraphic" in2="BackgroundImageFix" result="shape"/>
<feGaussianBlur stdDeviation="4.07742" result="effect1_foregroundBlur_1502:3527"/>
</filter>
<filter id="filter4_f_1502:3527" x="10.7675" y="27.7983" width="131.545" height="71.6051" filterUnits="userSpaceOnUse" color-interpolation-filters="sRGB">
<feFlood flood-opacity="0" result="BackgroundImageFix"/>
<feBlend mode="normal" in="SourceGraphic" in2="BackgroundImageFix" result="shape"/>
<feGaussianBlur stdDeviation="2.71828" result="effect1_foregroundBlur_1502:3527"/>
</filter>
<filter id="filter5_f_1502:3527" x="10.7675" y="27.9423" width="131.545" height="71.6053" filterUnits="userSpaceOnUse" color-interpolation-filters="sRGB">
<feFlood flood-opacity="0" result="BackgroundImageFix"/>
<feBlend mode="normal" in="SourceGraphic" in2="BackgroundImageFix" result="shape"/>
<feGaussianBlur stdDeviation="2.71828" result="effect1_foregroundBlur_1502:3527"/>
</filter>
<filter id="filter6_f_1502:3527" x="9.72359" y="29.9941" width="12.192" height="20.5931" filterUnits="userSpaceOnUse" color-interpolation-filters="sRGB">
<feFlood flood-opacity="0" result="BackgroundImageFix"/>
<feBlend mode="normal" in="SourceGraphic" in2="BackgroundImageFix" result="shape"/>
<feGaussianBlur stdDeviation="2.71828" result="effect1_foregroundBlur_1502:3527"/>
</filter>
<filter id="filter7_f_1502:3527" x="9.18355" y="45.8132" width="12.732" height="53.3512" filterUnits="userSpaceOnUse" color-interpolation-filters="sRGB">
<feFlood flood-opacity="0" result="BackgroundImageFix"/>
<feBlend mode="normal" in="SourceGraphic" in2="BackgroundImageFix" result="shape"/>
<feGaussianBlur stdDeviation="2.71828" result="effect1_foregroundBlur_1502:3527"/>
</filter>
<filter id="filter8_f_1502:3527" x="131.572" y="45.8132" width="12.732" height="53.3512" filterUnits="userSpaceOnUse" color-interpolation-filters="sRGB">
<feFlood flood-opacity="0" result="BackgroundImageFix"/>
<feBlend mode="normal" in="SourceGraphic" in2="BackgroundImageFix" result="shape"/>
<feGaussianBlur stdDeviation="2.71828" result="effect1_foregroundBlur_1502:3527"/>
</filter>
<filter id="filter9_f_1502:3527" x="-0.213743" y="-14.359" width="153.958" height="273.063" filterUnits="userSpaceOnUse" color-interpolation-filters="sRGB">
<feFlood flood-opacity="0" result="BackgroundImageFix"/>
<feBlend mode="normal" in="SourceGraphic" in2="BackgroundImageFix" result="shape"/>
<feGaussianBlur stdDeviation="8.15485" result="effect1_foregroundBlur_1502:3527"/>
</filter>
<filter id="filter10_f_1502:3527" x="-23.3465" y="-37.6539" width="199.881" height="322.839" filterUnits="userSpaceOnUse" color-interpolation-filters="sRGB">
<feFlood flood-opacity="0" result="BackgroundImageFix"/>
<feBlend mode="normal" in="SourceGraphic" in2="BackgroundImageFix" result="shape"/>
<feGaussianBlur stdDeviation="21.7463" result="effect1_foregroundBlur_1502:3527"/>
</filter>
<filter id="filter11_f_1502:3527" x="-2.8422" y="-15.8537" width="158.872" height="276.647" filterUnits="userSpaceOnUse" color-interpolation-filters="sRGB">
<feFlood flood-opacity="0" result="BackgroundImageFix"/>
<feBlend mode="normal" in="SourceGraphic" in2="BackgroundImageFix" result="shape"/>
<feGaussianBlur stdDeviation="10.8731" result="effect1_foregroundBlur_1502:3527"/>
</filter>
<filter id="filter12_f_1502:3527" x="-2.8422" y="-15.8537" width="158.872" height="276.647" filterUnits="userSpaceOnUse" color-interpolation-filters="sRGB">
<feFlood flood-opacity="0" result="BackgroundImageFix"/>
<feBlend mode="normal" in="SourceGraphic" in2="BackgroundImageFix" result="shape"/>
<feGaussianBlur stdDeviation="10.8731" result="effect1_foregroundBlur_1502:3527"/>
</filter>
<filter id="filter13_f_1502:3527" x="-13.0493" y="-28.9946" width="179.287" height="79.6929" filterUnits="userSpaceOnUse" color-interpolation-filters="sRGB">
<feFlood flood-opacity="0" result="BackgroundImageFix"/>
<feBlend mode="normal" in="SourceGraphic" in2="BackgroundImageFix" result="shape"/>
<feGaussianBlur stdDeviation="16.3097" result="effect1_foregroundBlur_1502:3527"/>
</filter>
<filter id="filter14_f_1502:3527" x="-0.811888" y="213.431" width="154.794" height="52.0593" filterUnits="userSpaceOnUse" color-interpolation-filters="sRGB">
<feFlood flood-opacity="0" result="BackgroundImageFix"/>
<feBlend mode="normal" in="SourceGraphic" in2="BackgroundImageFix" result="shape"/>
<feGaussianBlur stdDeviation="8.15485" result="effect1_foregroundBlur_1502:3527"/>
</filter>
<filter id="filter15_f_1502:3527" x="1.94641" y="219.047" width="149.295" height="41.5654" filterUnits="userSpaceOnUse" color-interpolation-filters="sRGB">
<feFlood flood-opacity="0" result="BackgroundImageFix"/>
<feBlend mode="normal" in="SourceGraphic" in2="BackgroundImageFix" result="shape"/>
<feGaussianBlur stdDeviation="8.15485" result="effect1_foregroundBlur_1502:3527"/>
</filter>
<filter id="filter16_f_1502:3527" x="6.37468" y="217.607" width="140.42" height="42.0863" filterUnits="userSpaceOnUse" color-interpolation-filters="sRGB">
<feFlood flood-opacity="0" result="BackgroundImageFix"/>
<feBlend mode="normal" in="SourceGraphic" in2="BackgroundImageFix" result="shape"/>
<feGaussianBlur stdDeviation="5.43656" result="effect1_foregroundBlur_1502:3527"/>
</filter>
<filter id="filter17_f_1502:3527" x="7.00507" y="-6.20416" width="139.574" height="257.535" filterUnits="userSpaceOnUse" color-interpolation-filters="sRGB">
<feFlood flood-opacity="0" result="BackgroundImageFix"/>
<feBlend mode="normal" in="SourceGraphic" in2="BackgroundImageFix" result="shape"/>
<feGaussianBlur stdDeviation="4.07742" result="effect1_foregroundBlur_1502:3527"/>
</filter>
<filter id="filter18_f_1502:3527" x="-23.3465" y="-37.6539" width="199.881" height="321.219" filterUnits="userSpaceOnUse" color-interpolation-filters="sRGB">
<feFlood flood-opacity="0" result="BackgroundImageFix"/>
<feBlend mode="normal" in="SourceGraphic" in2="BackgroundImageFix" result="shape"/>
<feGaussianBlur stdDeviation="21.7463" result="effect1_foregroundBlur_1502:3527"/>
</filter>
<filter id="filter19_f_1502:3527" x="5.78961" y="15.2061" width="141.717" height="215.571" filterUnits="userSpaceOnUse" color-interpolation-filters="sRGB">
<feFlood flood-opacity="0" result="BackgroundImageFix"/>
<feBlend mode="normal" in="SourceGraphic" in2="BackgroundImageFix" result="shape"/>
<feGaussianBlur stdDeviation="4.57724" result="effect1_foregroundBlur_1502:3527"/>
</filter>
<filter id="filter20_f_1502:3527" x="58.2176" y="1.89807" width="36.6086" height="23.4146" filterUnits="userSpaceOnUse" color-interpolation-filters="sRGB">
<feFlood flood-opacity="0" result="BackgroundImageFix"/>
<feBlend mode="normal" in="SourceGraphic" in2="BackgroundImageFix" result="shape"/>
<feGaussianBlur stdDeviation="5.30914" result="effect1_foregroundBlur_1502:3527"/>
</filter>
<filter id="filter21_f_1502:3527" x="66.3877" y="8.48411" width="20.4305" height="6.73246" filterUnits="userSpaceOnUse" color-interpolation-filters="sRGB">
<feFlood flood-opacity="0" result="BackgroundImageFix"/>
<feBlend mode="normal" in="SourceGraphic" in2="BackgroundImageFix" result="shape"/>
<feGaussianBlur stdDeviation="1.35914" result="effect1_foregroundBlur_1502:3527"/>
</filter>
<filter id="filter22_i_1502:3527" x="69.2859" y="11.4004" width="14.5979" height="3.01611" filterUnits="userSpaceOnUse" color-interpolation-filters="sRGB">
<feFlood flood-opacity="0" result="BackgroundImageFix"/>
<feBlend mode="normal" in="SourceGraphic" in2="BackgroundImageFix" result="shape"/>
<feColorMatrix in="SourceAlpha" type="matrix" values="0 0 0 0 0 0 0 0 0 0 0 0 0 0 0 0 0 0 127 0" result="hardAlpha"/>
<feOffset dy="1"/>
<feGaussianBlur stdDeviation="1.5"/>
<feComposite in2="hardAlpha" operator="arithmetic" k2="-1" k3="1"/>
<feColorMatrix type="matrix" values="0 0 0 0 0 0 0 0 0 0 0 0 0 0 0 0 0 0 0.297186 0"/>
<feBlend mode="normal" in2="shape" result="effect1_innerShadow_1502:3527"/>
</filter>
<filter id="filter23_f_1502:3527" x="76.539" y="1.62565" width="25.5622" height="25.5622" filterUnits="userSpaceOnUse" color-interpolation-filters="sRGB">
<feFlood flood-opacity="0" result="BackgroundImageFix"/>
<feBlend mode="normal" in="SourceGraphic" in2="BackgroundImageFix" result="shape"/>
<feGaussianBlur stdDeviation="5.43656" result="effect1_foregroundBlur_1502:3527"/>
</filter>
<filter id="filter24_f_1502:3527" x="76.539" y="-1.83065" width="25.5622" height="25.5622" filterUnits="userSpaceOnUse" color-interpolation-filters="sRGB">
<feFlood flood-opacity="0" result="BackgroundImageFix"/>
<feBlend mode="normal" in="SourceGraphic" in2="BackgroundImageFix" result="shape"/>
<feGaussianBlur stdDeviation="5.43656" result="effect1_foregroundBlur_1502:3527"/>
</filter>
<filter id="filter25_i_1502:3527" x="88.2041" y="11.4006" width="2.30396" height="2.30396" filterUnits="userSpaceOnUse" color-interpolation-filters="sRGB">
<feFlood flood-opacity="0" result="BackgroundImageFix"/>
<feBlend mode="normal" in="SourceGraphic" in2="BackgroundImageFix" result="shape"/>
<feColorMatrix in="SourceAlpha" type="matrix" values="0 0 0 0 0 0 0 0 0 0 0 0 0 0 0 0 0 0 127 0" result="hardAlpha"/>
<feOffset/>
<feGaussianBlur stdDeviation="2.5"/>
<feComposite in2="hardAlpha" operator="arithmetic" k2="-1" k3="1"/>
<feColorMatrix type="matrix" values="0 0 0 0 0 0 0 0 0 0 0 0 0 0 0 0 0 0 0.281646 0"/>
<feBlend mode="normal" in2="shape" result="effect1_innerShadow_1502:3527"/>
</filter>
<filter id="filter26_f_1502:3527" x="85.7536" y="10.0683" width="7.23002" height="6.15653" filterUnits="userSpaceOnUse" color-interpolation-filters="sRGB">
<feFlood flood-opacity="0" result="BackgroundImageFix"/>
<feBlend mode="normal" in="SourceGraphic" in2="BackgroundImageFix" result="shape"/>
<feGaussianBlur stdDeviation="1.35914" result="effect1_foregroundBlur_1502:3527"/>
</filter>
<filter id="filter27_f_1502:3527" x="85.99" y="9.22239" width="6.33647" height="6.33647" filterUnits="userSpaceOnUse" color-interpolation-filters="sRGB">
<feFlood flood-opacity="0" result="BackgroundImageFix"/>
<feBlend mode="normal" in="SourceGraphic" in2="BackgroundImageFix" result="shape"/>
<feGaussianBlur stdDeviation="1.35914" result="effect1_foregroundBlur_1502:3527"/>
</filter>
<linearGradient id="paint0_linear_1502:3527" x1="128.088" y1="241.934" x2="24.4505" y2="235.977" gradientUnits="userSpaceOnUse">
<stop stop-opacity="0.01"/>
<stop offset="0.0674672"/>
<stop offset="0.928003"/>
<stop offset="1" stop-opacity="0.01"/>
</linearGradient>
<linearGradient id="paint1_linear_1502:3527" x1="138.541" y1="241.598" x2="15.1003" y2="240.918" gradientUnits="userSpaceOnUse">
<stop stop-opacity="0.01"/>
<stop offset="0.0782494"/>
<stop offset="0.921377"/>
<stop offset="1" stop-opacity="0.01"/>
</linearGradient>
</defs>
</svg>
