<svg width="72" height="73" viewBox="0 0 72 73" fill="none" xmlns="http://www.w3.org/2000/svg">
<rect y="0.5" width="72" height="72" rx="36" fill="#F4F5F7"/>
<path d="M20.8293 34.2069H31.8052C32.2904 34.2069 32.7557 34.0141 33.0987 33.6711C33.4418 33.328 33.6345 32.8627 33.6345 32.3775V21.4017C33.6345 20.9165 33.4418 20.4512 33.0987 20.1081C32.7557 19.7651 32.2904 19.5723 31.8052 19.5723H20.8293C20.3441 19.5723 19.8789 19.7651 19.5358 20.1081C19.1927 20.4512 19 20.9165 19 21.4017V32.3775C19 32.8627 19.1927 33.328 19.5358 33.6711C19.8789 34.0141 20.3441 34.2069 20.8293 34.2069ZM20.8293 52.5H31.8052C32.2904 52.5 32.7557 52.3073 33.0987 51.9642C33.4418 51.6211 33.6345 51.1558 33.6345 50.6707V39.6948C33.6345 39.2096 33.4418 38.7443 33.0987 38.4013C32.7557 38.0582 32.2904 37.8655 31.8052 37.8655H20.8293C20.3441 37.8655 19.8789 38.0582 19.5358 38.4013C19.1927 38.7443 19 39.2096 19 39.6948V50.6707C19 51.1558 19.1927 51.6211 19.5358 51.9642C19.8789 52.3073 20.3441 52.5 20.8293 52.5ZM39.1225 52.5H50.0983C50.5835 52.5 51.0488 52.3073 51.3919 51.9642C51.7349 51.6211 51.9277 51.1558 51.9277 50.6707V39.6948C51.9277 39.2096 51.7349 38.7443 51.3919 38.4013C51.0488 38.0582 50.5835 37.8655 50.0983 37.8655H39.1225C38.6373 37.8655 38.172 38.0582 37.8289 38.4013C37.4859 38.7443 37.2931 39.2096 37.2931 39.6948V50.6707C37.2931 51.1558 37.4859 51.6211 37.8289 51.9642C38.172 52.3073 38.6373 52.5 39.1225 52.5ZM52.4636 25.5963L45.9037 19.0364C45.734 18.8663 45.5324 18.7314 45.3105 18.6394C45.0885 18.5474 44.8506 18.5 44.6104 18.5C44.3701 18.5 44.1323 18.5474 43.9103 18.6394C43.6884 18.7314 43.4868 18.8663 43.3171 19.0364L36.7572 25.5963C36.5871 25.766 36.4522 25.9676 36.3602 26.1895C36.2682 26.4115 36.2208 26.6494 36.2208 26.8896C36.2208 27.1299 36.2682 27.3677 36.3602 27.5897C36.4522 27.8116 36.5871 28.0132 36.7572 28.1829L43.3171 34.7428C43.4868 34.9129 43.6884 35.0478 43.9103 35.1398C44.1323 35.2318 44.3701 35.2792 44.6104 35.2792C44.8506 35.2792 45.0885 35.2318 45.3105 35.1398C45.5324 35.0478 45.734 34.9129 45.9037 34.7428L52.4636 28.1829C52.6337 28.0132 52.7686 27.8116 52.8606 27.5897C52.9526 27.3677 53 27.1299 53 26.8896C53 26.6494 52.9526 26.4115 52.8606 26.1895C52.7686 25.9676 52.6337 25.766 52.4636 25.5963Z" fill="#2F80ED"/>
</svg>
