<svg width="117" height="119" viewBox="0 0 117 119" fill="none" xmlns="http://www.w3.org/2000/svg">
<path fill-rule="evenodd" clip-rule="evenodd" d="M11.6883 47.5778C27.6047 48.076 41.1698 54.4052 51.7562 66.0096C62.1649 77.4192 67.3947 91.3349 66.5873 107.137L44.6657 106.799C45.1679 96.9721 42.0878 88.5019 35.2805 81.04C28.4214 73.5213 20.2012 69.7579 10.2218 69.4455L11.6883 47.5778Z" fill="#2F80ED"/>
<path fill-rule="evenodd" clip-rule="evenodd" d="M16.9439 16.6681C40.1695 17.7153 60.0129 27.1828 75.7678 44.4526C91.2767 61.453 99.1254 81.8456 98.265 104.913L76.7323 104.175C77.3733 86.9922 71.7132 72.0238 59.8272 58.9948C47.8219 45.835 33.296 38.9718 15.9084 38.1878L16.9439 16.6681Z" fill="black"/>
</svg>
