<svg width="508" height="119" viewBox="0 0 508 119" fill="none" xmlns="http://www.w3.org/2000/svg">
<path d="M43.1016 58.3555H27.4219V101H16.875V58.3555H1.40625V49.8125H43.1016V58.3555ZM64.6172 101C64.1484 100.086 63.8086 98.9492 63.5977 97.5898C61.1367 100.332 57.9375 101.703 54 101.703C50.2734 101.703 47.1797 100.625 44.7188 98.4688C42.2812 96.3125 41.0625 93.5938 41.0625 90.3125C41.0625 86.2812 42.5508 83.1875 45.5273 81.0312C48.5273 78.875 52.8516 77.7852 58.5 77.7617H63.1758V75.582C63.1758 73.8242 62.7188 72.418 61.8047 71.3633C60.9141 70.3086 59.4961 69.7812 57.5508 69.7812C55.8398 69.7812 54.4922 70.1914 53.5078 71.0117C52.5469 71.832 52.0664 72.957 52.0664 74.3867H41.9062C41.9062 72.1836 42.5859 70.1445 43.9453 68.2695C45.3047 66.3945 47.2266 64.9297 49.7109 63.875C52.1953 62.7969 54.9844 62.2578 58.0781 62.2578C62.7656 62.2578 66.4805 63.4414 69.2227 65.8086C71.9883 68.1523 73.3711 71.457 73.3711 75.7227V92.2109C73.3945 95.8203 73.8984 98.5508 74.8828 100.402V101H64.6172ZM56.2148 93.9336C57.7148 93.9336 59.0977 93.6055 60.3633 92.9492C61.6289 92.2695 62.5664 91.3672 63.1758 90.2422V83.7031H59.3789C54.293 83.7031 51.5859 85.4609 51.2578 88.9766L51.2227 89.5742C51.2227 90.8398 51.668 91.8828 52.5586 92.7031C53.4492 93.5234 54.668 93.9336 56.2148 93.9336ZM115.418 82.332C115.418 88.1914 114.082 92.8906 111.41 96.4297C108.762 99.9453 105.176 101.703 100.652 101.703C96.8086 101.703 93.7031 100.367 91.3359 97.6953V115.625H81.1758V62.9609H90.5977L90.9492 66.6875C93.4102 63.7344 96.6211 62.2578 100.582 62.2578C105.27 62.2578 108.914 63.9922 111.516 67.4609C114.117 70.9297 115.418 75.7109 115.418 81.8047V82.332ZM105.258 81.5938C105.258 78.0547 104.625 75.3242 103.359 73.4023C102.117 71.4805 100.301 70.5195 97.9102 70.5195C94.7227 70.5195 92.5312 71.7383 91.3359 74.1758V89.75C92.5781 92.2578 94.793 93.5117 97.9805 93.5117C102.832 93.5117 105.258 89.5391 105.258 81.5938Z" fill="#1076FD"/>
<path d="M164.039 101H153.492L132.961 67.3203V101H122.414V49.8125H132.961L153.527 83.5625V49.8125H164.039V101ZM190.09 101.703C184.512 101.703 179.965 99.9922 176.449 96.5703C172.957 93.1484 171.211 88.5898 171.211 82.8945V81.9102C171.211 78.0898 171.949 74.6797 173.426 71.6797C174.902 68.6562 176.988 66.3359 179.684 64.7188C182.402 63.0781 185.496 62.2578 188.965 62.2578C194.168 62.2578 198.258 63.8984 201.234 67.1797C204.234 70.4609 205.734 75.1133 205.734 81.1367V85.2852H181.512C181.84 87.7695 182.824 89.7617 184.465 91.2617C186.129 92.7617 188.227 93.5117 190.758 93.5117C194.672 93.5117 197.73 92.0938 199.934 89.2578L204.926 94.8477C203.402 97.0039 201.34 98.6914 198.738 99.9102C196.137 101.105 193.254 101.703 190.09 101.703ZM188.93 70.4844C186.914 70.4844 185.273 71.1641 184.008 72.5234C182.766 73.8828 181.969 75.8281 181.617 78.3594H195.75V77.5508C195.703 75.3008 195.094 73.5664 193.922 72.3477C192.75 71.1055 191.086 70.4844 188.93 70.4844ZM223.699 53.6094V62.9609H230.203V70.4141H223.699V89.3984C223.699 90.8047 223.969 91.8125 224.508 92.4219C225.047 93.0312 226.078 93.3359 227.602 93.3359C228.727 93.3359 229.723 93.2539 230.59 93.0898V100.789C228.598 101.398 226.547 101.703 224.438 101.703C217.312 101.703 213.68 98.1055 213.539 90.9102V70.4141H207.984V62.9609H213.539V53.6094H223.699ZM268.945 87.1836L273.938 62.9609H283.746L274.043 101H265.535L258.328 77.0586L251.121 101H242.648L232.945 62.9609H242.754L247.711 87.1484L254.672 62.9609H262.02L268.945 87.1836ZM287.227 81.6289C287.227 77.8555 287.953 74.4922 289.406 71.5391C290.859 68.5859 292.945 66.3008 295.664 64.6836C298.406 63.0664 301.582 62.2578 305.191 62.2578C310.324 62.2578 314.508 63.8281 317.742 66.9688C321 70.1094 322.816 74.375 323.191 79.7656L323.262 82.3672C323.262 88.2031 321.633 92.8906 318.375 96.4297C315.117 99.9453 310.746 101.703 305.262 101.703C299.777 101.703 295.395 99.9453 292.113 96.4297C288.855 92.9141 287.227 88.1328 287.227 82.0859V81.6289ZM297.387 82.3672C297.387 85.9766 298.066 88.7422 299.426 90.6641C300.785 92.5625 302.73 93.5117 305.262 93.5117C307.723 93.5117 309.645 92.5742 311.027 90.6992C312.41 88.8008 313.102 85.7773 313.102 81.6289C313.102 78.0898 312.41 75.3477 311.027 73.4023C309.645 71.457 307.699 70.4844 305.191 70.4844C302.707 70.4844 300.785 71.457 299.426 73.4023C298.066 75.3242 297.387 78.3125 297.387 82.3672ZM350.895 72.4883C349.512 72.3008 348.293 72.207 347.238 72.207C343.395 72.207 340.875 73.5078 339.68 76.1094V101H329.52V62.9609H339.117L339.398 67.4961C341.438 64.0039 344.262 62.2578 347.871 62.2578C348.996 62.2578 350.051 62.4102 351.035 62.7148L350.895 72.4883ZM369.633 85.7422L365.977 89.3984V101H355.816V47H365.977V76.918L367.945 74.3867L377.684 62.9609H389.883L376.137 78.8164L391.078 101H379.406L369.633 85.7422Z" fill="black"/>
<path fill-rule="evenodd" clip-rule="evenodd" d="M402.688 47.5778C418.605 48.076 432.17 54.4052 442.756 66.0096C453.165 77.4192 458.395 91.3349 457.587 107.137L435.666 106.799C436.168 96.9721 433.088 88.5019 426.28 81.04C419.421 73.5213 411.201 69.7579 401.222 69.4455L402.688 47.5778Z" fill="#2F80ED"/>
<path fill-rule="evenodd" clip-rule="evenodd" d="M407.944 16.6681C431.169 17.7153 451.013 27.1828 466.768 44.4526C482.277 61.453 490.125 81.8456 489.265 104.913L467.732 104.175C468.373 86.9922 462.713 72.0238 450.827 58.9948C438.822 45.835 424.296 38.9718 406.908 38.1878L407.944 16.6681Z" fill="black"/>
</svg>
