<svg xmlns="http://www.w3.org/2000/svg" width="1333.656" height="2886.121" viewBox="0 0 1333.656 2886.121">
  <defs>
    <style>
      .cls-1 {
        fill: #dee4e2;
        fill-rule: evenodd;
      }
    </style>
  </defs>
  <path id="mask" class="cls-1" d="M1598.62,3386.61c124.57,0,187.63-51.64,187.63-168.21l-0.01-2544.651c0-122.85-65.35-173.258-172.08-173.258l-119.12-.013a18.247,18.247,0,0,0-18.12,18.276v6.719c0,47.936-34.73,77.608-77.57,77.608H841.776c-42.837,0-77.567-29.672-77.567-77.608v-6.719a18.249,18.249,0,0,0-18.123-18.276l-121.4.013c-106.735,0-172.078,50.408-172.078,173.258L452.594,3218.4c0,116.57,63.062,168.21,187.635,168.21H1598.62Z" transform="translate(-452.594 -500.469)"/>
</svg>
