<svg width="72" height="73" viewBox="0 0 72 73" fill="none" xmlns="http://www.w3.org/2000/svg">
<rect y="0.5" width="72" height="72" rx="36" fill="#F4F5F7"/>
<path d="M52.0048 33.3094C49.6427 32.6795 46.4596 35.334 44.8736 33.6469C42.9502 31.5997 47.4269 27.4268 46.9657 23.6138C46.5945 20.4869 43.0177 19.0246 39.4746 19.0021C36.6912 18.9622 33.9281 19.4812 31.3488 20.5284C28.7695 21.5756 26.4266 23.1296 24.4587 25.0985C16.9901 32.5108 15.3817 43.0951 22.9178 50.3837C29.9027 57.1324 41.6005 55.1415 48.4167 48.809C50.5242 46.7388 52.1455 44.2262 53.1633 41.4529C54.3781 38.191 54.4905 33.9843 52.0048 33.3094ZM26.3259 28.4503C26.9351 28.2112 27.6138 28.2196 28.2169 28.4739C28.8201 28.7282 29.2999 29.2081 29.554 29.8113C29.6552 30.4578 29.4986 31.1182 29.1179 31.6504C28.7371 32.1826 28.1627 32.5441 27.5182 32.657C26.9091 32.8992 26.2293 32.8923 25.6254 32.6377C25.0214 32.383 24.5418 31.9012 24.29 31.2961C24.1918 30.65 24.3496 29.9911 24.7298 29.4596C25.11 28.9281 25.6827 28.566 26.3259 28.4503ZM21.4556 39.9794C21.3546 39.3313 21.5127 38.6694 21.8958 38.1369C22.2789 37.6044 22.8561 37.2441 23.5027 37.1337C24.1103 36.895 24.7874 36.9037 25.3887 37.1581C25.99 37.4125 26.4677 37.8923 26.7196 38.4947C26.8083 39.1355 26.6461 39.7858 26.2667 40.3098C25.8873 40.8338 25.3202 41.1909 24.6837 41.3067C24.0783 41.545 23.4043 41.5399 22.8026 41.2926C22.2009 41.0452 21.7182 40.5746 21.4556 39.9794ZM29.3291 49.3489C28.72 49.5911 28.0402 49.5841 27.4363 49.3295C26.8323 49.0749 26.3527 48.593 26.1009 47.9879C26.0024 47.3435 26.1587 46.686 26.5366 46.1548C26.9145 45.6236 27.4844 45.2604 28.1255 45.1422C28.7348 44.903 29.4134 44.9114 30.0166 45.1657C30.6197 45.42 31.0996 45.9 31.3537 46.5032C31.4031 46.8282 31.3879 47.1598 31.3089 47.479C31.2298 47.7981 31.0885 48.0985 30.8931 48.3629C30.6977 48.6273 30.4519 48.8505 30.17 49.0197C29.8881 49.1889 29.5756 49.3008 29.2503 49.3489H29.3291ZM32.6247 25.8521C32.5265 25.206 32.6842 24.5471 33.0645 24.0156C33.4447 23.4841 34.0174 23.122 34.6605 23.0064C35.2701 22.7701 35.9475 22.78 36.5499 23.034C37.1522 23.2879 37.6323 23.7661 37.8887 24.3674C37.9896 25.0155 37.8315 25.6773 37.4484 26.2098C37.0654 26.7423 36.4882 27.1027 35.8416 27.2131C35.2341 27.4548 34.5559 27.4476 33.9538 27.1928C33.3517 26.9381 32.8742 26.4564 32.6247 25.8521ZM39.1709 50.8111C38.5619 51.0533 37.8821 51.0463 37.2781 50.7917C36.6742 50.5371 36.1946 50.0552 35.9428 49.4501C35.8446 48.804 36.0024 48.1451 36.3826 47.6136C36.7628 47.0822 37.3355 46.7201 37.9787 46.6044C38.5882 46.3682 39.2656 46.3781 39.868 46.632C40.4703 46.886 40.9504 47.3641 41.2068 47.9654C41.3071 48.6185 41.1444 49.2848 40.7543 49.8182C40.3643 50.3516 39.7787 50.7086 39.1259 50.8111H39.1709ZM44.7949 39.0458C44.4476 39.9309 43.7642 40.6425 42.894 41.0255C42.3976 41.2443 41.8617 41.3592 41.3193 41.3629C40.729 41.3823 40.1452 41.2342 39.6356 40.9356C39.1261 40.637 38.7115 40.2002 38.4398 39.6757C38.2718 39.3266 38.1781 38.9464 38.1645 38.5592C38.151 38.172 38.2179 37.7862 38.3611 37.4261C38.7084 36.5411 39.3918 35.8294 40.262 35.4465C41.0403 35.0429 41.9452 34.9581 42.785 35.21C43.6247 35.462 44.3335 36.0309 44.7611 36.7963C44.9149 37.1533 44.9943 37.5379 44.9943 37.9267C44.9943 38.3154 44.9149 38.7001 44.7611 39.0571L44.7949 39.0458Z" fill="#2F80ED"/>
</svg>
