<svg width="313" height="314" viewBox="0 0 313 314" fill="none" xmlns="http://www.w3.org/2000/svg">
<g filter="url(#filter0_f)">
<circle cx="156.5" cy="157" r="146.5" fill="#F1F7FF"/>
</g>
<g clip-path="url(#clip0)">
<path d="M190.057 177.223C190.057 176.8 189.889 176.395 189.59 176.095C189.291 175.796 188.885 175.628 188.462 175.628H131.04C130.617 175.628 130.212 175.796 129.912 176.095C129.613 176.395 129.445 176.8 129.445 177.223C129.445 177.646 129.613 178.052 129.912 178.351C130.212 178.65 130.617 178.818 131.04 178.818H188.462C188.885 178.818 189.291 178.65 189.59 178.351C189.889 178.052 190.057 177.646 190.057 177.223Z" fill="#8692A6"/>
<path d="M123.94 106.577C122.606 107.464 120.584 110.162 122.501 113.997C124.093 117.177 127.414 121.069 130.945 122.096C131.794 122.362 132.69 122.444 133.573 122.336C134.455 122.229 135.305 121.934 136.065 121.471C139.571 119.372 143.712 116.533 145.466 115.314C147.68 116.434 150.475 116.667 153.314 115.936L153.352 115.924C153.186 121.19 151.403 124.479 142.685 132.576C134.913 139.789 130.304 149.263 130.348 157.924C130.38 163.606 132.451 168.483 136.346 172.021C136.639 172.29 137.023 172.439 137.421 172.439H182.082C182.505 172.439 182.911 172.271 183.21 171.972C183.509 171.673 183.677 171.267 183.677 170.844C183.677 170.421 183.509 170.015 183.21 169.716C182.911 169.417 182.505 169.249 182.082 169.249H138.056C135.124 166.362 133.567 162.454 133.542 157.908C133.5 150.246 137.839 141.432 144.857 134.914C154.156 126.282 156.561 122.192 156.561 115.018C156.561 114.887 156.517 114.772 156.488 114.651C158.233 113.71 159.742 112.466 160.772 110.96C162.064 109.078 164.846 104.245 162.782 99.9669C162.691 99.7783 162.563 99.6097 162.407 99.4704C162.25 99.3312 162.068 99.2242 161.87 99.1555C161.672 99.0867 161.462 99.0577 161.253 99.0699C161.044 99.0821 160.84 99.1354 160.651 99.2268C160.463 99.3181 160.294 99.4457 160.155 99.6022C160.015 99.7587 159.908 99.9411 159.84 100.139C159.771 100.337 159.742 100.546 159.754 100.755C159.766 100.965 159.82 101.169 159.911 101.358C160.839 103.281 160.179 106.197 158.144 109.157C156.97 110.867 154.871 112.249 152.526 112.848C150.143 113.458 147.878 113.19 146.299 112.108C146.03 111.924 145.712 111.827 145.386 111.829C145.06 111.831 144.743 111.933 144.477 112.121C144.42 112.159 138.809 116.112 134.432 118.737C134.048 118.973 133.617 119.123 133.17 119.174C132.722 119.226 132.269 119.179 131.841 119.037C129.372 118.316 126.658 115.171 125.359 112.574C124.31 110.475 125.385 109.473 125.873 109.116C136.869 99.6191 142.388 89.7522 142.614 89.3343C142.719 89.1412 142.784 88.9287 142.803 88.7098C142.823 88.4909 142.798 88.2702 142.729 88.0615C142.039 85.9321 141.464 83.7672 141.007 81.576C144.343 83.5858 150.082 86.3931 156.057 86.3931C164.364 86.3931 183.677 89.4938 183.677 118.217C183.677 118.374 183.648 133.989 177.393 151.161C177.318 151.359 177.284 151.569 177.292 151.78C177.3 151.991 177.349 152.198 177.437 152.389C177.526 152.581 177.651 152.753 177.806 152.896C177.962 153.039 178.144 153.149 178.342 153.221C178.54 153.293 178.751 153.325 178.962 153.315C179.172 153.305 179.379 153.253 179.569 153.163C179.76 153.072 179.931 152.945 180.072 152.788C180.213 152.631 180.321 152.448 180.391 152.249C186.838 134.551 186.87 118.862 186.867 118.208C186.867 85.7231 163.283 83.1998 156.057 83.1998C148.053 83.1998 140.069 77.1291 139.992 77.0653C139.754 76.8859 139.471 76.7757 139.174 76.747C138.878 76.7183 138.579 76.7721 138.311 76.9026C138.044 77.0341 137.819 77.2376 137.662 77.4901C137.505 77.7427 137.421 78.0342 137.421 78.3317C137.421 81.4612 138.904 86.5239 139.482 88.3709C138.148 90.5976 132.891 98.8376 123.94 106.577Z" fill="#8692A6"/>
<path d="M175.654 81.6487C170.547 78.2066 164.837 76.736 156.562 76.736C156.139 76.736 155.733 76.904 155.434 77.2031C155.135 77.5023 154.967 77.908 154.967 78.331C154.967 78.754 155.135 79.1597 155.434 79.4589C155.733 79.758 156.139 79.926 156.562 79.926C164.154 79.926 169.332 81.2308 173.874 84.2933C181.256 89.2762 190.058 99.2037 190.058 118.207C190.058 122.836 190.058 129.174 186.915 141.747C186.824 142.153 186.895 142.579 187.114 142.934C187.332 143.288 187.681 143.543 188.085 143.644C188.49 143.745 188.917 143.684 189.277 143.473C189.637 143.263 189.9 142.92 190.01 142.519C193.248 129.57 193.248 123.002 193.248 118.207C193.248 97.8032 183.681 87.0622 175.654 81.6487Z" fill="#8692A6"/>
</g>
<path d="M69.8987 221.644C68.6387 221.644 67.4987 221.368 66.4787 220.816C65.4707 220.252 64.6787 219.484 64.1027 218.512C63.5267 217.528 63.2387 216.424 63.2387 215.2C63.2387 213.976 63.5267 212.878 64.1027 211.906C64.6787 210.922 65.4767 210.154 66.4967 209.602C67.5167 209.038 68.6567 208.756 69.9167 208.756C70.9007 208.756 71.8007 208.924 72.6167 209.26C73.4327 209.584 74.1287 210.07 74.7047 210.718L73.5347 211.852C72.5867 210.856 71.4047 210.358 69.9887 210.358C69.0527 210.358 68.2067 210.568 67.4507 210.988C66.6947 211.408 66.1007 211.99 65.6687 212.734C65.2487 213.466 65.0387 214.288 65.0387 215.2C65.0387 216.112 65.2487 216.94 65.6687 217.684C66.1007 218.416 66.6947 218.992 67.4507 219.412C68.2067 219.832 69.0527 220.042 69.9887 220.042C71.3927 220.042 72.5747 219.538 73.5347 218.53L74.7047 219.664C74.1287 220.312 73.4267 220.804 72.5987 221.14C71.7827 221.476 70.8827 221.644 69.8987 221.644ZM85.5237 211.96V221.5H83.8857V220.06C83.5377 220.552 83.0757 220.936 82.4997 221.212C81.9357 221.476 81.3177 221.608 80.6457 221.608C79.3737 221.608 78.3717 221.26 77.6397 220.564C76.9077 219.856 76.5417 218.818 76.5417 217.45V211.96H78.2697V217.252C78.2697 218.176 78.4917 218.878 78.9357 219.358C79.3797 219.826 80.0157 220.06 80.8437 220.06C81.7557 220.06 82.4757 219.784 83.0037 219.232C83.5317 218.68 83.7957 217.9 83.7957 216.892V211.96H85.5237ZM90.3793 213.562C90.6793 213.01 91.1233 212.59 91.7113 212.302C92.2993 212.014 93.0133 211.87 93.8533 211.87V213.544C93.7573 213.532 93.6253 213.526 93.4573 213.526C92.5213 213.526 91.7833 213.808 91.2433 214.372C90.7153 214.924 90.4513 215.716 90.4513 216.748V221.5H88.7233V211.96H90.3793V213.562ZM99.3495 211.87C100.669 211.87 101.677 212.194 102.373 212.842C103.081 213.49 103.435 214.456 103.435 215.74V221.5H101.797V220.24C101.509 220.684 101.095 221.026 100.555 221.266C100.027 221.494 99.3975 221.608 98.6655 221.608C97.5975 221.608 96.7395 221.35 96.0915 220.834C95.4555 220.318 95.1375 219.64 95.1375 218.8C95.1375 217.96 95.4435 217.288 96.0555 216.784C96.6675 216.268 97.6395 216.01 98.9715 216.01H101.707V215.668C101.707 214.924 101.491 214.354 101.059 213.958C100.627 213.562 99.9915 213.364 99.1515 213.364C98.5875 213.364 98.0355 213.46 97.4955 213.652C96.9555 213.832 96.4995 214.078 96.1275 214.39L95.4075 213.094C95.8995 212.698 96.4875 212.398 97.1715 212.194C97.8555 211.978 98.5815 211.87 99.3495 211.87ZM98.9535 220.276C99.6135 220.276 100.183 220.132 100.663 219.844C101.143 219.544 101.491 219.124 101.707 218.584V217.252H99.0435C97.5795 217.252 96.8475 217.744 96.8475 218.728C96.8475 219.208 97.0335 219.586 97.4055 219.862C97.7775 220.138 98.2935 220.276 98.9535 220.276ZM111.907 220.942C111.655 221.158 111.343 221.326 110.971 221.446C110.599 221.554 110.215 221.608 109.819 221.608C108.859 221.608 108.115 221.35 107.587 220.834C107.059 220.318 106.795 219.58 106.795 218.62V213.382H105.175V211.96H106.795V209.872H108.523V211.96H111.259V213.382H108.523V218.548C108.523 219.064 108.649 219.46 108.901 219.736C109.165 220.012 109.537 220.15 110.017 220.15C110.545 220.15 110.995 220 111.367 219.7L111.907 220.942ZM122.212 216.784C122.212 216.916 122.2 217.09 122.176 217.306H114.436C114.544 218.146 114.91 218.824 115.534 219.34C116.17 219.844 116.956 220.096 117.892 220.096C119.032 220.096 119.95 219.712 120.646 218.944L121.6 220.06C121.168 220.564 120.628 220.948 119.98 221.212C119.344 221.476 118.63 221.608 117.838 221.608C116.83 221.608 115.936 221.404 115.156 220.996C114.376 220.576 113.77 219.994 113.338 219.25C112.918 218.506 112.708 217.666 112.708 216.73C112.708 215.806 112.912 214.972 113.32 214.228C113.74 213.484 114.31 212.908 115.03 212.5C115.762 212.08 116.584 211.87 117.496 211.87C118.408 211.87 119.218 212.08 119.926 212.5C120.646 212.908 121.204 213.484 121.6 214.228C122.008 214.972 122.212 215.824 122.212 216.784ZM117.496 213.328C116.668 213.328 115.972 213.58 115.408 214.084C114.856 214.588 114.532 215.248 114.436 216.064H120.556C120.46 215.26 120.13 214.606 119.566 214.102C119.014 213.586 118.324 213.328 117.496 213.328ZM132.74 211.87C134.06 211.87 135.068 212.194 135.764 212.842C136.472 213.49 136.826 214.456 136.826 215.74V221.5H135.188V220.24C134.9 220.684 134.486 221.026 133.946 221.266C133.418 221.494 132.788 221.608 132.056 221.608C130.988 221.608 130.13 221.35 129.482 220.834C128.846 220.318 128.528 219.64 128.528 218.8C128.528 217.96 128.834 217.288 129.446 216.784C130.058 216.268 131.03 216.01 132.362 216.01H135.098V215.668C135.098 214.924 134.882 214.354 134.45 213.958C134.018 213.562 133.382 213.364 132.542 213.364C131.978 213.364 131.426 213.46 130.886 213.652C130.346 213.832 129.89 214.078 129.518 214.39L128.798 213.094C129.29 212.698 129.878 212.398 130.562 212.194C131.246 211.978 131.972 211.87 132.74 211.87ZM132.344 220.276C133.004 220.276 133.574 220.132 134.054 219.844C134.534 219.544 134.882 219.124 135.098 218.584V217.252H132.434C130.97 217.252 130.238 217.744 130.238 218.728C130.238 219.208 130.424 219.586 130.796 219.862C131.168 220.138 131.684 220.276 132.344 220.276ZM149.735 211.87C150.659 211.87 151.487 212.074 152.219 212.482C152.951 212.89 153.521 213.46 153.929 214.192C154.349 214.924 154.559 215.77 154.559 216.73C154.559 217.69 154.349 218.542 153.929 219.286C153.521 220.018 152.951 220.588 152.219 220.996C151.487 221.404 150.659 221.608 149.735 221.608C149.051 221.608 148.421 221.476 147.845 221.212C147.281 220.948 146.801 220.564 146.405 220.06V224.992H144.677V211.96H146.333V213.472C146.717 212.944 147.203 212.548 147.791 212.284C148.379 212.008 149.027 211.87 149.735 211.87ZM149.591 220.096C150.203 220.096 150.749 219.958 151.229 219.682C151.721 219.394 152.105 218.998 152.381 218.494C152.669 217.978 152.813 217.39 152.813 216.73C152.813 216.07 152.669 215.488 152.381 214.984C152.105 214.468 151.721 214.072 151.229 213.796C150.749 213.52 150.203 213.382 149.591 213.382C148.991 213.382 148.445 213.526 147.953 213.814C147.473 214.09 147.089 214.48 146.801 214.984C146.525 215.488 146.387 216.07 146.387 216.73C146.387 217.39 146.525 217.978 146.801 218.494C147.077 218.998 147.461 219.394 147.953 219.682C148.445 219.958 148.991 220.096 149.591 220.096ZM165.479 216.784C165.479 216.916 165.467 217.09 165.443 217.306H157.703C157.811 218.146 158.177 218.824 158.801 219.34C159.437 219.844 160.223 220.096 161.159 220.096C162.299 220.096 163.217 219.712 163.913 218.944L164.867 220.06C164.435 220.564 163.895 220.948 163.247 221.212C162.611 221.476 161.897 221.608 161.105 221.608C160.097 221.608 159.203 221.404 158.423 220.996C157.643 220.576 157.037 219.994 156.605 219.25C156.185 218.506 155.975 217.666 155.975 216.73C155.975 215.806 156.179 214.972 156.587 214.228C157.007 213.484 157.577 212.908 158.297 212.5C159.029 212.08 159.851 211.87 160.763 211.87C161.675 211.87 162.485 212.08 163.193 212.5C163.913 212.908 164.471 213.484 164.867 214.228C165.275 214.972 165.479 215.824 165.479 216.784ZM160.763 213.328C159.935 213.328 159.239 213.58 158.675 214.084C158.123 214.588 157.799 215.248 157.703 216.064H163.823C163.727 215.26 163.397 214.606 162.833 214.102C162.281 213.586 161.591 213.328 160.763 213.328ZM169.444 213.562C169.744 213.01 170.188 212.59 170.776 212.302C171.364 212.014 172.078 211.87 172.918 211.87V213.544C172.822 213.532 172.69 213.526 172.522 213.526C171.586 213.526 170.848 213.808 170.308 214.372C169.78 214.924 169.516 215.716 169.516 216.748V221.5H167.788V211.96H169.444V213.562ZM177.764 221.608C176.984 221.608 176.234 221.506 175.514 221.302C174.794 221.086 174.23 220.816 173.822 220.492L174.542 219.124C174.962 219.424 175.472 219.664 176.072 219.844C176.672 220.024 177.278 220.114 177.89 220.114C179.402 220.114 180.158 219.682 180.158 218.818C180.158 218.53 180.056 218.302 179.852 218.134C179.648 217.966 179.39 217.846 179.078 217.774C178.778 217.69 178.346 217.6 177.782 217.504C177.014 217.384 176.384 217.246 175.892 217.09C175.412 216.934 174.998 216.67 174.65 216.298C174.302 215.926 174.128 215.404 174.128 214.732C174.128 213.868 174.488 213.178 175.208 212.662C175.928 212.134 176.894 211.87 178.106 211.87C178.742 211.87 179.378 211.948 180.014 212.104C180.65 212.26 181.172 212.47 181.58 212.734L180.842 214.102C180.062 213.598 179.144 213.346 178.088 213.346C177.356 213.346 176.798 213.466 176.414 213.706C176.03 213.946 175.838 214.264 175.838 214.66C175.838 214.972 175.946 215.218 176.162 215.398C176.378 215.578 176.642 215.71 176.954 215.794C177.278 215.878 177.728 215.974 178.304 216.082C179.072 216.214 179.69 216.358 180.158 216.514C180.638 216.658 181.046 216.91 181.382 217.27C181.718 217.63 181.886 218.134 181.886 218.782C181.886 219.646 181.514 220.336 180.77 220.852C180.038 221.356 179.036 221.608 177.764 221.608ZM188.042 221.608C187.094 221.608 186.242 221.398 185.486 220.978C184.73 220.558 184.136 219.982 183.704 219.25C183.284 218.506 183.074 217.666 183.074 216.73C183.074 215.794 183.284 214.96 183.704 214.228C184.136 213.484 184.73 212.908 185.486 212.5C186.242 212.08 187.094 211.87 188.042 211.87C188.99 211.87 189.836 212.08 190.58 212.5C191.336 212.908 191.924 213.484 192.344 214.228C192.776 214.96 192.992 215.794 192.992 216.73C192.992 217.666 192.776 218.506 192.344 219.25C191.924 219.982 191.336 220.558 190.58 220.978C189.836 221.398 188.99 221.608 188.042 221.608ZM188.042 220.096C188.654 220.096 189.2 219.958 189.68 219.682C190.172 219.394 190.556 218.998 190.832 218.494C191.108 217.978 191.246 217.39 191.246 216.73C191.246 216.07 191.108 215.488 190.832 214.984C190.556 214.468 190.172 214.072 189.68 213.796C189.2 213.52 188.654 213.382 188.042 213.382C187.43 213.382 186.878 213.52 186.386 213.796C185.906 214.072 185.522 214.468 185.234 214.984C184.958 215.488 184.82 216.07 184.82 216.73C184.82 217.39 184.958 217.978 185.234 218.494C185.522 218.998 185.906 219.394 186.386 219.682C186.878 219.958 187.43 220.096 188.042 220.096ZM200.386 211.87C201.598 211.87 202.558 212.224 203.266 212.932C203.986 213.628 204.346 214.654 204.346 216.01V221.5H202.618V216.208C202.618 215.284 202.396 214.588 201.952 214.12C201.508 213.652 200.872 213.418 200.044 213.418C199.108 213.418 198.37 213.694 197.83 214.246C197.29 214.786 197.02 215.566 197.02 216.586V221.5H195.292V211.96H196.948V213.4C197.296 212.908 197.764 212.53 198.352 212.266C198.952 212.002 199.63 211.87 200.386 211.87ZM210.928 211.87C212.248 211.87 213.256 212.194 213.952 212.842C214.66 213.49 215.014 214.456 215.014 215.74V221.5H213.376V220.24C213.088 220.684 212.674 221.026 212.134 221.266C211.606 221.494 210.976 221.608 210.244 221.608C209.176 221.608 208.318 221.35 207.67 220.834C207.034 220.318 206.716 219.64 206.716 218.8C206.716 217.96 207.022 217.288 207.634 216.784C208.246 216.268 209.218 216.01 210.55 216.01H213.286V215.668C213.286 214.924 213.07 214.354 212.638 213.958C212.206 213.562 211.57 213.364 210.73 213.364C210.166 213.364 209.614 213.46 209.074 213.652C208.534 213.832 208.078 214.078 207.706 214.39L206.986 213.094C207.478 212.698 208.066 212.398 208.75 212.194C209.434 211.978 210.16 211.87 210.928 211.87ZM210.532 220.276C211.192 220.276 211.762 220.132 212.242 219.844C212.722 219.544 213.07 219.124 213.286 218.584V217.252H210.622C209.158 217.252 208.426 217.744 208.426 218.728C208.426 219.208 208.612 219.586 208.984 219.862C209.356 220.138 209.872 220.276 210.532 220.276ZM218.122 208.144H219.85V221.5H218.122V208.144ZM223.059 211.96H224.787V221.5H223.059V211.96ZM223.923 210.124C223.587 210.124 223.305 210.016 223.077 209.8C222.861 209.584 222.753 209.32 222.753 209.008C222.753 208.696 222.861 208.432 223.077 208.216C223.305 207.988 223.587 207.874 223.923 207.874C224.259 207.874 224.535 207.982 224.751 208.198C224.979 208.402 225.093 208.66 225.093 208.972C225.093 209.296 224.979 209.572 224.751 209.8C224.535 210.016 224.259 210.124 223.923 210.124ZM235.07 220.078V221.5H227.078V220.384L232.712 213.382H227.186V211.96H234.926V213.094L229.292 220.078H235.07ZM245.774 216.784C245.774 216.916 245.762 217.09 245.738 217.306H237.998C238.106 218.146 238.472 218.824 239.096 219.34C239.732 219.844 240.518 220.096 241.454 220.096C242.594 220.096 243.512 219.712 244.208 218.944L245.162 220.06C244.73 220.564 244.19 220.948 243.542 221.212C242.906 221.476 242.192 221.608 241.4 221.608C240.392 221.608 239.498 221.404 238.718 220.996C237.938 220.576 237.332 219.994 236.9 219.25C236.48 218.506 236.27 217.666 236.27 216.73C236.27 215.806 236.474 214.972 236.882 214.228C237.302 213.484 237.872 212.908 238.592 212.5C239.324 212.08 240.146 211.87 241.058 211.87C241.97 211.87 242.78 212.08 243.488 212.5C244.208 212.908 244.766 213.484 245.162 214.228C245.57 214.972 245.774 215.824 245.774 216.784ZM241.058 213.328C240.23 213.328 239.534 213.58 238.97 214.084C238.418 214.588 238.094 215.248 237.998 216.064H244.118C244.022 215.26 243.692 214.606 243.128 214.102C242.576 213.586 241.886 213.328 241.058 213.328ZM257.084 208.144V221.5H255.428V219.988C255.044 220.516 254.558 220.918 253.97 221.194C253.382 221.47 252.734 221.608 252.026 221.608C251.102 221.608 250.274 221.404 249.542 220.996C248.81 220.588 248.234 220.018 247.814 219.286C247.406 218.542 247.202 217.69 247.202 216.73C247.202 215.77 247.406 214.924 247.814 214.192C248.234 213.46 248.81 212.89 249.542 212.482C250.274 212.074 251.102 211.87 252.026 211.87C252.71 211.87 253.34 212.002 253.916 212.266C254.492 212.518 254.972 212.896 255.356 213.4V208.144H257.084ZM252.17 220.096C252.77 220.096 253.316 219.958 253.808 219.682C254.3 219.394 254.684 218.998 254.96 218.494C255.236 217.978 255.374 217.39 255.374 216.73C255.374 216.07 255.236 215.488 254.96 214.984C254.684 214.468 254.3 214.072 253.808 213.796C253.316 213.52 252.77 213.382 252.17 213.382C251.558 213.382 251.006 213.52 250.514 213.796C250.034 214.072 249.65 214.468 249.362 214.984C249.086 215.488 248.948 216.07 248.948 216.73C248.948 217.39 249.086 217.978 249.362 218.494C249.65 218.998 250.034 219.394 250.514 219.682C251.006 219.958 251.558 220.096 252.17 220.096ZM75.0977 238.87C76.3097 238.87 77.2697 239.224 77.9777 239.932C78.6977 240.628 79.0577 241.654 79.0577 243.01V248.5H77.3297V243.208C77.3297 242.284 77.1077 241.588 76.6637 241.12C76.2197 240.652 75.5837 240.418 74.7557 240.418C73.8197 240.418 73.0817 240.694 72.5417 241.246C72.0017 241.786 71.7317 242.566 71.7317 243.586V248.5H70.0037V238.96H71.6597V240.4C72.0077 239.908 72.4757 239.53 73.0637 239.266C73.6637 239.002 74.3417 238.87 75.0977 238.87ZM90.8403 243.784C90.8403 243.916 90.8283 244.09 90.8043 244.306H83.0643C83.1723 245.146 83.5383 245.824 84.1623 246.34C84.7983 246.844 85.5843 247.096 86.5203 247.096C87.6603 247.096 88.5783 246.712 89.2743 245.944L90.2283 247.06C89.7963 247.564 89.2563 247.948 88.6083 248.212C87.9723 248.476 87.2583 248.608 86.4663 248.608C85.4583 248.608 84.5643 248.404 83.7843 247.996C83.0043 247.576 82.3983 246.994 81.9663 246.25C81.5463 245.506 81.3363 244.666 81.3363 243.73C81.3363 242.806 81.5403 241.972 81.9483 241.228C82.3683 240.484 82.9383 239.908 83.6583 239.5C84.3903 239.08 85.2123 238.87 86.1243 238.87C87.0363 238.87 87.8463 239.08 88.5543 239.5C89.2743 239.908 89.8323 240.484 90.2283 241.228C90.6363 241.972 90.8403 242.824 90.8403 243.784ZM86.1243 240.328C85.2963 240.328 84.6003 240.58 84.0363 241.084C83.4843 241.588 83.1603 242.248 83.0643 243.064H89.1843C89.0883 242.26 88.7583 241.606 88.1943 241.102C87.6423 240.586 86.9523 240.328 86.1243 240.328ZM98.5138 247.942C98.2618 248.158 97.9498 248.326 97.5778 248.446C97.2058 248.554 96.8218 248.608 96.4258 248.608C95.4658 248.608 94.7218 248.35 94.1938 247.834C93.6658 247.318 93.4018 246.58 93.4018 245.62V240.382H91.7818V238.96H93.4018V236.872H95.1298V238.96H97.8658V240.382H95.1298V245.548C95.1298 246.064 95.2558 246.46 95.5078 246.736C95.7718 247.012 96.1438 247.15 96.6238 247.15C97.1518 247.15 97.6018 247 97.9738 246.7L98.5138 247.942ZM114.773 238.96L111.209 248.5H109.553L106.799 241.264L104.009 248.5H102.353L98.8072 238.96H100.445L103.217 246.556L106.097 238.96H107.555L110.381 246.592L113.225 238.96H114.773ZM120.259 248.608C119.311 248.608 118.459 248.398 117.703 247.978C116.947 247.558 116.353 246.982 115.921 246.25C115.501 245.506 115.291 244.666 115.291 243.73C115.291 242.794 115.501 241.96 115.921 241.228C116.353 240.484 116.947 239.908 117.703 239.5C118.459 239.08 119.311 238.87 120.259 238.87C121.207 238.87 122.053 239.08 122.797 239.5C123.553 239.908 124.141 240.484 124.561 241.228C124.993 241.96 125.209 242.794 125.209 243.73C125.209 244.666 124.993 245.506 124.561 246.25C124.141 246.982 123.553 247.558 122.797 247.978C122.053 248.398 121.207 248.608 120.259 248.608ZM120.259 247.096C120.871 247.096 121.417 246.958 121.897 246.682C122.389 246.394 122.773 245.998 123.049 245.494C123.325 244.978 123.463 244.39 123.463 243.73C123.463 243.07 123.325 242.488 123.049 241.984C122.773 241.468 122.389 241.072 121.897 240.796C121.417 240.52 120.871 240.382 120.259 240.382C119.647 240.382 119.095 240.52 118.603 240.796C118.123 241.072 117.739 241.468 117.451 241.984C117.175 242.488 117.037 243.07 117.037 243.73C117.037 244.39 117.175 244.978 117.451 245.494C117.739 245.998 118.123 246.394 118.603 246.682C119.095 246.958 119.647 247.096 120.259 247.096ZM129.165 240.562C129.465 240.01 129.909 239.59 130.497 239.302C131.085 239.014 131.799 238.87 132.639 238.87V240.544C132.543 240.532 132.411 240.526 132.243 240.526C131.307 240.526 130.569 240.808 130.029 241.372C129.501 241.924 129.237 242.716 129.237 243.748V248.5H127.509V238.96H129.165V240.562ZM138.387 244.054L136.407 245.89V248.5H134.679V235.144H136.407V243.712L141.609 238.96H143.697L139.683 242.902L144.093 248.5H141.969L138.387 244.054ZM145.557 238.96H147.285V248.5H145.557V238.96ZM146.421 237.124C146.085 237.124 145.803 237.016 145.575 236.8C145.359 236.584 145.251 236.32 145.251 236.008C145.251 235.696 145.359 235.432 145.575 235.216C145.803 234.988 146.085 234.874 146.421 234.874C146.757 234.874 147.033 234.982 147.249 235.198C147.477 235.402 147.591 235.66 147.591 235.972C147.591 236.296 147.477 236.572 147.249 236.8C147.033 237.016 146.757 237.124 146.421 237.124ZM155.589 238.87C156.801 238.87 157.761 239.224 158.469 239.932C159.189 240.628 159.549 241.654 159.549 243.01V248.5H157.821V243.208C157.821 242.284 157.599 241.588 157.155 241.12C156.711 240.652 156.075 240.418 155.247 240.418C154.311 240.418 153.573 240.694 153.033 241.246C152.493 241.786 152.223 242.566 152.223 243.586V248.5H150.495V238.96H152.151V240.4C152.499 239.908 152.967 239.53 153.555 239.266C154.155 239.002 154.833 238.87 155.589 238.87ZM171.835 238.96V247.204C171.835 248.872 171.421 250.102 170.593 250.894C169.765 251.698 168.529 252.1 166.885 252.1C165.985 252.1 165.127 251.974 164.311 251.722C163.495 251.482 162.835 251.134 162.331 250.678L163.159 249.346C163.603 249.73 164.149 250.03 164.797 250.246C165.457 250.474 166.135 250.588 166.831 250.588C167.947 250.588 168.769 250.324 169.297 249.796C169.837 249.268 170.107 248.464 170.107 247.384V246.628C169.699 247.12 169.195 247.492 168.595 247.744C168.007 247.984 167.365 248.104 166.669 248.104C165.757 248.104 164.929 247.912 164.185 247.528C163.453 247.132 162.877 246.586 162.457 245.89C162.037 245.182 161.827 244.378 161.827 243.478C161.827 242.578 162.037 241.78 162.457 241.084C162.877 240.376 163.453 239.83 164.185 239.446C164.929 239.062 165.757 238.87 166.669 238.87C167.389 238.87 168.055 239.002 168.667 239.266C169.291 239.53 169.801 239.92 170.197 240.436V238.96H171.835ZM166.867 246.592C167.491 246.592 168.049 246.46 168.541 246.196C169.045 245.932 169.435 245.566 169.711 245.098C169.999 244.618 170.143 244.078 170.143 243.478C170.143 242.554 169.837 241.81 169.225 241.246C168.613 240.67 167.827 240.382 166.867 240.382C165.895 240.382 165.103 240.67 164.491 241.246C163.879 241.81 163.573 242.554 163.573 243.478C163.573 244.078 163.711 244.618 163.987 245.098C164.275 245.566 164.665 245.932 165.157 246.196C165.661 246.46 166.231 246.592 166.867 246.592ZM182.527 248.608C181.747 248.608 180.997 248.506 180.277 248.302C179.557 248.086 178.993 247.816 178.585 247.492L179.305 246.124C179.725 246.424 180.235 246.664 180.835 246.844C181.435 247.024 182.041 247.114 182.653 247.114C184.165 247.114 184.921 246.682 184.921 245.818C184.921 245.53 184.819 245.302 184.615 245.134C184.411 244.966 184.153 244.846 183.841 244.774C183.541 244.69 183.109 244.6 182.545 244.504C181.777 244.384 181.147 244.246 180.655 244.09C180.175 243.934 179.761 243.67 179.413 243.298C179.065 242.926 178.891 242.404 178.891 241.732C178.891 240.868 179.251 240.178 179.971 239.662C180.691 239.134 181.657 238.87 182.869 238.87C183.505 238.87 184.141 238.948 184.777 239.104C185.413 239.26 185.935 239.47 186.343 239.734L185.605 241.102C184.825 240.598 183.907 240.346 182.851 240.346C182.119 240.346 181.561 240.466 181.177 240.706C180.793 240.946 180.601 241.264 180.601 241.66C180.601 241.972 180.709 242.218 180.925 242.398C181.141 242.578 181.405 242.71 181.717 242.794C182.041 242.878 182.491 242.974 183.067 243.082C183.835 243.214 184.453 243.358 184.921 243.514C185.401 243.658 185.809 243.91 186.145 244.27C186.481 244.63 186.649 245.134 186.649 245.782C186.649 246.646 186.277 247.336 185.533 247.852C184.801 248.356 183.799 248.608 182.527 248.608ZM194.083 247.942C193.831 248.158 193.519 248.326 193.147 248.446C192.775 248.554 192.391 248.608 191.995 248.608C191.035 248.608 190.291 248.35 189.763 247.834C189.235 247.318 188.971 246.58 188.971 245.62V240.382H187.351V238.96H188.971V236.872H190.699V238.96H193.435V240.382H190.699V245.548C190.699 246.064 190.825 246.46 191.077 246.736C191.341 247.012 191.713 247.15 192.193 247.15C192.721 247.15 193.171 247 193.543 246.7L194.083 247.942ZM197.738 240.562C198.038 240.01 198.482 239.59 199.07 239.302C199.658 239.014 200.372 238.87 201.212 238.87V240.544C201.116 240.532 200.984 240.526 200.816 240.526C199.88 240.526 199.142 240.808 198.602 241.372C198.074 241.924 197.81 242.716 197.81 243.748V248.5H196.082V238.96H197.738V240.562ZM206.708 238.87C208.028 238.87 209.036 239.194 209.732 239.842C210.44 240.49 210.794 241.456 210.794 242.74V248.5H209.156V247.24C208.868 247.684 208.454 248.026 207.914 248.266C207.386 248.494 206.756 248.608 206.024 248.608C204.956 248.608 204.098 248.35 203.45 247.834C202.814 247.318 202.496 246.64 202.496 245.8C202.496 244.96 202.802 244.288 203.414 243.784C204.026 243.268 204.998 243.01 206.33 243.01H209.066V242.668C209.066 241.924 208.85 241.354 208.418 240.958C207.986 240.562 207.35 240.364 206.51 240.364C205.946 240.364 205.394 240.46 204.854 240.652C204.314 240.832 203.858 241.078 203.486 241.39L202.766 240.094C203.258 239.698 203.846 239.398 204.53 239.194C205.214 238.978 205.94 238.87 206.708 238.87ZM206.312 247.276C206.972 247.276 207.542 247.132 208.022 246.844C208.502 246.544 208.85 246.124 209.066 245.584V244.252H206.402C204.938 244.252 204.206 244.744 204.206 245.728C204.206 246.208 204.392 246.586 204.764 246.862C205.136 247.138 205.652 247.276 206.312 247.276ZM219.266 247.942C219.014 248.158 218.702 248.326 218.33 248.446C217.958 248.554 217.574 248.608 217.178 248.608C216.218 248.608 215.474 248.35 214.946 247.834C214.418 247.318 214.154 246.58 214.154 245.62V240.382H212.534V238.96H214.154V236.872H215.882V238.96H218.618V240.382H215.882V245.548C215.882 246.064 216.008 246.46 216.26 246.736C216.524 247.012 216.896 247.15 217.376 247.15C217.904 247.15 218.354 247 218.726 246.7L219.266 247.942ZM229.57 243.784C229.57 243.916 229.558 244.09 229.534 244.306H221.794C221.902 245.146 222.268 245.824 222.892 246.34C223.528 246.844 224.314 247.096 225.25 247.096C226.39 247.096 227.308 246.712 228.004 245.944L228.958 247.06C228.526 247.564 227.986 247.948 227.338 248.212C226.702 248.476 225.988 248.608 225.196 248.608C224.188 248.608 223.294 248.404 222.514 247.996C221.734 247.576 221.128 246.994 220.696 246.25C220.276 245.506 220.066 244.666 220.066 243.73C220.066 242.806 220.27 241.972 220.678 241.228C221.098 240.484 221.668 239.908 222.388 239.5C223.12 239.08 223.942 238.87 224.854 238.87C225.766 238.87 226.576 239.08 227.284 239.5C228.004 239.908 228.562 240.484 228.958 241.228C229.366 241.972 229.57 242.824 229.57 243.784ZM224.854 240.328C224.026 240.328 223.33 240.58 222.766 241.084C222.214 241.588 221.89 242.248 221.794 243.064H227.914C227.818 242.26 227.488 241.606 226.924 241.102C226.372 240.586 225.682 240.328 224.854 240.328ZM241.006 238.96V247.204C241.006 248.872 240.592 250.102 239.764 250.894C238.936 251.698 237.7 252.1 236.056 252.1C235.156 252.1 234.298 251.974 233.482 251.722C232.666 251.482 232.006 251.134 231.502 250.678L232.33 249.346C232.774 249.73 233.32 250.03 233.968 250.246C234.628 250.474 235.306 250.588 236.002 250.588C237.118 250.588 237.94 250.324 238.468 249.796C239.008 249.268 239.278 248.464 239.278 247.384V246.628C238.87 247.12 238.366 247.492 237.766 247.744C237.178 247.984 236.536 248.104 235.84 248.104C234.928 248.104 234.1 247.912 233.356 247.528C232.624 247.132 232.048 246.586 231.628 245.89C231.208 245.182 230.998 244.378 230.998 243.478C230.998 242.578 231.208 241.78 231.628 241.084C232.048 240.376 232.624 239.83 233.356 239.446C234.1 239.062 234.928 238.87 235.84 238.87C236.56 238.87 237.226 239.002 237.838 239.266C238.462 239.53 238.972 239.92 239.368 240.436V238.96H241.006ZM236.038 246.592C236.662 246.592 237.22 246.46 237.712 246.196C238.216 245.932 238.606 245.566 238.882 245.098C239.17 244.618 239.314 244.078 239.314 243.478C239.314 242.554 239.008 241.81 238.396 241.246C237.784 240.67 236.998 240.382 236.038 240.382C235.066 240.382 234.274 240.67 233.662 241.246C233.05 241.81 232.744 242.554 232.744 243.478C232.744 244.078 232.882 244.618 233.158 245.098C233.446 245.566 233.836 245.932 234.328 246.196C234.832 246.46 235.402 246.592 236.038 246.592ZM252.66 238.96L248.034 249.454C247.626 250.426 247.146 251.11 246.594 251.506C246.054 251.902 245.4 252.1 244.632 252.1C244.164 252.1 243.708 252.022 243.264 251.866C242.832 251.722 242.472 251.506 242.184 251.218L242.922 249.922C243.414 250.39 243.984 250.624 244.632 250.624C245.052 250.624 245.4 250.51 245.676 250.282C245.964 250.066 246.222 249.688 246.45 249.148L246.756 248.482L242.544 238.96H244.344L247.674 246.592L250.968 238.96H252.66Z" fill="#8692A6"/>
<defs>
<filter id="filter0_f" x="0" y="0.5" width="313" height="313" filterUnits="userSpaceOnUse" color-interpolation-filters="sRGB">
<feFlood flood-opacity="0" result="BackgroundImageFix"/>
<feBlend mode="normal" in="SourceGraphic" in2="BackgroundImageFix" result="shape"/>
<feGaussianBlur stdDeviation="5" result="effect1_foregroundBlur"/>
</filter>
<clipPath id="clip0">
<rect width="73.3718" height="102.082" fill="white" transform="translate(119.875 76.736)"/>
</clipPath>
</defs>
</svg>
