<svg width="313" height="314" viewBox="0 0 313 314" fill="none" xmlns="http://www.w3.org/2000/svg">
<g filter="url(#filter0_f)">
<circle cx="156.5" cy="157" r="146.5" fill="#F1F7FF"/>
</g>
<g clip-path="url(#clip0)">
<path d="M169.718 142.853C169.468 142.819 169.215 142.847 168.978 142.933C168.742 143.019 168.531 143.161 168.362 143.348C168.19 143.531 168.064 143.752 167.994 143.993C167.924 144.235 167.913 144.489 167.96 144.736C168.84 149.361 171.804 155.709 180.902 159.662C181.98 160.128 183.645 160.491 185.757 160.947C193.662 162.657 206.882 165.522 210.129 177.638C210.184 177.841 210.278 178.03 210.406 178.197C210.533 178.363 210.693 178.502 210.874 178.607C211.056 178.712 211.257 178.78 211.465 178.807C211.673 178.834 211.884 178.82 212.087 178.766C212.289 178.711 212.479 178.617 212.645 178.49C212.812 178.362 212.951 178.202 213.056 178.021C213.16 177.839 213.228 177.638 213.256 177.43C213.283 177.222 213.269 177.011 213.214 176.809C209.46 162.814 194.482 159.569 186.434 157.828C184.571 157.422 182.96 157.075 182.172 156.73C176.704 154.357 173.172 150.835 171.641 146.248C186.832 147.377 193.71 141.325 194.013 141.051C194.2 140.882 194.344 140.671 194.434 140.435C194.523 140.199 194.555 139.946 194.528 139.695C194.501 139.445 194.414 139.204 194.276 138.993C194.138 138.783 193.951 138.608 193.732 138.483C184.966 133.475 184.966 116.168 184.966 109.651C184.966 91.4261 172.691 76.9783 156.954 76.7518C156.804 76.7468 156.654 76.7436 156.504 76.7422H156.501C140.535 76.8315 127.545 91.2953 127.545 108.987C127.545 115.505 127.545 132.814 118.778 137.819C118.552 137.951 118.362 138.135 118.223 138.357C118.085 138.578 118.003 138.83 117.984 139.091C117.965 139.352 118.01 139.613 118.115 139.852C118.22 140.092 118.382 140.302 118.587 140.464C119.027 140.805 128.757 148.251 140.729 145.989C139.128 150.385 135.644 153.767 130.336 156.073C129.567 156.408 128.036 156.775 126.262 157.196C118.159 159.123 103.074 162.712 99.2966 176.805C99.2423 177.008 99.2285 177.219 99.2559 177.427C99.2833 177.635 99.3513 177.835 99.4562 178.017C99.668 178.384 100.017 178.651 100.426 178.761C100.835 178.87 101.271 178.813 101.637 178.601C102.004 178.389 102.272 178.041 102.381 177.632C105.664 165.369 119.024 162.195 127.002 160.294C129.003 159.818 130.582 159.442 131.609 158.998C140.707 155.046 143.667 148.698 144.551 144.072C144.603 143.801 144.584 143.521 144.495 143.26C144.406 142.998 144.251 142.765 144.044 142.582C143.839 142.398 143.589 142.27 143.319 142.212C143.049 142.154 142.769 142.167 142.506 142.25C133.871 144.968 125.892 141.23 122.405 139.156C130.735 132.183 130.735 116.133 130.735 108.987C130.735 93.0467 142.302 80.012 156.638 79.9259L156.976 79.945C171.115 80.146 181.776 92.9159 181.776 109.651C181.776 116.8 181.776 132.884 190.14 139.858C187.26 141.504 180.691 144.168 169.718 142.853Z" fill="#8692A6"/>
</g>
<path d="M101.081 208.9H102.881V221.5H101.081V208.9ZM115.312 208.144V221.5H113.656V219.988C113.272 220.516 112.786 220.918 112.198 221.194C111.61 221.47 110.962 221.608 110.254 221.608C109.33 221.608 108.502 221.404 107.77 220.996C107.038 220.588 106.462 220.018 106.042 219.286C105.634 218.542 105.43 217.69 105.43 216.73C105.43 215.77 105.634 214.924 106.042 214.192C106.462 213.46 107.038 212.89 107.77 212.482C108.502 212.074 109.33 211.87 110.254 211.87C110.938 211.87 111.568 212.002 112.144 212.266C112.72 212.518 113.2 212.896 113.584 213.4V208.144H115.312ZM110.398 220.096C110.998 220.096 111.544 219.958 112.036 219.682C112.528 219.394 112.912 218.998 113.188 218.494C113.464 217.978 113.602 217.39 113.602 216.73C113.602 216.07 113.464 215.488 113.188 214.984C112.912 214.468 112.528 214.072 112.036 213.796C111.544 213.52 110.998 213.382 110.398 213.382C109.786 213.382 109.234 213.52 108.742 213.796C108.262 214.072 107.878 214.468 107.59 214.984C107.314 215.488 107.176 216.07 107.176 216.73C107.176 217.39 107.314 217.978 107.59 218.494C107.878 218.998 108.262 219.394 108.742 219.682C109.234 219.958 109.786 220.096 110.398 220.096ZM127.113 216.784C127.113 216.916 127.101 217.09 127.077 217.306H119.337C119.445 218.146 119.811 218.824 120.435 219.34C121.071 219.844 121.857 220.096 122.793 220.096C123.933 220.096 124.851 219.712 125.547 218.944L126.501 220.06C126.069 220.564 125.529 220.948 124.881 221.212C124.245 221.476 123.531 221.608 122.739 221.608C121.731 221.608 120.837 221.404 120.057 220.996C119.277 220.576 118.671 219.994 118.239 219.25C117.819 218.506 117.609 217.666 117.609 216.73C117.609 215.806 117.813 214.972 118.221 214.228C118.641 213.484 119.211 212.908 119.931 212.5C120.663 212.08 121.485 211.87 122.397 211.87C123.309 211.87 124.119 212.08 124.827 212.5C125.547 212.908 126.105 213.484 126.501 214.228C126.909 214.972 127.113 215.824 127.113 216.784ZM122.397 213.328C121.569 213.328 120.873 213.58 120.309 214.084C119.757 214.588 119.433 215.248 119.337 216.064H125.457C125.361 215.26 125.031 214.606 124.467 214.102C123.915 213.586 123.225 213.328 122.397 213.328ZM134.517 211.87C135.729 211.87 136.689 212.224 137.397 212.932C138.117 213.628 138.477 214.654 138.477 216.01V221.5H136.749V216.208C136.749 215.284 136.527 214.588 136.083 214.12C135.639 213.652 135.003 213.418 134.175 213.418C133.239 213.418 132.501 213.694 131.961 214.246C131.421 214.786 131.151 215.566 131.151 216.586V221.5H129.423V211.96H131.079V213.4C131.427 212.908 131.895 212.53 132.483 212.266C133.083 212.002 133.761 211.87 134.517 211.87ZM146.949 220.942C146.697 221.158 146.385 221.326 146.013 221.446C145.641 221.554 145.257 221.608 144.861 221.608C143.901 221.608 143.157 221.35 142.629 220.834C142.101 220.318 141.837 219.58 141.837 218.62V213.382H140.217V211.96H141.837V209.872H143.565V211.96H146.301V213.382H143.565V218.548C143.565 219.064 143.691 219.46 143.943 219.736C144.207 220.012 144.579 220.15 145.059 220.15C145.587 220.15 146.037 220 146.409 219.7L146.949 220.942ZM148.948 211.96H150.676V221.5H148.948V211.96ZM149.812 210.124C149.476 210.124 149.194 210.016 148.966 209.8C148.75 209.584 148.642 209.32 148.642 209.008C148.642 208.696 148.75 208.432 148.966 208.216C149.194 207.988 149.476 207.874 149.812 207.874C150.148 207.874 150.424 207.982 150.64 208.198C150.868 208.402 150.982 208.66 150.982 208.972C150.982 209.296 150.868 209.572 150.64 209.8C150.424 210.016 150.148 210.124 149.812 210.124ZM157.377 209.458C156.345 209.458 155.829 210.016 155.829 211.132V211.96H158.601V213.382H155.865V221.5H154.137V213.382H152.517V211.96H154.137V211.114C154.137 210.166 154.413 209.416 154.965 208.864C155.517 208.312 156.291 208.036 157.287 208.036C157.671 208.036 158.031 208.084 158.367 208.18C158.703 208.276 158.991 208.414 159.231 208.594L158.709 209.908C158.313 209.608 157.869 209.458 157.377 209.458ZM168.759 211.96L164.133 222.454C163.725 223.426 163.245 224.11 162.693 224.506C162.153 224.902 161.499 225.1 160.731 225.1C160.263 225.1 159.807 225.022 159.363 224.866C158.931 224.722 158.571 224.506 158.283 224.218L159.021 222.922C159.513 223.39 160.083 223.624 160.731 223.624C161.151 223.624 161.499 223.51 161.775 223.282C162.063 223.066 162.321 222.688 162.549 222.148L162.855 221.482L158.643 211.96H160.443L163.773 219.592L167.067 211.96H168.759ZM183.467 211.96L178.841 222.454C178.433 223.426 177.953 224.11 177.401 224.506C176.861 224.902 176.207 225.1 175.439 225.1C174.971 225.1 174.515 225.022 174.071 224.866C173.639 224.722 173.279 224.506 172.991 224.218L173.729 222.922C174.221 223.39 174.791 223.624 175.439 223.624C175.859 223.624 176.207 223.51 176.483 223.282C176.771 223.066 177.029 222.688 177.257 222.148L177.563 221.482L173.351 211.96H175.151L178.481 219.592L181.775 211.96H183.467ZM188.812 221.608C187.864 221.608 187.012 221.398 186.256 220.978C185.5 220.558 184.906 219.982 184.474 219.25C184.054 218.506 183.844 217.666 183.844 216.73C183.844 215.794 184.054 214.96 184.474 214.228C184.906 213.484 185.5 212.908 186.256 212.5C187.012 212.08 187.864 211.87 188.812 211.87C189.76 211.87 190.606 212.08 191.35 212.5C192.106 212.908 192.694 213.484 193.114 214.228C193.546 214.96 193.762 215.794 193.762 216.73C193.762 217.666 193.546 218.506 193.114 219.25C192.694 219.982 192.106 220.558 191.35 220.978C190.606 221.398 189.76 221.608 188.812 221.608ZM188.812 220.096C189.424 220.096 189.97 219.958 190.45 219.682C190.942 219.394 191.326 218.998 191.602 218.494C191.878 217.978 192.016 217.39 192.016 216.73C192.016 216.07 191.878 215.488 191.602 214.984C191.326 214.468 190.942 214.072 190.45 213.796C189.97 213.52 189.424 213.382 188.812 213.382C188.2 213.382 187.648 213.52 187.156 213.796C186.676 214.072 186.292 214.468 186.004 214.984C185.728 215.488 185.59 216.07 185.59 216.73C185.59 217.39 185.728 217.978 186.004 218.494C186.292 218.998 186.676 219.394 187.156 219.682C187.648 219.958 188.2 220.096 188.812 220.096ZM204.954 211.96V221.5H203.316V220.06C202.968 220.552 202.506 220.936 201.93 221.212C201.366 221.476 200.748 221.608 200.076 221.608C198.804 221.608 197.802 221.26 197.07 220.564C196.338 219.856 195.972 218.818 195.972 217.45V211.96H197.7V217.252C197.7 218.176 197.922 218.878 198.366 219.358C198.81 219.826 199.446 220.06 200.274 220.06C201.186 220.06 201.906 219.784 202.434 219.232C202.962 218.68 203.226 217.9 203.226 216.892V211.96H204.954ZM209.81 213.562C210.11 213.01 210.554 212.59 211.142 212.302C211.73 212.014 212.444 211.87 213.284 211.87V213.544C213.188 213.532 213.056 213.526 212.888 213.526C211.952 213.526 211.214 213.808 210.674 214.372C210.146 214.924 209.882 215.716 209.882 216.748V221.5H208.154V211.96H209.81V213.562ZM80.7009 238.87C81.9129 238.87 82.8729 239.224 83.5809 239.932C84.3009 240.628 84.6609 241.654 84.6609 243.01V248.5H82.9329V243.208C82.9329 242.284 82.7109 241.588 82.2669 241.12C81.8229 240.652 81.1869 240.418 80.3589 240.418C79.4229 240.418 78.6849 240.694 78.1449 241.246C77.6049 241.786 77.3349 242.566 77.3349 243.586V248.5H75.6069V238.96H77.2629V240.4C77.6109 239.908 78.0789 239.53 78.6669 239.266C79.2669 239.002 79.9449 238.87 80.7009 238.87ZM96.4436 243.784C96.4436 243.916 96.4316 244.09 96.4076 244.306H88.6676C88.7756 245.146 89.1416 245.824 89.7656 246.34C90.4016 246.844 91.1876 247.096 92.1236 247.096C93.2636 247.096 94.1816 246.712 94.8776 245.944L95.8316 247.06C95.3996 247.564 94.8596 247.948 94.2116 248.212C93.5756 248.476 92.8616 248.608 92.0696 248.608C91.0616 248.608 90.1676 248.404 89.3876 247.996C88.6076 247.576 88.0016 246.994 87.5696 246.25C87.1496 245.506 86.9396 244.666 86.9396 243.73C86.9396 242.806 87.1436 241.972 87.5516 241.228C87.9716 240.484 88.5416 239.908 89.2616 239.5C89.9936 239.08 90.8156 238.87 91.7276 238.87C92.6396 238.87 93.4496 239.08 94.1576 239.5C94.8776 239.908 95.4356 240.484 95.8316 241.228C96.2396 241.972 96.4436 242.824 96.4436 243.784ZM91.7276 240.328C90.8996 240.328 90.2036 240.58 89.6396 241.084C89.0876 241.588 88.7636 242.248 88.6676 243.064H94.7876C94.6916 242.26 94.3616 241.606 93.7976 241.102C93.2456 240.586 92.5556 240.328 91.7276 240.328ZM104.117 247.942C103.865 248.158 103.553 248.326 103.181 248.446C102.809 248.554 102.425 248.608 102.029 248.608C101.069 248.608 100.325 248.35 99.7971 247.834C99.2691 247.318 99.0051 246.58 99.0051 245.62V240.382H97.3851V238.96H99.0051V236.872H100.733V238.96H103.469V240.382H100.733V245.548C100.733 246.064 100.859 246.46 101.111 246.736C101.375 247.012 101.747 247.15 102.227 247.15C102.755 247.15 103.205 247 103.577 246.7L104.117 247.942ZM120.376 238.96L116.812 248.5H115.156L112.402 241.264L109.612 248.5H107.956L104.41 238.96H106.048L108.82 246.556L111.7 238.96H113.158L115.984 246.592L118.828 238.96H120.376ZM125.862 248.608C124.914 248.608 124.062 248.398 123.306 247.978C122.55 247.558 121.956 246.982 121.524 246.25C121.104 245.506 120.894 244.666 120.894 243.73C120.894 242.794 121.104 241.96 121.524 241.228C121.956 240.484 122.55 239.908 123.306 239.5C124.062 239.08 124.914 238.87 125.862 238.87C126.81 238.87 127.656 239.08 128.4 239.5C129.156 239.908 129.744 240.484 130.164 241.228C130.596 241.96 130.812 242.794 130.812 243.73C130.812 244.666 130.596 245.506 130.164 246.25C129.744 246.982 129.156 247.558 128.4 247.978C127.656 248.398 126.81 248.608 125.862 248.608ZM125.862 247.096C126.474 247.096 127.02 246.958 127.5 246.682C127.992 246.394 128.376 245.998 128.652 245.494C128.928 244.978 129.066 244.39 129.066 243.73C129.066 243.07 128.928 242.488 128.652 241.984C128.376 241.468 127.992 241.072 127.5 240.796C127.02 240.52 126.474 240.382 125.862 240.382C125.25 240.382 124.698 240.52 124.206 240.796C123.726 241.072 123.342 241.468 123.054 241.984C122.778 242.488 122.64 243.07 122.64 243.73C122.64 244.39 122.778 244.978 123.054 245.494C123.342 245.998 123.726 246.394 124.206 246.682C124.698 246.958 125.25 247.096 125.862 247.096ZM134.768 240.562C135.068 240.01 135.512 239.59 136.1 239.302C136.688 239.014 137.402 238.87 138.242 238.87V240.544C138.146 240.532 138.014 240.526 137.846 240.526C136.91 240.526 136.172 240.808 135.632 241.372C135.104 241.924 134.84 242.716 134.84 243.748V248.5H133.112V238.96H134.768V240.562ZM143.99 244.054L142.01 245.89V248.5H140.282V235.144H142.01V243.712L147.212 238.96H149.3L145.286 242.902L149.696 248.5H147.572L143.99 244.054ZM151.161 238.96H152.889V248.5H151.161V238.96ZM152.025 237.124C151.689 237.124 151.407 237.016 151.179 236.8C150.963 236.584 150.855 236.32 150.855 236.008C150.855 235.696 150.963 235.432 151.179 235.216C151.407 234.988 151.689 234.874 152.025 234.874C152.361 234.874 152.637 234.982 152.853 235.198C153.081 235.402 153.195 235.66 153.195 235.972C153.195 236.296 153.081 236.572 152.853 236.8C152.637 237.016 152.361 237.124 152.025 237.124ZM161.192 238.87C162.404 238.87 163.364 239.224 164.072 239.932C164.792 240.628 165.152 241.654 165.152 243.01V248.5H163.424V243.208C163.424 242.284 163.202 241.588 162.758 241.12C162.314 240.652 161.678 240.418 160.85 240.418C159.914 240.418 159.176 240.694 158.636 241.246C158.096 241.786 157.826 242.566 157.826 243.586V248.5H156.098V238.96H157.754V240.4C158.102 239.908 158.57 239.53 159.158 239.266C159.758 239.002 160.436 238.87 161.192 238.87ZM177.439 238.96V247.204C177.439 248.872 177.025 250.102 176.197 250.894C175.369 251.698 174.133 252.1 172.489 252.1C171.589 252.1 170.731 251.974 169.915 251.722C169.099 251.482 168.439 251.134 167.935 250.678L168.763 249.346C169.207 249.73 169.753 250.03 170.401 250.246C171.061 250.474 171.739 250.588 172.435 250.588C173.551 250.588 174.373 250.324 174.901 249.796C175.441 249.268 175.711 248.464 175.711 247.384V246.628C175.303 247.12 174.799 247.492 174.199 247.744C173.611 247.984 172.969 248.104 172.273 248.104C171.361 248.104 170.533 247.912 169.789 247.528C169.057 247.132 168.481 246.586 168.061 245.89C167.641 245.182 167.431 244.378 167.431 243.478C167.431 242.578 167.641 241.78 168.061 241.084C168.481 240.376 169.057 239.83 169.789 239.446C170.533 239.062 171.361 238.87 172.273 238.87C172.993 238.87 173.659 239.002 174.271 239.266C174.895 239.53 175.405 239.92 175.801 240.436V238.96H177.439ZM172.471 246.592C173.095 246.592 173.653 246.46 174.145 246.196C174.649 245.932 175.039 245.566 175.315 245.098C175.603 244.618 175.747 244.078 175.747 243.478C175.747 242.554 175.441 241.81 174.829 241.246C174.217 240.67 173.431 240.382 172.471 240.382C171.499 240.382 170.707 240.67 170.095 241.246C169.483 241.81 169.177 242.554 169.177 243.478C169.177 244.078 169.315 244.618 169.591 245.098C169.879 245.566 170.269 245.932 170.761 246.196C171.265 246.46 171.835 246.592 172.471 246.592ZM190.488 238.87C191.7 238.87 192.66 239.224 193.368 239.932C194.088 240.628 194.448 241.654 194.448 243.01V248.5H192.72V243.208C192.72 242.284 192.498 241.588 192.054 241.12C191.61 240.652 190.974 240.418 190.146 240.418C189.21 240.418 188.472 240.694 187.932 241.246C187.392 241.786 187.122 242.566 187.122 243.586V248.5H185.394V238.96H187.05V240.4C187.398 239.908 187.866 239.53 188.454 239.266C189.054 239.002 189.732 238.87 190.488 238.87ZM206.231 243.784C206.231 243.916 206.219 244.09 206.195 244.306H198.455C198.563 245.146 198.929 245.824 199.553 246.34C200.189 246.844 200.975 247.096 201.911 247.096C203.051 247.096 203.969 246.712 204.665 245.944L205.619 247.06C205.187 247.564 204.647 247.948 203.999 248.212C203.363 248.476 202.649 248.608 201.857 248.608C200.849 248.608 199.955 248.404 199.175 247.996C198.395 247.576 197.789 246.994 197.357 246.25C196.937 245.506 196.727 244.666 196.727 243.73C196.727 242.806 196.931 241.972 197.339 241.228C197.759 240.484 198.329 239.908 199.049 239.5C199.781 239.08 200.603 238.87 201.515 238.87C202.427 238.87 203.237 239.08 203.945 239.5C204.665 239.908 205.223 240.484 205.619 241.228C206.027 241.972 206.231 242.824 206.231 243.784ZM201.515 240.328C200.687 240.328 199.991 240.58 199.427 241.084C198.875 241.588 198.551 242.248 198.455 243.064H204.575C204.479 242.26 204.149 241.606 203.585 241.102C203.033 240.586 202.343 240.328 201.515 240.328ZM217.162 243.784C217.162 243.916 217.15 244.09 217.126 244.306H209.386C209.494 245.146 209.86 245.824 210.484 246.34C211.12 246.844 211.906 247.096 212.842 247.096C213.982 247.096 214.9 246.712 215.596 245.944L216.55 247.06C216.118 247.564 215.578 247.948 214.93 248.212C214.294 248.476 213.58 248.608 212.788 248.608C211.78 248.608 210.886 248.404 210.106 247.996C209.326 247.576 208.72 246.994 208.288 246.25C207.868 245.506 207.658 244.666 207.658 243.73C207.658 242.806 207.862 241.972 208.27 241.228C208.69 240.484 209.26 239.908 209.98 239.5C210.712 239.08 211.534 238.87 212.446 238.87C213.358 238.87 214.168 239.08 214.876 239.5C215.596 239.908 216.154 240.484 216.55 241.228C216.958 241.972 217.162 242.824 217.162 243.784ZM212.446 240.328C211.618 240.328 210.922 240.58 210.358 241.084C209.806 241.588 209.482 242.248 209.386 243.064H215.506C215.41 242.26 215.08 241.606 214.516 241.102C213.964 240.586 213.274 240.328 212.446 240.328ZM228.472 235.144V248.5H226.816V246.988C226.432 247.516 225.946 247.918 225.358 248.194C224.77 248.47 224.122 248.608 223.414 248.608C222.49 248.608 221.662 248.404 220.93 247.996C220.198 247.588 219.622 247.018 219.202 246.286C218.794 245.542 218.59 244.69 218.59 243.73C218.59 242.77 218.794 241.924 219.202 241.192C219.622 240.46 220.198 239.89 220.93 239.482C221.662 239.074 222.49 238.87 223.414 238.87C224.098 238.87 224.728 239.002 225.304 239.266C225.88 239.518 226.36 239.896 226.744 240.4V235.144H228.472ZM223.558 247.096C224.158 247.096 224.704 246.958 225.196 246.682C225.688 246.394 226.072 245.998 226.348 245.494C226.624 244.978 226.762 244.39 226.762 243.73C226.762 243.07 226.624 242.488 226.348 241.984C226.072 241.468 225.688 241.072 225.196 240.796C224.704 240.52 224.158 240.382 223.558 240.382C222.946 240.382 222.394 240.52 221.902 240.796C221.422 241.072 221.038 241.468 220.75 241.984C220.474 242.488 220.336 243.07 220.336 243.73C220.336 244.39 220.474 244.978 220.75 245.494C221.038 245.998 221.422 246.394 221.902 246.682C222.394 246.958 222.946 247.096 223.558 247.096ZM234.387 248.608C233.607 248.608 232.857 248.506 232.137 248.302C231.417 248.086 230.853 247.816 230.445 247.492L231.165 246.124C231.585 246.424 232.095 246.664 232.695 246.844C233.295 247.024 233.901 247.114 234.513 247.114C236.025 247.114 236.781 246.682 236.781 245.818C236.781 245.53 236.679 245.302 236.475 245.134C236.271 244.966 236.013 244.846 235.701 244.774C235.401 244.69 234.969 244.6 234.405 244.504C233.637 244.384 233.007 244.246 232.515 244.09C232.035 243.934 231.621 243.67 231.273 243.298C230.925 242.926 230.751 242.404 230.751 241.732C230.751 240.868 231.111 240.178 231.831 239.662C232.551 239.134 233.517 238.87 234.729 238.87C235.365 238.87 236.001 238.948 236.637 239.104C237.273 239.26 237.795 239.47 238.203 239.734L237.465 241.102C236.685 240.598 235.767 240.346 234.711 240.346C233.979 240.346 233.421 240.466 233.037 240.706C232.653 240.946 232.461 241.264 232.461 241.66C232.461 241.972 232.569 242.218 232.785 242.398C233.001 242.578 233.265 242.71 233.577 242.794C233.901 242.878 234.351 242.974 234.927 243.082C235.695 243.214 236.313 243.358 236.781 243.514C237.261 243.658 237.669 243.91 238.005 244.27C238.341 244.63 238.509 245.134 238.509 245.782C238.509 246.646 238.137 247.336 237.393 247.852C236.661 248.356 235.659 248.608 234.387 248.608Z" fill="#8692A6"/>
<defs>
<filter id="filter0_f" x="0" y="0.5" width="313" height="313" filterUnits="userSpaceOnUse" color-interpolation-filters="sRGB">
<feFlood flood-opacity="0" result="BackgroundImageFix"/>
<feBlend mode="normal" in="SourceGraphic" in2="BackgroundImageFix" result="shape"/>
<feGaussianBlur stdDeviation="5" result="effect1_foregroundBlur"/>
</filter>
<clipPath id="clip0">
<rect width="114.843" height="102.082" fill="white" transform="translate(98.834 76.736)"/>
</clipPath>
</defs>
</svg>
