<svg width="75" height="103" viewBox="0 0 75 103" fill="none" xmlns="http://www.w3.org/2000/svg">
<g clip-path="url(#clip0)">
<path d="M71.0568 101.223C71.0568 100.8 70.8888 100.395 70.5896 100.096C70.2905 99.7965 69.8848 99.6284 69.4618 99.6284H12.0404C11.6173 99.6284 11.2116 99.7965 10.9125 100.096C10.6134 100.395 10.4453 100.8 10.4453 101.223C10.4453 101.646 10.6134 102.052 10.9125 102.351C11.2116 102.65 11.6173 102.819 12.0404 102.819H69.4618C69.8848 102.819 70.2905 102.65 70.5896 102.351C70.8888 102.052 71.0568 101.646 71.0568 101.223Z" fill="#8692A6"/>
<path d="M4.93962 30.5765C3.60616 31.4633 1.58365 34.1621 3.50089 37.9966C5.09274 41.1771 8.41361 45.069 11.945 46.0962C12.7938 46.3622 13.6896 46.444 14.5725 46.3362C15.4555 46.2284 16.3053 45.9334 17.0651 45.471C20.571 43.3719 24.7117 40.5327 26.4663 39.3141C28.6802 40.4338 31.4747 40.6667 34.3139 39.9362L34.3521 39.9234C34.1863 45.1902 32.403 48.4792 23.6845 56.5756C15.9135 63.7884 11.3038 73.263 11.3485 81.924C11.3804 87.6056 13.4507 92.4832 17.3458 96.021C17.6393 96.2898 18.0229 96.4389 18.4209 96.4389H63.082C63.505 96.4389 63.9107 96.2709 64.2099 95.9717C64.509 95.6726 64.677 95.2669 64.677 94.8439C64.677 94.4208 64.509 94.0151 64.2099 93.716C63.9107 93.4169 63.505 93.2488 63.082 93.2488H19.0557C16.124 90.3618 14.5673 86.454 14.5418 81.9081C14.5003 74.2455 18.8388 65.4313 25.857 58.914C35.156 50.2816 37.5614 46.1919 37.5614 39.0174C37.5614 38.8866 37.5167 38.7718 37.488 38.6506C39.233 37.7095 40.7419 36.4654 41.7723 34.9596C43.0642 33.0775 45.846 28.2445 43.782 23.9666C43.6907 23.7781 43.5631 23.6094 43.4066 23.4702C43.2501 23.331 43.0677 23.224 42.8698 23.1552C42.6719 23.0865 42.4625 23.0574 42.2533 23.0697C42.0442 23.0819 41.8396 23.1352 41.651 23.2265C41.4625 23.3178 41.2938 23.4454 41.1546 23.6019C41.0154 23.7584 40.9084 23.9408 40.8397 24.1387C40.7709 24.3366 40.7419 24.5461 40.7541 24.7552C40.7663 24.9643 40.8196 25.169 40.9109 25.3575C41.8393 27.2811 41.1789 30.1968 39.1436 33.1572C37.9697 34.8671 35.8706 36.2484 33.5259 36.8482C31.1429 37.4575 28.878 37.1895 27.2989 36.1081C27.0303 35.924 26.7117 35.8266 26.3861 35.8289C26.0605 35.8311 25.7434 35.933 25.4773 36.1208C25.4199 36.1591 19.8086 40.1116 15.4318 42.7371C15.0481 42.9732 14.6174 43.1224 14.1699 43.1742C13.7223 43.226 13.2689 43.1791 12.8414 43.0369C10.3723 42.316 7.65756 39.1706 6.3592 36.5738C5.30967 34.4748 6.38472 33.4731 6.8728 33.1158C17.869 23.6189 23.3878 13.752 23.6143 13.3341C23.7193 13.141 23.7836 12.9284 23.8034 12.7095C23.8231 12.4906 23.7979 12.27 23.7292 12.0612C23.0392 9.93184 22.4641 7.76691 22.0065 5.57579C25.3434 7.58554 31.0823 10.3928 37.0573 10.3928C45.3643 10.3928 64.677 13.4936 64.677 42.2171C64.677 42.3734 64.6483 57.9889 58.3926 75.1611C58.3185 75.3586 58.2843 75.5688 58.292 75.7796C58.2997 75.9904 58.3491 76.1975 58.4374 76.3891C58.5257 76.5806 58.6512 76.7528 58.8064 76.8955C58.9617 77.0383 59.1438 77.1488 59.342 77.2208C59.5403 77.2927 59.7509 77.3246 59.9616 77.3146C60.1723 77.3046 60.3789 77.2529 60.5695 77.1625C60.7601 77.0721 60.9308 76.9448 61.0719 76.788C61.2129 76.6312 61.3215 76.4479 61.3913 76.2489C67.8384 58.5503 67.8703 42.8615 67.8671 42.2075C67.8671 9.7229 44.2829 7.19954 37.0573 7.19954C29.0534 7.19954 21.0687 1.12881 20.9921 1.06501C20.7541 0.88562 20.4711 0.775489 20.1744 0.746779C19.8778 0.718069 19.5789 0.771896 19.3109 0.902318C19.044 1.03382 18.8193 1.23735 18.662 1.4899C18.5047 1.74245 18.4212 2.03395 18.4209 2.33147C18.4209 5.46095 19.9043 10.5236 20.4817 12.3707C19.1482 14.5973 13.891 22.8373 4.93962 30.5765Z" fill="#8692A6"/>
<path d="M56.6545 5.64856C51.5471 2.20647 45.8369 0.73584 37.5618 0.73584C37.1388 0.73584 36.7331 0.903888 36.434 1.20302C36.1348 1.50214 35.9668 1.90785 35.9668 2.33088C35.9668 2.75391 36.1348 3.15961 36.434 3.45874C36.7331 3.75787 37.1388 3.92592 37.5618 3.92592C45.1542 3.92592 50.3317 5.23066 54.8744 8.29313C62.2562 13.276 71.0577 23.2036 71.0577 42.2068C71.0577 46.8357 71.0577 53.1743 67.9154 65.7464C67.824 66.1529 67.8952 66.579 68.1138 66.9337C68.3325 67.2883 68.6812 67.5433 69.0855 67.6442C69.4897 67.7451 69.9174 67.6837 70.277 67.4734C70.6366 67.263 70.8996 66.9202 71.0098 66.5184C74.2478 53.5699 74.2478 47.0015 74.2478 42.2068C74.2478 21.8031 64.6807 11.0621 56.6545 5.64856V5.64856Z" fill="#8692A6"/>
</g>
<defs>
<clipPath id="clip0">
<rect width="73.3718" height="102.082" fill="white" transform="translate(0.875 0.73584)"/>
</clipPath>
</defs>
</svg>
