<svg width="313" height="314" viewBox="0 0 313 314" fill="none" xmlns="http://www.w3.org/2000/svg">
<g filter="url(#filter0_f)">
<circle cx="156.5" cy="157" r="146.5" fill="#F1F7FF"/>
</g>
<path d="M146.673 140.264H123.876C121.37 140.264 119.333 138.223 119.333 135.714V124.498C119.333 121.992 121.372 119.953 123.876 119.953H146.673C149.179 119.953 151.216 121.992 151.216 124.498V135.714C151.216 138.223 149.177 140.264 146.673 140.264ZM123.876 122.226C123.274 122.227 122.697 122.467 122.271 122.893C121.846 123.318 121.607 123.896 121.607 124.498V135.714C121.607 136.97 122.625 137.99 123.876 137.99H146.673C147.924 137.99 148.942 136.97 148.942 135.714V124.498C148.942 123.896 148.703 123.318 148.278 122.893C147.852 122.467 147.275 122.227 146.673 122.226H123.876Z" fill="#8692A6"/>
<path d="M146.673 162.174H123.876C121.37 162.174 119.333 160.135 119.333 157.626V146.415C119.333 143.909 121.372 141.872 123.876 141.872H146.673C149.179 141.872 151.216 143.909 151.216 146.415V157.626C151.216 160.135 149.177 162.174 146.673 162.174ZM123.876 144.146C123.274 144.147 122.697 144.386 122.272 144.811C121.847 145.237 121.608 145.813 121.607 146.415V157.626C121.607 158.879 122.625 159.9 123.876 159.9H146.673C147.924 159.9 148.942 158.879 148.942 157.626V146.415C148.941 145.813 148.702 145.237 148.277 144.811C147.851 144.386 147.275 144.147 146.673 144.146H123.876Z" fill="#8692A6"/>
<path d="M189.897 140.264H167.115C164.601 140.264 162.557 138.223 162.557 135.714V124.498C162.557 121.992 164.601 119.953 167.115 119.953H189.897C192.406 119.953 194.445 121.992 194.445 124.498V135.714C194.445 138.223 192.406 140.264 189.897 140.264ZM167.115 122.226C166.512 122.226 165.932 122.464 165.505 122.89C165.077 123.316 164.836 123.894 164.834 124.498V135.714C164.834 136.97 165.857 137.99 167.115 137.99H189.897C191.15 137.99 192.171 136.97 192.171 135.714V124.498C192.171 123.245 191.15 122.226 189.897 122.226H167.115Z" fill="#8692A6"/>
<path d="M189.897 162.174H167.115C165.908 162.174 164.75 161.695 163.896 160.842C163.041 159.99 162.56 158.833 162.557 157.626V146.415C162.557 143.909 164.601 141.872 167.115 141.872H189.897C192.406 141.872 194.445 143.909 194.445 146.415V157.626C194.445 160.135 192.406 162.174 189.897 162.174ZM167.115 144.146C166.512 144.145 165.933 144.384 165.506 144.809C165.078 145.234 164.836 145.812 164.834 146.415V157.626C164.834 158.879 165.857 159.9 167.115 159.9H189.897C191.15 159.9 192.171 158.879 192.171 157.626V146.415C192.171 145.164 191.15 144.146 189.897 144.146H167.115Z" fill="#8692A6"/>
<path d="M198.633 171.703H115.145C114.473 171.702 113.829 171.435 113.355 170.96C112.88 170.485 112.613 169.841 112.613 169.169V93.7989C112.613 92.4054 113.749 91.2698 115.145 91.2698H131.029C131.331 91.2698 131.62 91.3897 131.834 91.6032C132.047 91.8166 132.167 92.1061 132.167 92.408C132.167 92.7099 132.047 92.9994 131.834 93.2128C131.62 93.4263 131.331 93.5462 131.029 93.5462H115.145C115.078 93.5462 115.013 93.5727 114.965 93.6201C114.918 93.6674 114.89 93.7316 114.89 93.7989V169.171C114.889 169.205 114.896 169.239 114.908 169.27C114.921 169.301 114.94 169.33 114.964 169.354C114.987 169.378 115.016 169.397 115.047 169.41C115.078 169.423 115.111 169.429 115.145 169.429H198.633C198.667 169.43 198.7 169.423 198.731 169.41C198.762 169.397 198.791 169.378 198.814 169.354C198.838 169.33 198.856 169.302 198.869 169.27C198.881 169.239 198.887 169.205 198.886 169.171V93.7989C198.886 93.7657 198.879 93.7328 198.866 93.7022C198.854 93.6715 198.835 93.6437 198.812 93.6202C198.788 93.5968 198.76 93.5781 198.73 93.5654C198.699 93.5527 198.666 93.5462 198.633 93.5462H183.561C183.259 93.5462 182.969 93.4263 182.756 93.2128C182.542 92.9994 182.422 92.7099 182.422 92.408C182.422 92.1061 182.542 91.8166 182.756 91.6032C182.969 91.3897 183.259 91.2698 183.561 91.2698H198.633C200.026 91.2698 201.162 92.4054 201.162 93.7989V169.171C201.162 169.842 200.896 170.486 200.422 170.961C199.947 171.435 199.304 171.702 198.633 171.703Z" fill="#8692A6"/>
<path d="M172.314 93.5462H141.934C141.632 93.5462 141.343 93.4263 141.129 93.2128C140.916 92.9994 140.796 92.7099 140.796 92.408C140.796 92.1061 140.916 91.8166 141.129 91.6032C141.343 91.3897 141.632 91.2698 141.934 91.2698H172.314C172.616 91.2698 172.905 91.3897 173.119 91.6032C173.332 91.8166 173.452 92.1061 173.452 92.408C173.452 92.7099 173.332 92.9994 173.119 93.2128C172.905 93.4263 172.616 93.5462 172.314 93.5462Z" fill="#8692A6"/>
<path d="M136.769 101.435C136.467 101.435 136.178 101.315 135.964 101.101C135.751 100.888 135.631 100.598 135.631 100.297V84.9867C135.631 84.6849 135.751 84.3953 135.964 84.1819C136.178 83.9684 136.467 83.8485 136.769 83.8485C137.071 83.8485 137.36 83.9684 137.574 84.1819C137.787 84.3953 137.907 84.6849 137.907 84.9867V100.297C137.907 100.598 137.786 100.887 137.573 101.101C137.36 101.314 137.071 101.434 136.769 101.435Z" fill="#8692A6"/>
<path d="M177.992 101.435C177.69 101.435 177.401 101.315 177.187 101.101C176.974 100.888 176.854 100.598 176.854 100.297V84.9867C176.854 84.8373 176.883 84.6892 176.941 84.5512C176.998 84.4131 177.082 84.2876 177.187 84.1819C177.293 84.0762 177.419 83.9924 177.557 83.9352C177.695 83.878 177.843 83.8485 177.992 83.8485C178.142 83.8485 178.29 83.878 178.428 83.9352C178.566 83.9924 178.691 84.0762 178.797 84.1819C178.903 84.2876 178.987 84.4131 179.044 84.5512C179.101 84.6892 179.13 84.8373 179.13 84.9867V100.297C179.13 100.598 179.011 100.888 178.797 101.101C178.584 101.315 178.294 101.435 177.992 101.435Z" fill="#8692A6"/>
<path d="M200.024 112.329H113.754C113.605 112.329 113.457 112.3 113.319 112.243C113.181 112.186 113.055 112.102 112.95 111.996C112.844 111.89 112.76 111.765 112.703 111.627C112.646 111.489 112.616 111.341 112.616 111.191C112.616 111.042 112.646 110.894 112.703 110.756C112.76 110.618 112.844 110.492 112.95 110.386C113.055 110.281 113.181 110.197 113.319 110.14C113.457 110.082 113.605 110.053 113.754 110.053H200.027C200.176 110.053 200.324 110.083 200.462 110.14C200.6 110.197 200.726 110.281 200.831 110.387C200.937 110.493 201.021 110.619 201.078 110.757C201.135 110.895 201.164 111.043 201.164 111.192C201.164 111.342 201.134 111.49 201.077 111.628C201.019 111.766 200.935 111.891 200.83 111.997C200.724 112.102 200.598 112.186 200.46 112.243C200.322 112.3 200.174 112.33 200.024 112.329Z" fill="#8692A6"/>
<path d="M54.7281 210.466V214.858H61.0461V216.406H54.7281V221.5H52.9281V208.9H61.8201V210.466H54.7281ZM63.8361 211.96H65.5641V221.5H63.8361V211.96ZM64.7001 210.124C64.3641 210.124 64.0821 210.016 63.8541 209.8C63.6381 209.584 63.5301 209.32 63.5301 209.008C63.5301 208.696 63.6381 208.432 63.8541 208.216C64.0821 207.988 64.3641 207.874 64.7001 207.874C65.0361 207.874 65.3121 207.982 65.5281 208.198C65.7561 208.402 65.8701 208.66 65.8701 208.972C65.8701 209.296 65.7561 209.572 65.5281 209.8C65.3121 210.016 65.0361 210.124 64.7001 210.124ZM74.1374 220.942C73.8854 221.158 73.5734 221.326 73.2014 221.446C72.8294 221.554 72.4454 221.608 72.0494 221.608C71.0894 221.608 70.3454 221.35 69.8174 220.834C69.2894 220.318 69.0254 219.58 69.0254 218.62V213.382H67.4054V211.96H69.0254V209.872H70.7534V211.96H73.4894V213.382H70.7534V218.548C70.7534 219.064 70.8794 219.46 71.1314 219.736C71.3954 220.012 71.7674 220.15 72.2474 220.15C72.7754 220.15 73.2254 220 73.5974 219.7L74.1374 220.942ZM80.8805 211.96H82.6085V221.5H80.8805V211.96ZM81.7445 210.124C81.4085 210.124 81.1265 210.016 80.8985 209.8C80.6825 209.584 80.5745 209.32 80.5745 209.008C80.5745 208.696 80.6825 208.432 80.8985 208.216C81.1265 207.988 81.4085 207.874 81.7445 207.874C82.0805 207.874 82.3565 207.982 82.5725 208.198C82.8005 208.402 82.9145 208.66 82.9145 208.972C82.9145 209.296 82.8005 209.572 82.5725 209.8C82.3565 210.016 82.0805 210.124 81.7445 210.124ZM91.1819 220.942C90.9299 221.158 90.6179 221.326 90.2459 221.446C89.8739 221.554 89.4899 221.608 89.0939 221.608C88.1339 221.608 87.3899 221.35 86.8619 220.834C86.3339 220.318 86.0699 219.58 86.0699 218.62V213.382H84.4499V211.96H86.0699V209.872H87.7979V211.96H90.5339V213.382H87.7979V218.548C87.7979 219.064 87.9239 219.46 88.1759 219.736C88.4399 220.012 88.8119 220.15 89.2919 220.15C89.8199 220.15 90.2699 220 90.6419 219.7L91.1819 220.942ZM97.925 211.96H99.653V221.5H97.925V211.96ZM98.789 210.124C98.453 210.124 98.171 210.016 97.943 209.8C97.727 209.584 97.619 209.32 97.619 209.008C97.619 208.696 97.727 208.432 97.943 208.216C98.171 207.988 98.453 207.874 98.789 207.874C99.125 207.874 99.401 207.982 99.617 208.198C99.845 208.402 99.959 208.66 99.959 208.972C99.959 209.296 99.845 209.572 99.617 209.8C99.401 210.016 99.125 210.124 98.789 210.124ZM107.956 211.87C109.168 211.87 110.128 212.224 110.836 212.932C111.556 213.628 111.916 214.654 111.916 216.01V221.5H110.188V216.208C110.188 215.284 109.966 214.588 109.522 214.12C109.078 213.652 108.442 213.418 107.614 213.418C106.678 213.418 105.94 213.694 105.4 214.246C104.86 214.786 104.59 215.566 104.59 216.586V221.5H102.862V211.96H104.518V213.4C104.866 212.908 105.334 212.53 105.922 212.266C106.522 212.002 107.2 211.87 107.956 211.87ZM120.388 220.942C120.136 221.158 119.824 221.326 119.452 221.446C119.08 221.554 118.696 221.608 118.3 221.608C117.34 221.608 116.596 221.35 116.068 220.834C115.54 220.318 115.276 219.58 115.276 218.62V213.382H113.656V211.96H115.276V209.872H117.004V211.96H119.74V213.382H117.004V218.548C117.004 219.064 117.13 219.46 117.382 219.736C117.646 220.012 118.018 220.15 118.498 220.15C119.026 220.15 119.476 220 119.848 219.7L120.388 220.942ZM126.157 221.608C125.209 221.608 124.357 221.398 123.601 220.978C122.845 220.558 122.251 219.982 121.819 219.25C121.399 218.506 121.189 217.666 121.189 216.73C121.189 215.794 121.399 214.96 121.819 214.228C122.251 213.484 122.845 212.908 123.601 212.5C124.357 212.08 125.209 211.87 126.157 211.87C127.105 211.87 127.951 212.08 128.695 212.5C129.451 212.908 130.039 213.484 130.459 214.228C130.891 214.96 131.107 215.794 131.107 216.73C131.107 217.666 130.891 218.506 130.459 219.25C130.039 219.982 129.451 220.558 128.695 220.978C127.951 221.398 127.105 221.608 126.157 221.608ZM126.157 220.096C126.769 220.096 127.315 219.958 127.795 219.682C128.287 219.394 128.671 218.998 128.947 218.494C129.223 217.978 129.361 217.39 129.361 216.73C129.361 216.07 129.223 215.488 128.947 214.984C128.671 214.468 128.287 214.072 127.795 213.796C127.315 213.52 126.769 213.382 126.157 213.382C125.545 213.382 124.993 213.52 124.501 213.796C124.021 214.072 123.637 214.468 123.349 214.984C123.073 215.488 122.935 216.07 122.935 216.73C122.935 217.39 123.073 217.978 123.349 218.494C123.637 218.998 124.021 219.394 124.501 219.682C124.993 219.958 125.545 220.096 126.157 220.096ZM146.593 211.96L141.967 222.454C141.559 223.426 141.079 224.11 140.527 224.506C139.987 224.902 139.333 225.1 138.565 225.1C138.097 225.1 137.641 225.022 137.197 224.866C136.765 224.722 136.405 224.506 136.117 224.218L136.855 222.922C137.347 223.39 137.917 223.624 138.565 223.624C138.985 223.624 139.333 223.51 139.609 223.282C139.897 223.066 140.155 222.688 140.383 222.148L140.689 221.482L136.477 211.96H138.277L141.607 219.592L144.901 211.96H146.593ZM151.938 221.608C150.99 221.608 150.138 221.398 149.382 220.978C148.626 220.558 148.032 219.982 147.6 219.25C147.18 218.506 146.97 217.666 146.97 216.73C146.97 215.794 147.18 214.96 147.6 214.228C148.032 213.484 148.626 212.908 149.382 212.5C150.138 212.08 150.99 211.87 151.938 211.87C152.886 211.87 153.732 212.08 154.476 212.5C155.232 212.908 155.82 213.484 156.24 214.228C156.672 214.96 156.888 215.794 156.888 216.73C156.888 217.666 156.672 218.506 156.24 219.25C155.82 219.982 155.232 220.558 154.476 220.978C153.732 221.398 152.886 221.608 151.938 221.608ZM151.938 220.096C152.55 220.096 153.096 219.958 153.576 219.682C154.068 219.394 154.452 218.998 154.728 218.494C155.004 217.978 155.142 217.39 155.142 216.73C155.142 216.07 155.004 215.488 154.728 214.984C154.452 214.468 154.068 214.072 153.576 213.796C153.096 213.52 152.55 213.382 151.938 213.382C151.326 213.382 150.774 213.52 150.282 213.796C149.802 214.072 149.418 214.468 149.13 214.984C148.854 215.488 148.716 216.07 148.716 216.73C148.716 217.39 148.854 217.978 149.13 218.494C149.418 218.998 149.802 219.394 150.282 219.682C150.774 219.958 151.326 220.096 151.938 220.096ZM168.08 211.96V221.5H166.442V220.06C166.094 220.552 165.632 220.936 165.056 221.212C164.492 221.476 163.874 221.608 163.202 221.608C161.93 221.608 160.928 221.26 160.196 220.564C159.464 219.856 159.098 218.818 159.098 217.45V211.96H160.826V217.252C160.826 218.176 161.048 218.878 161.492 219.358C161.936 219.826 162.572 220.06 163.4 220.06C164.312 220.06 165.032 219.784 165.56 219.232C166.088 218.68 166.352 217.9 166.352 216.892V211.96H168.08ZM172.935 213.562C173.235 213.01 173.679 212.59 174.267 212.302C174.855 212.014 175.569 211.87 176.409 211.87V213.544C176.313 213.532 176.181 213.526 176.013 213.526C175.077 213.526 174.339 213.808 173.799 214.372C173.271 214.924 173.007 215.716 173.007 216.748V221.5H171.279V211.96H172.935V213.562ZM186.052 221.608C185.272 221.608 184.522 221.506 183.802 221.302C183.082 221.086 182.518 220.816 182.11 220.492L182.83 219.124C183.25 219.424 183.76 219.664 184.36 219.844C184.96 220.024 185.566 220.114 186.178 220.114C187.69 220.114 188.446 219.682 188.446 218.818C188.446 218.53 188.344 218.302 188.14 218.134C187.936 217.966 187.678 217.846 187.366 217.774C187.066 217.69 186.634 217.6 186.07 217.504C185.302 217.384 184.672 217.246 184.18 217.09C183.7 216.934 183.286 216.67 182.938 216.298C182.59 215.926 182.416 215.404 182.416 214.732C182.416 213.868 182.776 213.178 183.496 212.662C184.216 212.134 185.182 211.87 186.394 211.87C187.03 211.87 187.666 211.948 188.302 212.104C188.938 212.26 189.46 212.47 189.868 212.734L189.13 214.102C188.35 213.598 187.432 213.346 186.376 213.346C185.644 213.346 185.086 213.466 184.702 213.706C184.318 213.946 184.126 214.264 184.126 214.66C184.126 214.972 184.234 215.218 184.45 215.398C184.666 215.578 184.93 215.71 185.242 215.794C185.566 215.878 186.016 215.974 186.592 216.082C187.36 216.214 187.978 216.358 188.446 216.514C188.926 216.658 189.334 216.91 189.67 217.27C190.006 217.63 190.174 218.134 190.174 218.782C190.174 219.646 189.802 220.336 189.058 220.852C188.326 221.356 187.324 221.608 186.052 221.608ZM196.402 221.608C195.43 221.608 194.56 221.398 193.792 220.978C193.036 220.558 192.442 219.982 192.01 219.25C191.578 218.506 191.362 217.666 191.362 216.73C191.362 215.794 191.578 214.96 192.01 214.228C192.442 213.484 193.036 212.908 193.792 212.5C194.56 212.08 195.43 211.87 196.402 211.87C197.266 211.87 198.034 212.044 198.706 212.392C199.39 212.74 199.918 213.244 200.29 213.904L198.976 214.75C198.676 214.294 198.304 213.952 197.86 213.724C197.416 213.496 196.924 213.382 196.384 213.382C195.76 213.382 195.196 213.52 194.692 213.796C194.2 214.072 193.81 214.468 193.522 214.984C193.246 215.488 193.108 216.07 193.108 216.73C193.108 217.402 193.246 217.996 193.522 218.512C193.81 219.016 194.2 219.406 194.692 219.682C195.196 219.958 195.76 220.096 196.384 220.096C196.924 220.096 197.416 219.982 197.86 219.754C198.304 219.526 198.676 219.184 198.976 218.728L200.29 219.556C199.918 220.216 199.39 220.726 198.706 221.086C198.034 221.434 197.266 221.608 196.402 221.608ZM207.408 211.87C208.62 211.87 209.58 212.224 210.288 212.932C211.008 213.628 211.368 214.654 211.368 216.01V221.5H209.64V216.208C209.64 215.284 209.418 214.588 208.974 214.12C208.53 213.652 207.894 213.418 207.066 213.418C206.13 213.418 205.392 213.694 204.852 214.246C204.312 214.786 204.042 215.566 204.042 216.586V221.5H202.314V208.144H204.042V213.31C204.402 212.854 204.87 212.5 205.446 212.248C206.034 211.996 206.688 211.87 207.408 211.87ZM223.15 216.784C223.15 216.916 223.138 217.09 223.114 217.306H215.374C215.482 218.146 215.848 218.824 216.472 219.34C217.108 219.844 217.894 220.096 218.83 220.096C219.97 220.096 220.888 219.712 221.584 218.944L222.538 220.06C222.106 220.564 221.566 220.948 220.918 221.212C220.282 221.476 219.568 221.608 218.776 221.608C217.768 221.608 216.874 221.404 216.094 220.996C215.314 220.576 214.708 219.994 214.276 219.25C213.856 218.506 213.646 217.666 213.646 216.73C213.646 215.806 213.85 214.972 214.258 214.228C214.678 213.484 215.248 212.908 215.968 212.5C216.7 212.08 217.522 211.87 218.434 211.87C219.346 211.87 220.156 212.08 220.864 212.5C221.584 212.908 222.142 213.484 222.538 214.228C222.946 214.972 223.15 215.824 223.15 216.784ZM218.434 213.328C217.606 213.328 216.91 213.58 216.346 214.084C215.794 214.588 215.47 215.248 215.374 216.064H221.494C221.398 215.26 221.068 214.606 220.504 214.102C219.952 213.586 219.262 213.328 218.434 213.328ZM234.46 208.144V221.5H232.804V219.988C232.42 220.516 231.934 220.918 231.346 221.194C230.758 221.47 230.11 221.608 229.402 221.608C228.478 221.608 227.65 221.404 226.918 220.996C226.186 220.588 225.61 220.018 225.19 219.286C224.782 218.542 224.578 217.69 224.578 216.73C224.578 215.77 224.782 214.924 225.19 214.192C225.61 213.46 226.186 212.89 226.918 212.482C227.65 212.074 228.478 211.87 229.402 211.87C230.086 211.87 230.716 212.002 231.292 212.266C231.868 212.518 232.348 212.896 232.732 213.4V208.144H234.46ZM229.546 220.096C230.146 220.096 230.692 219.958 231.184 219.682C231.676 219.394 232.06 218.998 232.336 218.494C232.612 217.978 232.75 217.39 232.75 216.73C232.75 216.07 232.612 215.488 232.336 214.984C232.06 214.468 231.676 214.072 231.184 213.796C230.692 213.52 230.146 213.382 229.546 213.382C228.934 213.382 228.382 213.52 227.89 213.796C227.41 214.072 227.026 214.468 226.738 214.984C226.462 215.488 226.324 216.07 226.324 216.73C226.324 217.39 226.462 217.978 226.738 218.494C227.026 218.998 227.41 219.394 227.89 219.682C228.382 219.958 228.934 220.096 229.546 220.096ZM246.531 211.96V221.5H244.893V220.06C244.545 220.552 244.083 220.936 243.507 221.212C242.943 221.476 242.325 221.608 241.653 221.608C240.381 221.608 239.379 221.26 238.647 220.564C237.915 219.856 237.549 218.818 237.549 217.45V211.96H239.277V217.252C239.277 218.176 239.499 218.878 239.943 219.358C240.387 219.826 241.023 220.06 241.851 220.06C242.763 220.06 243.483 219.784 244.011 219.232C244.539 218.68 244.803 217.9 244.803 216.892V211.96H246.531ZM249.731 208.144H251.459V221.5H249.731V208.144ZM263.29 216.784C263.29 216.916 263.278 217.09 263.254 217.306H255.514C255.622 218.146 255.988 218.824 256.612 219.34C257.248 219.844 258.034 220.096 258.97 220.096C260.11 220.096 261.028 219.712 261.724 218.944L262.678 220.06C262.246 220.564 261.706 220.948 261.058 221.212C260.422 221.476 259.708 221.608 258.916 221.608C257.908 221.608 257.014 221.404 256.234 220.996C255.454 220.576 254.848 219.994 254.416 219.25C253.996 218.506 253.786 217.666 253.786 216.73C253.786 215.806 253.99 214.972 254.398 214.228C254.818 213.484 255.388 212.908 256.108 212.5C256.84 212.08 257.662 211.87 258.574 211.87C259.486 211.87 260.296 212.08 261.004 212.5C261.724 212.908 262.282 213.484 262.678 214.228C263.086 214.972 263.29 215.824 263.29 216.784ZM258.574 213.328C257.746 213.328 257.05 213.58 256.486 214.084C255.934 214.588 255.61 215.248 255.514 216.064H261.634C261.538 215.26 261.208 214.606 260.644 214.102C260.092 213.586 259.402 213.328 258.574 213.328ZM81.2952 247.942C81.0432 248.158 80.7312 248.326 80.3592 248.446C79.9872 248.554 79.6032 248.608 79.2072 248.608C78.2472 248.608 77.5032 248.35 76.9752 247.834C76.4472 247.318 76.1832 246.58 76.1832 245.62V240.382H74.5632V238.96H76.1832V236.872H77.9112V238.96H80.6472V240.382H77.9112V245.548C77.9112 246.064 78.0372 246.46 78.2892 246.736C78.5532 247.012 78.9252 247.15 79.4052 247.15C79.9332 247.15 80.3832 247 80.7552 246.7L81.2952 247.942ZM87.064 248.608C86.116 248.608 85.264 248.398 84.508 247.978C83.752 247.558 83.158 246.982 82.726 246.25C82.306 245.506 82.096 244.666 82.096 243.73C82.096 242.794 82.306 241.96 82.726 241.228C83.158 240.484 83.752 239.908 84.508 239.5C85.264 239.08 86.116 238.87 87.064 238.87C88.012 238.87 88.858 239.08 89.602 239.5C90.358 239.908 90.946 240.484 91.366 241.228C91.798 241.96 92.014 242.794 92.014 243.73C92.014 244.666 91.798 245.506 91.366 246.25C90.946 246.982 90.358 247.558 89.602 247.978C88.858 248.398 88.012 248.608 87.064 248.608ZM87.064 247.096C87.676 247.096 88.222 246.958 88.702 246.682C89.194 246.394 89.578 245.998 89.854 245.494C90.13 244.978 90.268 244.39 90.268 243.73C90.268 243.07 90.13 242.488 89.854 241.984C89.578 241.468 89.194 241.072 88.702 240.796C88.222 240.52 87.676 240.382 87.064 240.382C86.452 240.382 85.9 240.52 85.408 240.796C84.928 241.072 84.544 241.468 84.256 241.984C83.98 242.488 83.842 243.07 83.842 243.73C83.842 244.39 83.98 244.978 84.256 245.494C84.544 245.998 84.928 246.394 85.408 246.682C85.9 246.958 86.452 247.096 87.064 247.096ZM110.992 238.87C112.192 238.87 113.14 239.218 113.836 239.914C114.544 240.61 114.898 241.642 114.898 243.01V248.5H113.17V243.208C113.17 242.284 112.954 241.588 112.522 241.12C112.102 240.652 111.496 240.418 110.704 240.418C109.828 240.418 109.132 240.694 108.616 241.246C108.1 241.786 107.842 242.566 107.842 243.586V248.5H106.114V243.208C106.114 242.284 105.898 241.588 105.466 241.12C105.046 240.652 104.44 240.418 103.648 240.418C102.772 240.418 102.076 240.694 101.56 241.246C101.044 241.786 100.786 242.566 100.786 243.586V248.5H99.0577V238.96H100.714V240.382C101.062 239.89 101.518 239.518 102.082 239.266C102.646 239.002 103.288 238.87 104.008 238.87C104.752 238.87 105.412 239.02 105.988 239.32C106.564 239.62 107.008 240.058 107.32 240.634C107.68 240.082 108.178 239.65 108.814 239.338C109.462 239.026 110.188 238.87 110.992 238.87ZM121.461 238.87C122.781 238.87 123.789 239.194 124.485 239.842C125.193 240.49 125.547 241.456 125.547 242.74V248.5H123.909V247.24C123.621 247.684 123.207 248.026 122.667 248.266C122.139 248.494 121.509 248.608 120.777 248.608C119.709 248.608 118.851 248.35 118.203 247.834C117.567 247.318 117.249 246.64 117.249 245.8C117.249 244.96 117.555 244.288 118.167 243.784C118.779 243.268 119.751 243.01 121.083 243.01H123.819V242.668C123.819 241.924 123.603 241.354 123.171 240.958C122.739 240.562 122.103 240.364 121.263 240.364C120.699 240.364 120.147 240.46 119.607 240.652C119.067 240.832 118.611 241.078 118.239 241.39L117.519 240.094C118.011 239.698 118.599 239.398 119.283 239.194C119.967 238.978 120.693 238.87 121.461 238.87ZM121.065 247.276C121.725 247.276 122.295 247.132 122.775 246.844C123.255 246.544 123.603 246.124 123.819 245.584V244.252H121.155C119.691 244.252 118.959 244.744 118.959 245.728C118.959 246.208 119.145 246.586 119.517 246.862C119.889 247.138 120.405 247.276 121.065 247.276ZM132.363 244.054L130.383 245.89V248.5H128.655V235.144H130.383V243.712L135.585 238.96H137.673L133.659 242.902L138.069 248.5H135.945L132.363 244.054ZM147.875 243.784C147.875 243.916 147.863 244.09 147.839 244.306H140.099C140.207 245.146 140.573 245.824 141.197 246.34C141.833 246.844 142.619 247.096 143.555 247.096C144.695 247.096 145.613 246.712 146.309 245.944L147.263 247.06C146.831 247.564 146.291 247.948 145.643 248.212C145.007 248.476 144.293 248.608 143.501 248.608C142.493 248.608 141.599 248.404 140.819 247.996C140.039 247.576 139.433 246.994 139.001 246.25C138.581 245.506 138.371 244.666 138.371 243.73C138.371 242.806 138.575 241.972 138.983 241.228C139.403 240.484 139.973 239.908 140.693 239.5C141.425 239.08 142.247 238.87 143.159 238.87C144.071 238.87 144.881 239.08 145.589 239.5C146.309 239.908 146.867 240.484 147.263 241.228C147.671 241.972 147.875 242.824 147.875 243.784ZM143.159 240.328C142.331 240.328 141.635 240.58 141.071 241.084C140.519 241.588 140.195 242.248 140.099 243.064H146.219C146.123 242.26 145.793 241.606 145.229 241.102C144.677 240.586 143.987 240.328 143.159 240.328ZM154.928 238.96H156.656V248.5H154.928V238.96ZM155.792 237.124C155.456 237.124 155.174 237.016 154.946 236.8C154.73 236.584 154.622 236.32 154.622 236.008C154.622 235.696 154.73 235.432 154.946 235.216C155.174 234.988 155.456 234.874 155.792 234.874C156.128 234.874 156.404 234.982 156.62 235.198C156.848 235.402 156.962 235.66 156.962 235.972C156.962 236.296 156.848 236.572 156.62 236.8C156.404 237.016 156.128 237.124 155.792 237.124ZM165.229 247.942C164.977 248.158 164.665 248.326 164.293 248.446C163.921 248.554 163.537 248.608 163.141 248.608C162.181 248.608 161.437 248.35 160.909 247.834C160.381 247.318 160.117 246.58 160.117 245.62V240.382H158.497V238.96H160.117V236.872H161.845V238.96H164.581V240.382H161.845V245.548C161.845 246.064 161.971 246.46 162.223 246.736C162.487 247.012 162.859 247.15 163.339 247.15C163.867 247.15 164.317 247 164.689 246.7L165.229 247.942ZM177.066 238.87C178.278 238.87 179.238 239.224 179.946 239.932C180.666 240.628 181.026 241.654 181.026 243.01V248.5H179.298V243.208C179.298 242.284 179.076 241.588 178.632 241.12C178.188 240.652 177.552 240.418 176.724 240.418C175.788 240.418 175.05 240.694 174.51 241.246C173.97 241.786 173.7 242.566 173.7 243.586V248.5H171.972V235.144H173.7V240.31C174.06 239.854 174.528 239.5 175.104 239.248C175.692 238.996 176.346 238.87 177.066 238.87ZM187.608 238.87C188.928 238.87 189.936 239.194 190.632 239.842C191.34 240.49 191.694 241.456 191.694 242.74V248.5H190.056V247.24C189.768 247.684 189.354 248.026 188.814 248.266C188.286 248.494 187.656 248.608 186.924 248.608C185.856 248.608 184.998 248.35 184.35 247.834C183.714 247.318 183.396 246.64 183.396 245.8C183.396 244.96 183.702 244.288 184.314 243.784C184.926 243.268 185.898 243.01 187.23 243.01H189.966V242.668C189.966 241.924 189.75 241.354 189.318 240.958C188.886 240.562 188.25 240.364 187.41 240.364C186.846 240.364 186.294 240.46 185.754 240.652C185.214 240.832 184.758 241.078 184.386 241.39L183.666 240.094C184.158 239.698 184.746 239.398 185.43 239.194C186.114 238.978 186.84 238.87 187.608 238.87ZM187.212 247.276C187.872 247.276 188.442 247.132 188.922 246.844C189.402 246.544 189.75 246.124 189.966 245.584V244.252H187.302C185.838 244.252 185.106 244.744 185.106 245.728C185.106 246.208 185.292 246.586 185.664 246.862C186.036 247.138 186.552 247.276 187.212 247.276ZM199.86 238.87C200.784 238.87 201.612 239.074 202.344 239.482C203.076 239.89 203.646 240.46 204.054 241.192C204.474 241.924 204.684 242.77 204.684 243.73C204.684 244.69 204.474 245.542 204.054 246.286C203.646 247.018 203.076 247.588 202.344 247.996C201.612 248.404 200.784 248.608 199.86 248.608C199.176 248.608 198.546 248.476 197.97 248.212C197.406 247.948 196.926 247.564 196.53 247.06V251.992H194.802V238.96H196.458V240.472C196.842 239.944 197.328 239.548 197.916 239.284C198.504 239.008 199.152 238.87 199.86 238.87ZM199.716 247.096C200.328 247.096 200.874 246.958 201.354 246.682C201.846 246.394 202.23 245.998 202.506 245.494C202.794 244.978 202.938 244.39 202.938 243.73C202.938 243.07 202.794 242.488 202.506 241.984C202.23 241.468 201.846 241.072 201.354 240.796C200.874 240.52 200.328 240.382 199.716 240.382C199.116 240.382 198.57 240.526 198.078 240.814C197.598 241.09 197.214 241.48 196.926 241.984C196.65 242.488 196.512 243.07 196.512 243.73C196.512 244.39 196.65 244.978 196.926 245.494C197.202 245.998 197.586 246.394 198.078 246.682C198.57 246.958 199.116 247.096 199.716 247.096ZM212.04 238.87C212.964 238.87 213.792 239.074 214.524 239.482C215.256 239.89 215.826 240.46 216.234 241.192C216.654 241.924 216.864 242.77 216.864 243.73C216.864 244.69 216.654 245.542 216.234 246.286C215.826 247.018 215.256 247.588 214.524 247.996C213.792 248.404 212.964 248.608 212.04 248.608C211.356 248.608 210.726 248.476 210.15 248.212C209.586 247.948 209.106 247.564 208.71 247.06V251.992H206.982V238.96H208.638V240.472C209.022 239.944 209.508 239.548 210.096 239.284C210.684 239.008 211.332 238.87 212.04 238.87ZM211.896 247.096C212.508 247.096 213.054 246.958 213.534 246.682C214.026 246.394 214.41 245.998 214.686 245.494C214.974 244.978 215.118 244.39 215.118 243.73C215.118 243.07 214.974 242.488 214.686 241.984C214.41 241.468 214.026 241.072 213.534 240.796C213.054 240.52 212.508 240.382 211.896 240.382C211.296 240.382 210.75 240.526 210.258 240.814C209.778 241.09 209.394 241.48 209.106 241.984C208.83 242.488 208.692 243.07 208.692 243.73C208.692 244.39 208.83 244.978 209.106 245.494C209.382 245.998 209.766 246.394 210.258 246.682C210.75 246.958 211.296 247.096 211.896 247.096ZM227.783 243.784C227.783 243.916 227.771 244.09 227.747 244.306H220.007C220.115 245.146 220.481 245.824 221.105 246.34C221.741 246.844 222.527 247.096 223.463 247.096C224.603 247.096 225.521 246.712 226.217 245.944L227.171 247.06C226.739 247.564 226.199 247.948 225.551 248.212C224.915 248.476 224.201 248.608 223.409 248.608C222.401 248.608 221.507 248.404 220.727 247.996C219.947 247.576 219.341 246.994 218.909 246.25C218.489 245.506 218.279 244.666 218.279 243.73C218.279 242.806 218.483 241.972 218.891 241.228C219.311 240.484 219.881 239.908 220.601 239.5C221.333 239.08 222.155 238.87 223.067 238.87C223.979 238.87 224.789 239.08 225.497 239.5C226.217 239.908 226.775 240.484 227.171 241.228C227.579 241.972 227.783 242.824 227.783 243.784ZM223.067 240.328C222.239 240.328 221.543 240.58 220.979 241.084C220.427 241.588 220.103 242.248 220.007 243.064H226.127C226.031 242.26 225.701 241.606 225.137 241.102C224.585 240.586 223.895 240.328 223.067 240.328ZM235.187 238.87C236.399 238.87 237.359 239.224 238.067 239.932C238.787 240.628 239.147 241.654 239.147 243.01V248.5H237.419V243.208C237.419 242.284 237.197 241.588 236.753 241.12C236.309 240.652 235.673 240.418 234.845 240.418C233.909 240.418 233.171 240.694 232.631 241.246C232.091 241.786 231.821 242.566 231.821 243.586V248.5H230.093V238.96H231.749V240.4C232.097 239.908 232.565 239.53 233.153 239.266C233.753 239.002 234.431 238.87 235.187 238.87Z" fill="#8692A6"/>
<defs>
<filter id="filter0_f" x="0" y="0.5" width="313" height="313" filterUnits="userSpaceOnUse" color-interpolation-filters="sRGB">
<feFlood flood-opacity="0" result="BackgroundImageFix"/>
<feBlend mode="normal" in="SourceGraphic" in2="BackgroundImageFix" result="shape"/>
<feGaussianBlur stdDeviation="5" result="effect1_foregroundBlur"/>
</filter>
</defs>
</svg>
