<svg width="262" height="261" viewBox="0 0 262 261" fill="none" xmlns="http://www.w3.org/2000/svg">
<g filter="url(#filter0_f)">
<circle cx="130.946" cy="130.282" r="80.1145" fill="#F1F7FF"/>
</g>
<g opacity="0.7">
<path d="M150.774 229.277C128.466 229.277 107.234 215.571 99.1708 193.534C88.9578 165.315 103.471 134.14 131.96 123.659C145.667 118.553 160.718 119.359 173.887 125.54C187.057 131.722 197.27 142.471 202.108 156.178C212.321 184.396 197.807 215.571 169.318 226.052C163.405 228.202 156.955 229.277 150.774 229.277ZM150.774 123.122C144.861 123.122 138.679 124.197 133.035 126.347C105.89 136.021 91.9142 165.853 101.858 192.727C111.803 219.602 141.636 233.308 168.781 223.633C181.95 218.796 192.432 209.39 198.076 196.759C203.989 184.127 204.526 170.153 199.689 157.253C194.851 144.353 185.444 133.871 172.812 127.959C165.824 124.734 158.299 123.122 150.774 123.122Z" fill="#2F80ED"/>
<path d="M114.221 129.571C106.427 129.571 98.3643 127.958 91.1076 124.465C77.9382 118.283 67.7252 107.533 62.8874 93.8273C57.7809 80.1212 58.5872 65.34 64.7687 52.1714C70.9503 39.0027 81.9697 29.0591 95.6766 23.9529C109.384 19.1154 124.434 19.6529 137.604 25.8341C150.773 32.0153 160.986 42.7652 165.824 56.4713C170.931 70.1775 170.124 84.9586 163.943 98.1272C157.761 111.296 146.742 121.24 133.035 126.346C126.853 128.496 120.403 129.571 114.221 129.571ZM114.221 23.4154C108.309 23.4154 102.127 24.4904 96.4829 26.6403C83.3135 31.4778 72.8317 40.884 67.1876 53.5151C61.0061 65.8775 60.4685 79.8524 65.3063 92.7523C70.144 105.652 79.5508 116.133 92.1827 122.046C104.815 127.958 119.059 128.496 131.96 123.658C145.129 118.821 155.611 109.415 161.255 96.7835C166.899 84.1524 167.705 70.1775 162.868 57.2776C158.03 44.3777 148.623 33.8965 135.991 27.9841C129.272 25.0279 121.747 23.4154 114.221 23.4154Z" fill="#2F80ED"/>
<path d="M132.501 126.343C102.399 126.343 77.6729 101.887 77.6729 72.0558C77.6729 42.2248 102.399 17.5 132.501 17.5C162.603 17.5 187.329 41.956 187.329 71.787C187.329 101.618 162.603 126.343 132.501 126.343ZM132.501 20.1875C103.743 20.1875 80.3605 43.2998 80.3605 72.0558C80.3605 100.812 103.743 123.655 132.501 123.655C161.259 123.655 184.641 100.543 184.641 71.787C184.641 43.031 161.259 20.1875 132.501 20.1875Z" fill="#2F80ED"/>
<path d="M132.501 232.498C102.399 232.498 77.6729 208.042 77.6729 178.211C77.6729 148.38 102.399 123.655 132.501 123.655C162.603 123.655 187.329 148.111 187.329 177.942C187.329 207.773 162.603 232.498 132.501 232.498ZM132.501 126.342C103.743 126.342 80.3605 149.455 80.3605 178.211C80.3605 206.967 103.743 229.81 132.501 229.81C161.259 229.81 184.641 206.698 184.641 177.942C184.641 149.186 161.259 126.342 132.501 126.342Z" fill="#2F80ED"/>
<path d="M114.223 229.271C107.772 229.271 101.591 228.196 95.4092 226.046C66.9202 215.834 52.407 184.39 62.62 156.172C67.7265 142.466 77.6708 131.716 90.8402 125.534C104.01 119.353 119.06 118.816 132.767 123.653C146.474 128.491 157.494 138.703 163.675 151.872C169.857 165.04 170.394 179.821 165.557 193.528C160.45 207.234 150.506 217.984 137.336 224.165C130.08 227.659 122.017 229.271 114.223 229.271ZM65.3077 157.247C55.3634 184.121 69.3391 213.684 96.4843 223.627C109.654 228.465 123.629 227.659 136.261 222.015C148.893 216.102 158.569 205.89 163.138 192.721C167.976 179.821 167.169 165.578 161.525 153.215C155.881 140.853 145.131 131.178 132.23 126.341C119.06 121.503 104.816 122.041 92.1841 127.953C79.5522 133.866 69.8767 144.078 65.3077 157.247Z" fill="#2F80ED"/>
<path d="M150.776 129.567C144.325 129.567 138.144 128.492 131.962 126.342C118.255 121.504 107.236 111.292 101.054 98.1232C94.8728 84.9546 94.3353 70.1734 99.173 56.4673C109.655 28.2488 141.1 13.7365 169.589 23.9489C183.296 28.7863 194.316 38.9987 200.497 52.1674C206.679 65.336 207.216 80.1171 202.379 93.8232C197.272 107.529 187.328 118.279 174.158 124.46C166.633 127.954 158.839 129.567 150.776 129.567ZM150.776 23.4114C129.543 23.4114 109.386 36.58 101.592 57.5423C96.7542 70.4422 97.5605 84.6858 103.205 97.0482C109.117 109.679 119.599 119.086 132.5 123.923C145.669 128.76 159.645 127.954 172.277 122.31C184.909 116.398 194.584 106.186 199.153 93.017C203.722 79.8484 203.185 65.8735 197.541 53.5111C191.628 40.88 181.146 31.4738 168.245 26.6363C162.87 24.4864 156.689 23.4114 150.776 23.4114Z" fill="#2F80ED"/>
<path d="M166.9 138.707C154.537 138.707 141.905 134.407 131.692 126.076C108.579 106.726 105.622 72.3264 124.973 49.4828C144.324 26.3705 178.995 23.4143 202.109 42.7641C225.222 62.114 228.179 96.5137 208.828 119.357C198.077 131.988 182.489 138.707 166.9 138.707ZM166.9 32.5517C152.118 32.5517 137.336 38.7329 126.855 51.0953C108.31 72.8639 111.266 105.651 133.305 123.926C155.344 142.201 188.402 139.513 206.678 117.476C225.222 95.7075 222.266 62.9202 200.227 44.6454C190.552 36.5829 178.726 32.5517 166.9 32.5517Z" fill="#2F80ED"/>
<path d="M98.0955 220.136C85.1948 220.136 72.8316 215.567 62.8874 207.505C51.5993 198.099 44.8801 184.93 43.5363 170.687C42.1925 156.174 46.7615 142.199 56.1683 130.912C65.575 119.625 78.7445 112.637 93.2577 111.562C107.771 110.218 122.016 114.787 133.304 124.193C144.592 133.599 151.311 146.768 152.655 161.012C153.998 175.255 149.429 189.499 140.023 200.518C130.616 211.536 117.447 218.524 102.933 219.867C101.321 220.136 99.7081 220.136 98.0955 220.136ZM98.0955 113.981C83.3134 113.981 68.5314 120.162 58.0496 132.524C49.1804 143.006 44.8801 156.443 45.9552 170.418C47.0303 184.393 53.7494 196.755 64.4999 205.624C75.2505 214.492 88.6887 218.792 102.664 217.449C116.64 216.374 129.003 209.655 138.141 199.174C147.011 188.693 151.311 175.255 150.236 161.28C148.892 147.574 142.442 134.943 131.691 126.074C122.016 118.012 109.921 113.981 98.0955 113.981Z" fill="#2F80ED"/>
<path d="M86.2676 205.895C81.4299 205.895 76.5921 205.357 72.0231 204.014C57.7786 200.251 45.953 191.114 38.6964 178.751C31.4398 166.12 29.5584 151.608 33.3211 137.364C37.0838 123.389 46.2218 111.565 58.8537 104.308C71.4856 97.0522 86.2676 95.171 100.512 98.9334C114.757 102.696 126.582 111.565 133.839 124.196C141.096 136.827 142.977 151.339 139.214 165.583C135.451 179.558 126.313 191.383 113.682 198.639C105.081 203.476 95.6744 205.895 86.2676 205.895ZM85.9989 99.7397C76.8609 99.7397 67.9917 102.158 59.9288 106.727C47.8344 113.715 39.2339 124.733 35.74 138.171C32.2461 151.608 34.1274 165.583 41.1153 177.408C48.1031 189.233 59.3912 197.833 72.8294 201.595C86.2676 205.089 100.243 203.207 112.338 196.489C137.333 182.245 145.933 150.533 131.42 125.808C124.432 113.715 113.144 105.383 99.7058 101.621C95.1368 100.277 90.5679 99.7397 85.9989 99.7397Z" fill="#2F80ED"/>
<path d="M178.997 152.945C174.159 152.945 169.322 152.408 164.753 151.064C150.508 147.301 138.683 138.164 131.426 125.802C124.169 113.17 122.288 98.658 126.051 84.4144C129.813 70.4395 138.951 58.6146 151.583 51.3584C164.215 44.1022 178.997 42.221 193.242 45.9835C207.486 49.7459 219.312 58.6146 226.568 71.2458C233.825 83.8769 235.706 98.3893 231.944 112.633C228.181 126.608 219.043 138.433 206.411 145.689C197.811 150.526 188.404 152.945 178.997 152.945ZM152.658 53.5084C140.564 60.4958 131.963 71.5145 128.469 84.9519C124.976 98.3893 126.588 112.364 133.576 124.189C140.564 136.283 151.852 144.614 165.29 148.376C178.728 151.87 192.704 149.989 204.798 143.27C216.893 136.283 225.493 125.264 228.987 111.827C232.481 98.3893 230.869 84.4144 223.881 72.5895C216.893 60.4958 205.605 52.1647 192.167 48.4022C178.997 44.9085 164.753 46.7897 152.658 53.5084Z" fill="#2F80ED"/>
<path d="M185.175 170.15C159.105 170.15 135.991 151.606 131.154 125.269C125.778 95.7063 145.936 67.4877 175.5 62.1128C190.013 59.694 204.526 62.919 216.352 71.2502C228.447 79.5814 236.241 91.9438 238.928 106.456C244.304 136.019 224.146 164.237 194.582 169.612C191.357 169.881 188.401 170.15 185.175 170.15ZM185.175 63.994C182.219 63.994 178.994 64.2628 176.037 64.8003C147.817 69.6377 128.735 96.7813 133.841 124.731C138.679 152.95 165.824 171.762 194.313 166.656C222.534 161.818 241.616 134.675 236.509 106.725C234.091 93.0188 226.565 81.1939 215.008 73.4002C206.139 67.219 195.926 63.994 185.175 63.994Z" fill="#2F80ED"/>
<path d="M79.8231 188.696C53.7529 188.696 30.6392 170.153 25.8014 143.815C23.3825 129.572 26.6077 115.059 34.9394 103.234C43.2711 91.4093 55.903 83.3468 70.4163 80.9281C100.249 75.8219 128.738 95.4405 133.845 125.003C139.22 154.565 119.063 182.784 89.4986 188.159C86.2734 188.428 83.0483 188.696 79.8231 188.696ZM79.8231 82.5406C76.8667 82.5406 73.9103 82.8093 70.6851 83.3468C56.9781 85.7656 44.8837 93.2905 37.0895 104.578C29.0266 115.865 26.0702 129.572 28.4891 143.278C30.9079 156.984 38.4334 168.809 49.9902 176.603C61.5471 184.396 75.2541 187.621 88.9611 185.203C117.181 180.365 136.264 153.221 131.157 125.272C126.857 100.278 104.549 82.5406 79.8231 82.5406Z" fill="#2F80ED"/>
<path d="M79.8213 170.149C76.5961 170.149 73.3709 169.88 70.1457 169.343C40.5816 164.237 20.6931 135.749 25.7996 106.456C28.2185 92.2121 36.2814 79.5809 48.3758 71.2497C60.4702 62.9185 74.9835 59.6936 89.228 62.1123C119.061 67.4873 138.949 95.7058 133.843 125.268C129.005 151.605 105.891 170.149 79.8213 170.149ZM79.8213 63.9935C69.3395 63.9935 58.8576 67.2185 49.9884 73.3997C38.7003 81.4622 30.9061 93.2871 28.4872 106.725C23.3807 134.943 42.463 161.818 70.6833 166.655C98.9036 171.493 126.049 152.68 131.155 124.731C136.262 96.5121 117.18 69.6372 88.9593 64.7998C85.7341 64.2623 82.7777 63.9935 79.8213 63.9935Z" fill="#2F80ED"/>
<path d="M185.179 188.688C181.954 188.688 178.728 188.419 175.503 187.881C145.939 182.506 126.05 154.288 131.157 124.725C136.532 95.1632 165.021 75.2758 194.585 80.6508C224.418 85.757 244.307 114.244 239.2 143.538C236.781 157.782 228.719 170.413 216.624 178.744C207.217 185.194 196.467 188.688 185.179 188.688ZM185.179 82.532C160.452 82.532 138.414 100.269 133.845 125.263C128.738 153.482 147.82 180.356 176.041 185.194C204.261 190.031 231.406 171.219 236.513 143.269C241.619 115.051 222.537 88.1757 194.317 83.3383C191.092 82.8008 188.135 82.532 185.179 82.532Z" fill="#2F80ED"/>
<path d="M178.726 205.895C169.319 205.895 159.912 203.476 151.312 198.639C138.68 191.383 129.542 179.558 125.779 165.583C122.016 151.608 123.898 136.827 131.154 124.196C138.411 111.565 150.237 102.696 164.481 98.9334C178.726 95.171 193.508 97.0522 206.14 104.308C218.771 111.565 227.909 123.389 231.672 137.364C235.435 151.339 233.553 166.12 226.297 178.751C219.04 191.383 207.215 200.251 192.97 204.014C188.401 205.357 183.563 205.895 178.726 205.895ZM178.994 99.7397C174.425 99.7397 169.856 100.277 165.287 101.621C151.849 105.115 140.561 113.715 133.573 125.808C126.585 137.902 124.704 151.608 128.467 165.045C131.961 178.483 140.83 189.501 152.656 196.489C164.75 203.476 178.726 205.357 192.164 201.595C205.602 198.101 216.89 189.501 223.878 177.408C230.866 165.314 232.747 151.608 228.985 138.171C225.491 124.733 216.621 113.715 204.796 106.727C196.733 102.158 187.864 99.7397 178.994 99.7397Z" fill="#2F80ED"/>
<path d="M86.006 152.953C76.5993 152.953 67.1925 150.534 58.592 145.696C45.9601 138.44 36.8221 126.615 33.0594 112.64C29.2967 98.6655 31.178 83.8844 38.4347 71.2533C53.4855 45.1847 87.0811 36.3161 113.42 51.3659C139.49 66.4158 148.628 99.7405 133.577 125.809C126.321 138.44 114.495 147.309 100.251 151.071C95.6815 152.146 90.8438 152.953 86.006 152.953ZM86.2748 46.7972C81.7058 46.7972 77.1368 47.3347 72.5678 48.6785C59.1296 52.1722 47.8414 60.7721 40.8536 72.8658C33.8657 84.9594 31.9843 98.6655 35.747 112.103C39.5097 125.54 48.1102 136.559 59.9358 143.546C72.0303 150.534 86.006 152.415 99.4442 148.653C112.882 145.159 124.171 136.559 131.158 124.465C145.403 99.7405 137.071 68.0283 112.076 53.7847C104.282 48.9472 95.4128 46.7972 86.2748 46.7972Z" fill="#2F80ED"/>
<path d="M98.0955 138.707C82.5072 138.707 66.9188 131.989 56.1683 119.358C46.7615 108.339 42.1925 94.0953 43.5363 79.5829C44.8801 65.0705 51.5993 51.9018 62.8874 42.7644C74.1755 33.3582 88.42 29.0582 102.933 30.1332C117.447 31.4769 130.616 38.1956 140.023 49.4831C149.429 60.5017 153.998 74.7454 152.655 89.2578C151.311 103.77 144.592 116.939 133.304 126.076C123.091 134.676 110.727 138.707 98.0955 138.707ZM98.0955 32.5519C86.0011 32.5519 74.1755 36.8519 64.7687 44.6456C54.0181 53.5143 47.5678 66.1455 46.224 79.8516C44.8801 93.5578 49.1804 106.995 58.3184 117.745C76.8631 139.514 109.652 142.47 131.691 124.195C142.442 115.326 148.892 102.695 150.236 88.989C151.58 75.2829 147.279 61.8455 138.141 51.0956C129.272 40.6144 116.64 33.8957 102.664 32.8207C101.052 32.5519 99.4393 32.5519 98.0955 32.5519Z" fill="#2F80ED"/>
<path d="M166.9 220.138C151.312 220.138 135.724 213.419 124.973 200.788C105.622 177.675 108.579 143.545 131.692 124.195C154.806 104.845 189.477 107.801 208.828 130.913C228.179 154.026 225.222 188.157 202.109 207.507C191.896 215.838 179.264 220.138 166.9 220.138ZM166.9 113.982C155.075 113.982 143.249 118.013 133.305 126.076C111.266 144.351 108.31 177.138 126.855 198.907C145.399 220.675 178.189 223.631 200.227 205.357C222.266 187.082 225.222 154.294 206.678 132.526C196.465 120.163 181.683 113.982 166.9 113.982Z" fill="#2F80ED"/>
<path d="M150.774 229.277C128.466 229.277 107.234 215.571 99.1708 193.534C88.9578 165.315 103.471 134.14 131.96 123.659C145.667 118.553 160.718 119.359 173.887 125.54C187.057 131.722 197.27 142.471 202.108 156.178C212.321 184.396 197.807 215.571 169.318 226.052C163.405 228.202 156.955 229.277 150.774 229.277ZM150.774 123.122C144.861 123.122 138.679 124.197 133.035 126.347C105.89 136.021 91.9142 165.853 101.858 192.727C111.803 219.602 141.636 233.308 168.781 223.633C181.95 218.796 192.432 209.39 198.076 196.759C203.989 184.127 204.526 170.153 199.689 157.253C194.851 144.353 185.444 133.871 172.812 127.959C165.824 124.734 158.299 123.122 150.774 123.122Z" fill="#2F80ED"/>
<path d="M114.221 129.571C106.427 129.571 98.3643 127.958 91.1076 124.465C77.9382 118.283 67.7252 107.533 62.8874 93.8273C57.7809 80.1212 58.5872 65.34 64.7687 52.1714C70.9503 39.0027 81.9697 29.0591 95.6766 23.9529C109.384 19.1154 124.434 19.6529 137.604 25.8341C150.773 32.0153 160.986 42.7652 165.824 56.4713C170.931 70.1775 170.124 84.9586 163.943 98.1272C157.761 111.296 146.742 121.24 133.035 126.346C126.853 128.496 120.403 129.571 114.221 129.571ZM114.221 23.4154C108.309 23.4154 102.127 24.4904 96.4829 26.6403C83.3135 31.4778 72.8317 40.884 67.1876 53.5151C61.0061 65.8775 60.4685 79.8524 65.3063 92.7523C70.144 105.652 79.5508 116.133 92.1827 122.046C104.815 127.958 119.059 128.496 131.96 123.658C145.129 118.821 155.611 109.415 161.255 96.7835C166.899 84.1524 167.705 70.1775 162.868 57.2776C158.03 44.3777 148.623 33.8965 135.991 27.9841C129.272 25.0279 121.747 23.4154 114.221 23.4154Z" fill="#2F80ED"/>
<path d="M132.501 126.343C102.399 126.343 77.6729 101.887 77.6729 72.0558C77.6729 42.2248 102.399 17.5 132.501 17.5C162.603 17.5 187.329 41.956 187.329 71.787C187.329 101.618 162.603 126.343 132.501 126.343ZM132.501 20.1875C103.743 20.1875 80.3605 43.2998 80.3605 72.0558C80.3605 100.812 103.743 123.655 132.501 123.655C161.259 123.655 184.641 100.543 184.641 71.787C184.641 43.031 161.259 20.1875 132.501 20.1875Z" fill="#2F80ED"/>
<path d="M132.501 232.498C102.399 232.498 77.6729 208.042 77.6729 178.211C77.6729 148.38 102.399 123.655 132.501 123.655C162.603 123.655 187.329 148.111 187.329 177.942C187.329 207.773 162.603 232.498 132.501 232.498ZM132.501 126.342C103.743 126.342 80.3605 149.455 80.3605 178.211C80.3605 206.967 103.743 229.81 132.501 229.81C161.259 229.81 184.641 206.698 184.641 177.942C184.641 149.186 161.259 126.342 132.501 126.342Z" fill="#2F80ED"/>
</g>
<defs>
<filter id="filter0_f" x="0.831055" y="0.167725" width="260.229" height="260.229" filterUnits="userSpaceOnUse" color-interpolation-filters="sRGB">
<feFlood flood-opacity="0" result="BackgroundImageFix"/>
<feBlend mode="normal" in="SourceGraphic" in2="BackgroundImageFix" result="shape"/>
<feGaussianBlur stdDeviation="25" result="effect1_foregroundBlur"/>
</filter>
</defs>
</svg>
