<svg width="116" height="103" viewBox="0 0 116 103" fill="none" xmlns="http://www.w3.org/2000/svg">
<g clip-path="url(#clip0)">
<path d="M71.717 66.8534C71.4679 66.8194 71.2142 66.8467 70.978 66.9328C70.7417 67.019 70.5301 67.1614 70.3613 67.3478C70.1896 67.531 70.0636 67.7523 69.9938 67.9934C69.9239 68.2346 69.9121 68.4889 69.9593 68.7355C70.8398 73.3611 73.8034 79.7094 82.9015 83.6619C83.9797 84.1276 85.6449 84.4913 87.7568 84.9475C95.6618 86.6574 108.881 89.522 112.129 101.638C112.183 101.841 112.277 102.03 112.405 102.197C112.533 102.363 112.692 102.502 112.874 102.607C113.056 102.712 113.256 102.78 113.464 102.807C113.672 102.834 113.884 102.82 114.086 102.766C114.289 102.711 114.478 102.617 114.645 102.49C114.811 102.362 114.951 102.202 115.055 102.021C115.16 101.839 115.228 101.638 115.255 101.43C115.282 101.222 115.268 101.011 115.214 100.809C111.459 86.8137 96.4816 83.5694 88.433 81.8276C86.57 81.4224 84.9591 81.0747 84.1711 80.7302C78.7033 78.3568 75.1719 74.8349 73.6407 70.2476C88.8318 71.3769 95.7096 65.3253 96.0127 65.051C96.1995 64.8818 96.3436 64.6707 96.4331 64.435C96.5226 64.1994 96.555 63.9459 96.5276 63.6953C96.5002 63.4447 96.4138 63.2042 96.2755 62.9935C96.1372 62.7827 95.9509 62.6078 95.7319 62.483C86.9656 57.4745 86.9656 40.1684 86.9656 33.651C86.9656 15.4261 74.6902 0.978253 58.9535 0.751758C58.8036 0.746768 58.6537 0.743578 58.5037 0.742188H58.5005C42.5342 0.83151 29.5442 15.2953 29.5442 32.9875C29.5442 39.5048 29.5442 56.8142 20.7779 61.8194C20.5519 61.9507 20.3614 62.1351 20.2229 62.3568C20.0845 62.5784 20.0022 62.8305 19.9834 63.0911C19.9645 63.3518 20.0096 63.6131 20.1147 63.8523C20.2198 64.0916 20.3817 64.3016 20.5865 64.464C21.0267 64.8053 30.7564 72.251 42.7288 69.9892C41.1274 74.3851 37.6438 77.7666 32.3355 80.073C31.5667 80.408 30.0355 80.7749 28.2618 81.1959C20.159 83.1228 5.07312 86.7116 1.29607 100.805C1.24181 101.008 1.22799 101.219 1.25538 101.427C1.28277 101.635 1.35084 101.835 1.45571 102.017C1.66749 102.384 2.01628 102.651 2.42535 102.761C2.83442 102.87 3.27026 102.813 3.637 102.601C4.00373 102.389 4.27131 102.041 4.38087 101.632C7.66346 89.3689 21.0235 86.1948 29.0019 84.2935C31.0021 83.8182 32.5812 83.4418 33.6084 82.9983C42.7065 79.0458 45.6669 72.6976 46.5505 68.072C46.603 67.801 46.5838 67.521 46.4948 67.2597C46.4058 66.9984 46.2502 66.7649 46.0433 66.5822C45.838 66.3979 45.5882 66.2704 45.3185 66.2122C45.0489 66.154 44.7687 66.1672 44.5057 66.2504C35.8701 68.9684 27.8917 65.2296 24.405 63.1561C32.7343 56.1825 32.7343 40.1333 32.7343 32.9875C32.7343 17.0467 44.3015 4.01202 58.6377 3.92589L58.9759 3.94503C73.1143 4.146 83.7755 16.9159 83.7755 33.651C83.7755 40.8 83.7755 56.8844 92.1399 63.8579C89.2593 65.504 82.6909 68.1677 71.717 66.8534Z" fill="#8692A6"/>
</g>
<defs>
<clipPath id="clip0">
<rect width="114.843" height="102.082" fill="white" transform="translate(0.833496 0.73584)"/>
</clipPath>
</defs>
</svg>
