<svg width="103" height="103" viewBox="0 0 103 103" fill="none" xmlns="http://www.w3.org/2000/svg">
<path d="M41.6732 64.264H18.8757C16.3696 64.264 14.333 62.2224 14.333 59.7137V48.4974C14.333 45.9912 16.3721 43.9521 18.8757 43.9521H41.6732C44.1794 43.9521 46.2159 45.9912 46.2159 48.4974V59.7137C46.2159 62.2224 44.1768 64.264 41.6732 64.264V64.264ZM18.8757 46.226C18.2737 46.2267 17.6967 46.4663 17.2713 46.8922C16.8458 47.3181 16.6069 47.8954 16.6069 48.4974V59.7137C16.6069 60.9693 17.6252 61.9901 18.8757 61.9901H41.6732C42.9238 61.9901 43.942 60.9693 43.942 59.7137V48.4974C43.942 47.8954 43.7031 47.3181 43.2777 46.8922C42.8523 46.4663 42.2752 46.2267 41.6732 46.226H18.8757Z" fill="#8692A6"/>
<path d="M41.6732 86.1737H18.8757C16.3696 86.1737 14.333 84.1346 14.333 81.626V70.4147C14.333 67.9086 16.3721 65.8721 18.8757 65.8721H41.6732C44.1794 65.8721 46.2159 67.9086 46.2159 70.4147V81.626C46.2159 84.1346 44.1768 86.1737 41.6732 86.1737V86.1737ZM18.8757 68.146C18.2742 68.1466 17.6975 68.3859 17.2722 68.8112C16.8468 69.2366 16.6076 69.8132 16.6069 70.4147V81.626C16.6069 82.879 17.6252 83.8999 18.8757 83.8999H41.6732C42.9238 83.8999 43.942 82.879 43.942 81.626V70.4147C43.9414 69.8132 43.7021 69.2366 43.2768 68.8112C42.8514 68.3859 42.2748 68.1466 41.6732 68.146H18.8757V68.146Z" fill="#8692A6"/>
<path d="M84.8969 64.264H62.1146C59.6008 64.264 57.5566 62.2224 57.5566 59.7137V48.4974C57.5566 45.9912 59.6008 43.9521 62.1146 43.9521H84.8969C87.4055 43.9521 89.4447 45.9912 89.4447 48.4974V59.7137C89.4447 62.2224 87.4055 64.264 84.8969 64.264ZM62.1146 46.226C61.5111 46.2254 60.9319 46.4641 60.5042 46.8899C60.0765 47.3157 59.8351 47.8938 59.8331 48.4974V59.7137C59.8331 60.9693 60.8565 61.9901 62.1146 61.9901H84.8969C86.1499 61.9901 87.1708 60.9693 87.1708 59.7137V48.4974C87.1708 47.2443 86.1499 46.226 84.8969 46.226H62.1146Z" fill="#8692A6"/>
<path d="M84.8969 86.1737H62.1146C60.9075 86.1737 59.7497 85.6949 58.8952 84.8423C58.0408 83.9898 57.5593 82.833 57.5566 81.626V70.4147C57.5566 67.9086 59.6008 65.8721 62.1146 65.8721H84.8969C87.4055 65.8721 89.4447 67.9086 89.4447 70.4147V81.626C89.4447 84.1346 87.4055 86.1737 84.8969 86.1737ZM62.1146 68.146C61.5115 68.1453 60.9327 68.3837 60.5051 68.8089C60.0774 69.2342 59.8358 69.8116 59.8331 70.4147V81.626C59.8331 82.879 60.8565 83.8999 62.1146 83.8999H84.8969C86.1499 83.8999 87.1708 82.879 87.1708 81.626V70.4147C87.1708 69.1642 86.1499 68.146 84.8969 68.146H62.1146V68.146Z" fill="#8692A6"/>
<path d="M93.633 95.7034H10.1449C9.47326 95.7027 8.82933 95.4354 8.35463 94.9602C7.87993 94.485 7.61328 93.8408 7.61328 93.1692V17.7991C7.61328 16.4057 8.74895 15.27 10.1449 15.27H26.029C26.3308 15.27 26.6203 15.3899 26.8338 15.6034C27.0473 15.8169 27.1672 16.1064 27.1672 16.4082C27.1672 16.7101 27.0473 16.9996 26.8338 17.2131C26.6203 17.4265 26.3308 17.5465 26.029 17.5465H10.1449C10.0777 17.5465 10.0132 17.573 9.96536 17.6203C9.91758 17.6676 9.89039 17.7319 9.88972 17.7991V93.1717C9.88938 93.2055 9.89573 93.2389 9.90841 93.2702C9.92108 93.3014 9.93983 93.3299 9.96356 93.3538C9.98729 93.3778 10.0155 93.3968 10.0467 93.4098C10.0778 93.4228 10.1112 93.4295 10.1449 93.4295H93.633C93.6667 93.4298 93.7002 93.4234 93.7313 93.4105C93.7625 93.3976 93.7907 93.3785 93.8143 93.3545C93.8379 93.3304 93.8564 93.3018 93.8687 93.2704C93.8809 93.239 93.8867 93.2054 93.8857 93.1717V17.7991C93.8857 17.7659 93.8792 17.7331 93.8665 17.7024C93.8538 17.6718 93.8352 17.6439 93.8117 17.6205C93.7882 17.597 93.7604 17.5784 93.7297 17.5657C93.6991 17.553 93.6662 17.5465 93.633 17.5465H78.5606C78.2587 17.5465 77.9692 17.4265 77.7557 17.2131C77.5423 16.9996 77.4224 16.7101 77.4224 16.4082C77.4224 16.1064 77.5423 15.8169 77.7557 15.6034C77.9692 15.3899 78.2587 15.27 78.5606 15.27H93.633C95.0265 15.27 96.1621 16.4057 96.1621 17.7991V93.1717C96.1621 93.8427 95.8958 94.4863 95.4215 94.961C94.9473 95.4357 94.304 95.7027 93.633 95.7034V95.7034Z" fill="#8692A6"/>
<path d="M67.3138 17.5465H36.9341C36.6322 17.5465 36.3427 17.4265 36.1293 17.2131C35.9158 16.9996 35.7959 16.7101 35.7959 16.4082C35.7959 16.1064 35.9158 15.8169 36.1293 15.6034C36.3427 15.3899 36.6322 15.27 36.9341 15.27H67.3138C67.6157 15.27 67.9052 15.3899 68.1187 15.6034C68.3321 15.8169 68.452 16.1064 68.452 16.4082C68.452 16.7101 68.3321 16.9996 68.1187 17.2131C67.9052 17.4265 67.6157 17.5465 67.3138 17.5465V17.5465Z" fill="#8692A6"/>
<path d="M31.7691 25.4349C31.4672 25.4349 31.1777 25.315 30.9642 25.1015C30.7508 24.8881 30.6309 24.5985 30.6309 24.2967V8.98685C30.6309 8.68498 30.7508 8.39547 30.9642 8.18201C31.1777 7.96855 31.4672 7.84863 31.7691 7.84863C32.071 7.84863 32.3605 7.96855 32.5739 8.18201C32.7874 8.39547 32.9073 8.68498 32.9073 8.98685V24.2967C32.9066 24.5983 32.7865 24.8875 32.5732 25.1008C32.3599 25.3141 32.0707 25.4342 31.7691 25.4349V25.4349Z" fill="#8692A6"/>
<path d="M72.9917 25.4349C72.6899 25.4349 72.4004 25.315 72.1869 25.1015C71.9734 24.8881 71.8535 24.5985 71.8535 24.2967V8.98685C71.8535 8.83738 71.883 8.68937 71.9402 8.55127C71.9974 8.41318 72.0812 8.2877 72.1869 8.18201C72.2926 8.07632 72.4181 7.99248 72.5562 7.93527C72.6943 7.87807 72.8423 7.84863 72.9917 7.84863C73.1412 7.84863 73.2892 7.87807 73.4273 7.93527C73.5654 7.99248 73.6909 8.07632 73.7966 8.18201C73.9023 8.2877 73.9861 8.41318 74.0433 8.55127C74.1005 8.68937 74.13 8.83738 74.13 8.98685V24.2967C74.13 24.5985 74.0101 24.8881 73.7966 25.1015C73.5831 25.315 73.2936 25.4349 72.9917 25.4349V25.4349Z" fill="#8692A6"/>
<path d="M95.0243 36.3296H8.75443C8.60496 36.3296 8.45695 36.3002 8.31885 36.243C8.18076 36.1858 8.05528 36.102 7.94959 35.9963C7.84389 35.8906 7.76005 35.7651 7.70285 35.627C7.64565 35.4889 7.61621 35.3409 7.61621 35.1914C7.61621 35.042 7.64565 34.894 7.70285 34.7559C7.76005 34.6178 7.84389 34.4923 7.94959 34.3866C8.05528 34.2809 8.18076 34.1971 8.31885 34.1399C8.45695 34.0827 8.60496 34.0532 8.75443 34.0532H95.0269C95.1764 34.0534 95.3243 34.083 95.4624 34.1404C95.6004 34.1977 95.7258 34.2817 95.8314 34.3875C95.9369 34.4933 96.0206 34.6189 96.0777 34.757C96.1347 34.8952 96.164 35.0432 96.1638 35.1927C96.1637 35.3422 96.1341 35.4902 96.0767 35.6282C96.0193 35.7662 95.9354 35.8916 95.8296 35.9972C95.7238 36.1027 95.5982 36.1864 95.46 36.2435C95.3219 36.3005 95.1738 36.3298 95.0243 36.3296V36.3296Z" fill="#8692A6"/>
</svg>
