<svg width="283" height="283" viewBox="0 0 283 283" fill="none" xmlns="http://www.w3.org/2000/svg">
<rect width="283" height="283" rx="20" fill="#F1F7FF"/>
<path d="M86.792 192.9L82.58 205.5H80.69L77.252 195.438L73.814 205.5H71.888L67.676 192.9H69.53L72.932 203.142L76.478 192.9H78.134L81.608 203.196L85.082 192.9H86.792ZM96.5532 200.784C96.5532 200.916 96.5412 201.09 96.5172 201.306H88.7772C88.8852 202.146 89.2512 202.824 89.8752 203.34C90.5112 203.844 91.2972 204.096 92.2332 204.096C93.3732 204.096 94.2912 203.712 94.9872 202.944L95.9412 204.06C95.5092 204.564 94.9692 204.948 94.3212 205.212C93.6852 205.476 92.9712 205.608 92.1792 205.608C91.1712 205.608 90.2772 205.404 89.4972 204.996C88.7172 204.576 88.1112 203.994 87.6792 203.25C87.2592 202.506 87.0492 201.666 87.0492 200.73C87.0492 199.806 87.2532 198.972 87.6612 198.228C88.0812 197.484 88.6512 196.908 89.3712 196.5C90.1032 196.08 90.9252 195.87 91.8372 195.87C92.7492 195.87 93.5592 196.08 94.2672 196.5C94.9872 196.908 95.5452 197.484 95.9412 198.228C96.3492 198.972 96.5532 199.824 96.5532 200.784ZM91.8372 197.328C91.0092 197.328 90.3132 197.58 89.7492 198.084C89.1972 198.588 88.8732 199.248 88.7772 200.064H94.8972C94.8012 199.26 94.4712 198.606 93.9072 198.102C93.3552 197.586 92.6652 197.328 91.8372 197.328ZM118.043 195.96L114.479 205.5H112.823L110.069 198.264L107.279 205.5H105.623L102.077 195.96H103.715L106.487 203.556L109.367 195.96H110.825L113.651 203.592L116.495 195.96H118.043ZM119.706 195.96H121.434V205.5H119.706V195.96ZM120.57 194.124C120.234 194.124 119.952 194.016 119.724 193.8C119.508 193.584 119.4 193.32 119.4 193.008C119.4 192.696 119.508 192.432 119.724 192.216C119.952 191.988 120.234 191.874 120.57 191.874C120.906 191.874 121.182 191.982 121.398 192.198C121.626 192.402 121.74 192.66 121.74 192.972C121.74 193.296 121.626 193.572 121.398 193.8C121.182 194.016 120.906 194.124 120.57 194.124ZM124.643 192.144H126.371V205.5H124.643V192.144ZM129.581 192.144H131.309V205.5H129.581V192.144ZM147.884 200.784C147.884 200.916 147.872 201.09 147.848 201.306H140.108C140.216 202.146 140.582 202.824 141.206 203.34C141.842 203.844 142.628 204.096 143.564 204.096C144.704 204.096 145.622 203.712 146.318 202.944L147.272 204.06C146.84 204.564 146.3 204.948 145.652 205.212C145.016 205.476 144.302 205.608 143.51 205.608C142.502 205.608 141.608 205.404 140.828 204.996C140.048 204.576 139.442 203.994 139.01 203.25C138.59 202.506 138.38 201.666 138.38 200.73C138.38 199.806 138.584 198.972 138.992 198.228C139.412 197.484 139.982 196.908 140.702 196.5C141.434 196.08 142.256 195.87 143.168 195.87C144.08 195.87 144.89 196.08 145.598 196.5C146.318 196.908 146.876 197.484 147.272 198.228C147.68 198.972 147.884 199.824 147.884 200.784ZM143.168 197.328C142.34 197.328 141.644 197.58 141.08 198.084C140.528 198.588 140.204 199.248 140.108 200.064H146.228C146.132 199.26 145.802 198.606 145.238 198.102C144.686 197.586 143.996 197.328 143.168 197.328ZM162.128 195.87C163.328 195.87 164.276 196.218 164.972 196.914C165.68 197.61 166.034 198.642 166.034 200.01V205.5H164.306V200.208C164.306 199.284 164.09 198.588 163.658 198.12C163.238 197.652 162.632 197.418 161.84 197.418C160.964 197.418 160.268 197.694 159.752 198.246C159.236 198.786 158.978 199.566 158.978 200.586V205.5H157.25V200.208C157.25 199.284 157.034 198.588 156.602 198.12C156.182 197.652 155.576 197.418 154.784 197.418C153.908 197.418 153.212 197.694 152.696 198.246C152.18 198.786 151.922 199.566 151.922 200.586V205.5H150.194V195.96H151.85V197.382C152.198 196.89 152.654 196.518 153.218 196.266C153.782 196.002 154.424 195.87 155.144 195.87C155.888 195.87 156.548 196.02 157.124 196.32C157.7 196.62 158.144 197.058 158.456 197.634C158.816 197.082 159.314 196.65 159.95 196.338C160.598 196.026 161.324 195.87 162.128 195.87ZM172.597 195.87C173.917 195.87 174.925 196.194 175.621 196.842C176.329 197.49 176.683 198.456 176.683 199.74V205.5H175.045V204.24C174.757 204.684 174.343 205.026 173.803 205.266C173.275 205.494 172.645 205.608 171.913 205.608C170.845 205.608 169.987 205.35 169.339 204.834C168.703 204.318 168.385 203.64 168.385 202.8C168.385 201.96 168.691 201.288 169.303 200.784C169.915 200.268 170.887 200.01 172.219 200.01H174.955V199.668C174.955 198.924 174.739 198.354 174.307 197.958C173.875 197.562 173.239 197.364 172.399 197.364C171.835 197.364 171.283 197.46 170.743 197.652C170.203 197.832 169.747 198.078 169.375 198.39L168.655 197.094C169.147 196.698 169.735 196.398 170.419 196.194C171.103 195.978 171.829 195.87 172.597 195.87ZM172.201 204.276C172.861 204.276 173.431 204.132 173.911 203.844C174.391 203.544 174.739 203.124 174.955 202.584V201.252H172.291C170.827 201.252 170.095 201.744 170.095 202.728C170.095 203.208 170.281 203.586 170.653 203.862C171.025 204.138 171.541 204.276 172.201 204.276ZM179.791 195.96H181.519V205.5H179.791V195.96ZM180.655 194.124C180.319 194.124 180.037 194.016 179.809 193.8C179.593 193.584 179.485 193.32 179.485 193.008C179.485 192.696 179.593 192.432 179.809 192.216C180.037 191.988 180.319 191.874 180.655 191.874C180.991 191.874 181.267 191.982 181.483 192.198C181.711 192.402 181.825 192.66 181.825 192.972C181.825 193.296 181.711 193.572 181.483 193.8C181.267 194.016 180.991 194.124 180.655 194.124ZM184.728 192.144H186.456V205.5H184.728V192.144ZM202.852 195.96L198.226 206.454C197.818 207.426 197.338 208.11 196.786 208.506C196.246 208.902 195.592 209.1 194.824 209.1C194.356 209.1 193.9 209.022 193.456 208.866C193.024 208.722 192.664 208.506 192.376 208.218L193.114 206.922C193.606 207.39 194.176 207.624 194.824 207.624C195.244 207.624 195.592 207.51 195.868 207.282C196.156 207.066 196.414 206.688 196.642 206.148L196.948 205.482L192.736 195.96H194.536L197.866 203.592L201.16 195.96H202.852ZM208.197 205.608C207.249 205.608 206.397 205.398 205.641 204.978C204.885 204.558 204.291 203.982 203.859 203.25C203.439 202.506 203.229 201.666 203.229 200.73C203.229 199.794 203.439 198.96 203.859 198.228C204.291 197.484 204.885 196.908 205.641 196.5C206.397 196.08 207.249 195.87 208.197 195.87C209.145 195.87 209.991 196.08 210.735 196.5C211.491 196.908 212.079 197.484 212.499 198.228C212.931 198.96 213.147 199.794 213.147 200.73C213.147 201.666 212.931 202.506 212.499 203.25C212.079 203.982 211.491 204.558 210.735 204.978C209.991 205.398 209.145 205.608 208.197 205.608ZM208.197 204.096C208.809 204.096 209.355 203.958 209.835 203.682C210.327 203.394 210.711 202.998 210.987 202.494C211.263 201.978 211.401 201.39 211.401 200.73C211.401 200.07 211.263 199.488 210.987 198.984C210.711 198.468 210.327 198.072 209.835 197.796C209.355 197.52 208.809 197.382 208.197 197.382C207.585 197.382 207.033 197.52 206.541 197.796C206.061 198.072 205.677 198.468 205.389 198.984C205.113 199.488 204.975 200.07 204.975 200.73C204.975 201.39 205.113 201.978 205.389 202.494C205.677 202.998 206.061 203.394 206.541 203.682C207.033 203.958 207.585 204.096 208.197 204.096ZM224.338 195.96V205.5H222.7V204.06C222.352 204.552 221.89 204.936 221.314 205.212C220.75 205.476 220.132 205.608 219.46 205.608C218.188 205.608 217.186 205.26 216.454 204.564C215.722 203.856 215.356 202.818 215.356 201.45V195.96H217.084V201.252C217.084 202.176 217.306 202.878 217.75 203.358C218.194 203.826 218.83 204.06 219.658 204.06C220.57 204.06 221.29 203.784 221.818 203.232C222.346 202.68 222.61 201.9 222.61 200.892V195.96H224.338ZM54.6761 222.96V232.5H53.0381V231.06C52.6901 231.552 52.2281 231.936 51.6521 232.212C51.0881 232.476 50.4701 232.608 49.7981 232.608C48.5261 232.608 47.5241 232.26 46.7921 231.564C46.0601 230.856 45.6941 229.818 45.6941 228.45V222.96H47.4221V228.252C47.4221 229.176 47.6441 229.878 48.0881 230.358C48.5321 230.826 49.1681 231.06 49.9961 231.06C50.9081 231.06 51.6281 230.784 52.1561 230.232C52.6841 229.68 52.9481 228.9 52.9481 227.892V222.96H54.6761ZM62.9337 222.87C63.8577 222.87 64.6857 223.074 65.4177 223.482C66.1497 223.89 66.7197 224.46 67.1277 225.192C67.5477 225.924 67.7577 226.77 67.7577 227.73C67.7577 228.69 67.5477 229.542 67.1277 230.286C66.7197 231.018 66.1497 231.588 65.4177 231.996C64.6857 232.404 63.8577 232.608 62.9337 232.608C62.2497 232.608 61.6197 232.476 61.0437 232.212C60.4797 231.948 59.9997 231.564 59.6037 231.06V235.992H57.8757V222.96H59.5317V224.472C59.9157 223.944 60.4017 223.548 60.9897 223.284C61.5777 223.008 62.2257 222.87 62.9337 222.87ZM62.7897 231.096C63.4017 231.096 63.9477 230.958 64.4277 230.682C64.9197 230.394 65.3037 229.998 65.5797 229.494C65.8677 228.978 66.0117 228.39 66.0117 227.73C66.0117 227.07 65.8677 226.488 65.5797 225.984C65.3037 225.468 64.9197 225.072 64.4277 224.796C63.9477 224.52 63.4017 224.382 62.7897 224.382C62.1897 224.382 61.6437 224.526 61.1517 224.814C60.6717 225.09 60.2877 225.48 59.9997 225.984C59.7237 226.488 59.5857 227.07 59.5857 227.73C59.5857 228.39 59.7237 228.978 59.9997 229.494C60.2757 229.998 60.6597 230.394 61.1517 230.682C61.6437 230.958 62.1897 231.096 62.7897 231.096ZM79.0553 219.144V232.5H77.3993V230.988C77.0153 231.516 76.5293 231.918 75.9413 232.194C75.3533 232.47 74.7053 232.608 73.9973 232.608C73.0733 232.608 72.2453 232.404 71.5133 231.996C70.7813 231.588 70.2053 231.018 69.7853 230.286C69.3773 229.542 69.1733 228.69 69.1733 227.73C69.1733 226.77 69.3773 225.924 69.7853 225.192C70.2053 224.46 70.7813 223.89 71.5133 223.482C72.2453 223.074 73.0733 222.87 73.9973 222.87C74.6813 222.87 75.3113 223.002 75.8873 223.266C76.4633 223.518 76.9433 223.896 77.3273 224.4V219.144H79.0553ZM74.1413 231.096C74.7413 231.096 75.2873 230.958 75.7793 230.682C76.2713 230.394 76.6553 229.998 76.9313 229.494C77.2073 228.978 77.3453 228.39 77.3453 227.73C77.3453 227.07 77.2073 226.488 76.9313 225.984C76.6553 225.468 76.2713 225.072 75.7793 224.796C75.2873 224.52 74.7413 224.382 74.1413 224.382C73.5293 224.382 72.9773 224.52 72.4853 224.796C72.0053 225.072 71.6213 225.468 71.3333 225.984C71.0573 226.488 70.9193 227.07 70.9193 227.73C70.9193 228.39 71.0573 228.978 71.3333 229.494C71.6213 229.998 72.0053 230.394 72.4853 230.682C72.9773 230.958 73.5293 231.096 74.1413 231.096ZM85.7088 222.87C87.0288 222.87 88.0368 223.194 88.7328 223.842C89.4408 224.49 89.7948 225.456 89.7948 226.74V232.5H88.1568V231.24C87.8688 231.684 87.4548 232.026 86.9148 232.266C86.3868 232.494 85.7568 232.608 85.0248 232.608C83.9568 232.608 83.0988 232.35 82.4508 231.834C81.8148 231.318 81.4968 230.64 81.4968 229.8C81.4968 228.96 81.8028 228.288 82.4148 227.784C83.0268 227.268 83.9988 227.01 85.3308 227.01H88.0668V226.668C88.0668 225.924 87.8508 225.354 87.4188 224.958C86.9868 224.562 86.3508 224.364 85.5108 224.364C84.9468 224.364 84.3948 224.46 83.8548 224.652C83.3148 224.832 82.8588 225.078 82.4868 225.39L81.7668 224.094C82.2588 223.698 82.8468 223.398 83.5308 223.194C84.2148 222.978 84.9408 222.87 85.7088 222.87ZM85.3128 231.276C85.9728 231.276 86.5428 231.132 87.0228 230.844C87.5028 230.544 87.8508 230.124 88.0668 229.584V228.252H85.4028C83.9388 228.252 83.2068 228.744 83.2068 229.728C83.2068 230.208 83.3928 230.586 83.7648 230.862C84.1368 231.138 84.6528 231.276 85.3128 231.276ZM98.2666 231.942C98.0146 232.158 97.7026 232.326 97.3306 232.446C96.9586 232.554 96.5746 232.608 96.1786 232.608C95.2186 232.608 94.4746 232.35 93.9466 231.834C93.4186 231.318 93.1546 230.58 93.1546 229.62V224.382H91.5346V222.96H93.1546V220.872H94.8826V222.96H97.6186V224.382H94.8826V229.548C94.8826 230.064 95.0086 230.46 95.2606 230.736C95.5246 231.012 95.8966 231.15 96.3766 231.15C96.9046 231.15 97.3546 231 97.7266 230.7L98.2666 231.942ZM108.571 227.784C108.571 227.916 108.559 228.09 108.535 228.306H100.795C100.903 229.146 101.269 229.824 101.893 230.34C102.529 230.844 103.315 231.096 104.251 231.096C105.391 231.096 106.309 230.712 107.005 229.944L107.959 231.06C107.527 231.564 106.987 231.948 106.339 232.212C105.703 232.476 104.989 232.608 104.197 232.608C103.189 232.608 102.295 232.404 101.515 231.996C100.735 231.576 100.129 230.994 99.6973 230.25C99.2773 229.506 99.0673 228.666 99.0673 227.73C99.0673 226.806 99.2713 225.972 99.6793 225.228C100.099 224.484 100.669 223.908 101.389 223.5C102.121 223.08 102.943 222.87 103.855 222.87C104.767 222.87 105.577 223.08 106.285 223.5C107.005 223.908 107.563 224.484 107.959 225.228C108.367 225.972 108.571 226.824 108.571 227.784ZM103.855 224.328C103.027 224.328 102.331 224.58 101.767 225.084C101.215 225.588 100.891 226.248 100.795 227.064H106.915C106.819 226.26 106.489 225.606 105.925 225.102C105.373 224.586 104.683 224.328 103.855 224.328ZM113.617 232.608C112.837 232.608 112.087 232.506 111.367 232.302C110.647 232.086 110.083 231.816 109.675 231.492L110.395 230.124C110.815 230.424 111.325 230.664 111.925 230.844C112.525 231.024 113.131 231.114 113.743 231.114C115.255 231.114 116.011 230.682 116.011 229.818C116.011 229.53 115.909 229.302 115.705 229.134C115.501 228.966 115.243 228.846 114.931 228.774C114.631 228.69 114.199 228.6 113.635 228.504C112.867 228.384 112.237 228.246 111.745 228.09C111.265 227.934 110.851 227.67 110.503 227.298C110.155 226.926 109.981 226.404 109.981 225.732C109.981 224.868 110.341 224.178 111.061 223.662C111.781 223.134 112.747 222.87 113.959 222.87C114.595 222.87 115.231 222.948 115.867 223.104C116.503 223.26 117.025 223.47 117.433 223.734L116.695 225.102C115.915 224.598 114.997 224.346 113.941 224.346C113.209 224.346 112.651 224.466 112.267 224.706C111.883 224.946 111.691 225.264 111.691 225.66C111.691 225.972 111.799 226.218 112.015 226.398C112.231 226.578 112.495 226.71 112.807 226.794C113.131 226.878 113.581 226.974 114.157 227.082C114.925 227.214 115.543 227.358 116.011 227.514C116.491 227.658 116.899 227.91 117.235 228.27C117.571 228.63 117.739 229.134 117.739 229.782C117.739 230.646 117.367 231.336 116.623 231.852C115.891 232.356 114.889 232.608 113.617 232.608ZM128.638 232.608C127.69 232.608 126.838 232.398 126.082 231.978C125.326 231.558 124.732 230.982 124.3 230.25C123.88 229.506 123.67 228.666 123.67 227.73C123.67 226.794 123.88 225.96 124.3 225.228C124.732 224.484 125.326 223.908 126.082 223.5C126.838 223.08 127.69 222.87 128.638 222.87C129.586 222.87 130.432 223.08 131.176 223.5C131.932 223.908 132.52 224.484 132.94 225.228C133.372 225.96 133.588 226.794 133.588 227.73C133.588 228.666 133.372 229.506 132.94 230.25C132.52 230.982 131.932 231.558 131.176 231.978C130.432 232.398 129.586 232.608 128.638 232.608ZM128.638 231.096C129.25 231.096 129.796 230.958 130.276 230.682C130.768 230.394 131.152 229.998 131.428 229.494C131.704 228.978 131.842 228.39 131.842 227.73C131.842 227.07 131.704 226.488 131.428 225.984C131.152 225.468 130.768 225.072 130.276 224.796C129.796 224.52 129.25 224.382 128.638 224.382C128.026 224.382 127.474 224.52 126.982 224.796C126.502 225.072 126.118 225.468 125.83 225.984C125.554 226.488 125.416 227.07 125.416 227.73C125.416 228.39 125.554 228.978 125.83 229.494C126.118 229.998 126.502 230.394 126.982 230.682C127.474 230.958 128.026 231.096 128.638 231.096ZM140.982 222.87C142.194 222.87 143.154 223.224 143.862 223.932C144.582 224.628 144.942 225.654 144.942 227.01V232.5H143.214V227.208C143.214 226.284 142.992 225.588 142.548 225.12C142.104 224.652 141.468 224.418 140.64 224.418C139.704 224.418 138.966 224.694 138.426 225.246C137.886 225.786 137.616 226.566 137.616 227.586V232.5H135.888V222.96H137.544V224.4C137.892 223.908 138.36 223.53 138.948 223.266C139.548 223.002 140.226 222.87 140.982 222.87ZM156.88 232.608C155.932 232.608 155.08 232.398 154.324 231.978C153.568 231.558 152.974 230.982 152.542 230.25C152.122 229.506 151.912 228.666 151.912 227.73C151.912 226.794 152.122 225.96 152.542 225.228C152.974 224.484 153.568 223.908 154.324 223.5C155.08 223.08 155.932 222.87 156.88 222.87C157.828 222.87 158.674 223.08 159.418 223.5C160.174 223.908 160.762 224.484 161.182 225.228C161.614 225.96 161.83 226.794 161.83 227.73C161.83 228.666 161.614 229.506 161.182 230.25C160.762 230.982 160.174 231.558 159.418 231.978C158.674 232.398 157.828 232.608 156.88 232.608ZM156.88 231.096C157.492 231.096 158.038 230.958 158.518 230.682C159.01 230.394 159.394 229.998 159.67 229.494C159.946 228.978 160.084 228.39 160.084 227.73C160.084 227.07 159.946 226.488 159.67 225.984C159.394 225.468 159.01 225.072 158.518 224.796C158.038 224.52 157.492 224.382 156.88 224.382C156.268 224.382 155.716 224.52 155.224 224.796C154.744 225.072 154.36 225.468 154.072 225.984C153.796 226.488 153.658 227.07 153.658 227.73C153.658 228.39 153.796 228.978 154.072 229.494C154.36 229.998 154.744 230.394 155.224 230.682C155.716 230.958 156.268 231.096 156.88 231.096ZM173.022 222.96V232.5H171.384V231.06C171.036 231.552 170.574 231.936 169.998 232.212C169.434 232.476 168.816 232.608 168.144 232.608C166.872 232.608 165.87 232.26 165.138 231.564C164.406 230.856 164.04 229.818 164.04 228.45V222.96H165.768V228.252C165.768 229.176 165.99 229.878 166.434 230.358C166.878 230.826 167.514 231.06 168.342 231.06C169.254 231.06 169.974 230.784 170.502 230.232C171.03 229.68 171.294 228.9 171.294 227.892V222.96H173.022ZM177.878 224.562C178.178 224.01 178.622 223.59 179.21 223.302C179.798 223.014 180.512 222.87 181.352 222.87V224.544C181.256 224.532 181.124 224.526 180.956 224.526C180.02 224.526 179.282 224.808 178.742 225.372C178.214 225.924 177.95 226.716 177.95 227.748V232.5H176.222V222.96H177.878V224.562ZM188.258 219.144H189.986V232.5H188.258V219.144ZM196.67 222.87C197.99 222.87 198.998 223.194 199.694 223.842C200.402 224.49 200.756 225.456 200.756 226.74V232.5H199.118V231.24C198.83 231.684 198.416 232.026 197.876 232.266C197.348 232.494 196.718 232.608 195.986 232.608C194.918 232.608 194.06 232.35 193.412 231.834C192.776 231.318 192.458 230.64 192.458 229.8C192.458 228.96 192.764 228.288 193.376 227.784C193.988 227.268 194.96 227.01 196.292 227.01H199.028V226.668C199.028 225.924 198.812 225.354 198.38 224.958C197.948 224.562 197.312 224.364 196.472 224.364C195.908 224.364 195.356 224.46 194.816 224.652C194.276 224.832 193.82 225.078 193.448 225.39L192.728 224.094C193.22 223.698 193.808 223.398 194.492 223.194C195.176 222.978 195.902 222.87 196.67 222.87ZM196.274 231.276C196.934 231.276 197.504 231.132 197.984 230.844C198.464 230.544 198.812 230.124 199.028 229.584V228.252H196.364C194.9 228.252 194.168 228.744 194.168 229.728C194.168 230.208 194.354 230.586 194.726 230.862C195.098 231.138 195.614 231.276 196.274 231.276ZM212.755 222.96V232.5H211.117V231.06C210.769 231.552 210.307 231.936 209.731 232.212C209.167 232.476 208.549 232.608 207.877 232.608C206.605 232.608 205.603 232.26 204.871 231.564C204.139 230.856 203.773 229.818 203.773 228.45V222.96H205.501V228.252C205.501 229.176 205.723 229.878 206.167 230.358C206.611 230.826 207.247 231.06 208.075 231.06C208.987 231.06 209.707 230.784 210.235 230.232C210.763 229.68 211.027 228.9 211.027 227.892V222.96H212.755ZM221.049 222.87C222.261 222.87 223.221 223.224 223.929 223.932C224.649 224.628 225.009 225.654 225.009 227.01V232.5H223.281V227.208C223.281 226.284 223.059 225.588 222.615 225.12C222.171 224.652 221.535 224.418 220.707 224.418C219.771 224.418 219.033 224.694 218.493 225.246C217.953 225.786 217.683 226.566 217.683 227.586V232.5H215.955V222.96H217.611V224.4C217.959 223.908 218.427 223.53 219.015 223.266C219.615 223.002 220.293 222.87 221.049 222.87ZM232.328 232.608C231.356 232.608 230.486 232.398 229.718 231.978C228.962 231.558 228.368 230.982 227.936 230.25C227.504 229.506 227.288 228.666 227.288 227.73C227.288 226.794 227.504 225.96 227.936 225.228C228.368 224.484 228.962 223.908 229.718 223.5C230.486 223.08 231.356 222.87 232.328 222.87C233.192 222.87 233.96 223.044 234.632 223.392C235.316 223.74 235.844 224.244 236.216 224.904L234.902 225.75C234.602 225.294 234.23 224.952 233.786 224.724C233.342 224.496 232.85 224.382 232.31 224.382C231.686 224.382 231.122 224.52 230.618 224.796C230.126 225.072 229.736 225.468 229.448 225.984C229.172 226.488 229.034 227.07 229.034 227.73C229.034 228.402 229.172 228.996 229.448 229.512C229.736 230.016 230.126 230.406 230.618 230.682C231.122 230.958 231.686 231.096 232.31 231.096C232.85 231.096 233.342 230.982 233.786 230.754C234.23 230.526 234.602 230.184 234.902 229.728L236.216 230.556C235.844 231.216 235.316 231.726 234.632 232.086C233.96 232.434 233.192 232.608 232.328 232.608ZM243.334 222.87C244.546 222.87 245.506 223.224 246.214 223.932C246.934 224.628 247.294 225.654 247.294 227.01V232.5H245.566V227.208C245.566 226.284 245.344 225.588 244.9 225.12C244.456 224.652 243.82 224.418 242.992 224.418C242.056 224.418 241.318 224.694 240.778 225.246C240.238 225.786 239.968 226.566 239.968 227.586V232.5H238.24V219.144H239.968V224.31C240.328 223.854 240.796 223.5 241.372 223.248C241.96 222.996 242.614 222.87 243.334 222.87Z" fill="#8692A6"/>
<path d="M142.117 125.25H150.683V133.817H142.117V125.25ZM142.117 90.9834H150.683V116.683H142.117V90.9834Z" fill="#8692A6"/>
<path d="M167.817 65.326L124.984 65.2832C120.272 65.2832 116.417 69.1382 116.417 73.8499V150.95C116.417 155.662 120.272 159.517 124.984 159.517H167.817C172.529 159.517 176.384 155.662 176.384 150.95V73.8499C176.384 69.1382 172.529 65.326 167.817 65.326ZM167.817 150.95H124.984V146.667H167.817V150.95ZM167.817 138.1H124.984V86.6999H167.817V138.1ZM167.817 78.1332H124.984V73.8499H167.817V78.1332Z" fill="#8692A6"/>
</svg>
