<svg width="103" height="103" viewBox="0 0 103 103" fill="none" xmlns="http://www.w3.org/2000/svg">
<path d="M47.1162 64.2501H55.6829V72.8167H47.1162V64.2501ZM47.1162 29.9834H55.6829V55.6834H47.1162V29.9834Z" fill="url(#paint0_linear)"/>
<path d="M72.817 4.32604L29.9837 4.2832C25.272 4.2832 21.417 8.1382 21.417 12.8499V89.9499C21.417 94.6615 25.272 98.5165 29.9837 98.5165H72.817C77.5286 98.5165 81.3836 94.6615 81.3836 89.9499V12.8499C81.3836 8.1382 77.5286 4.32604 72.817 4.32604ZM72.817 89.9499H29.9837V85.6665H72.817V89.9499ZM72.817 77.0999H29.9837V25.6999H72.817V77.0999ZM72.817 17.1332H29.9837V12.8499H72.817V17.1332Z" fill="url(#paint1_linear)"/>
<defs>
<linearGradient id="paint0_linear" x1="51.3995" y1="29.9834" x2="51.3995" y2="72.8167" gradientUnits="userSpaceOnUse">
<stop stop-color="#2F80ED"/>
<stop offset="1" stop-color="#C2CFE0"/>
</linearGradient>
<linearGradient id="paint1_linear" x1="51.4003" y1="4.2832" x2="51.4003" y2="98.5165" gradientUnits="userSpaceOnUse">
<stop stop-color="#2F80ED"/>
<stop offset="1" stop-color="#C2CFE0"/>
</linearGradient>
</defs>
</svg>
