<svg width="116" height="103" viewBox="0 0 116 103" fill="none" xmlns="http://www.w3.org/2000/svg">
<path d="M94.5 12H21.1875C19.4244 12 18 13.4244 18 15.1875V88.5C18 90.2631 19.4244 91.6875 21.1875 91.6875H94.5C96.2631 91.6875 97.6875 90.2631 97.6875 88.5V15.1875C97.6875 13.4244 96.2631 12 94.5 12ZM90.5156 84.5156H25.1719V19.1719H90.5156V84.5156ZM55.8516 40.6875H74.1797C74.618 40.6875 74.9766 40.3289 74.9766 39.8906V35.1094C74.9766 34.6711 74.618 34.3125 74.1797 34.3125H55.8516C55.4133 34.3125 55.0547 34.6711 55.0547 35.1094V39.8906C55.0547 40.3289 55.4133 40.6875 55.8516 40.6875ZM55.8516 55.0312H74.1797C74.618 55.0312 74.9766 54.6727 74.9766 54.2344V49.4531C74.9766 49.0148 74.618 48.6562 74.1797 48.6562H55.8516C55.4133 48.6562 55.0547 49.0148 55.0547 49.4531V54.2344C55.0547 54.6727 55.4133 55.0312 55.8516 55.0312ZM55.8516 69.375H74.1797C74.618 69.375 74.9766 69.0164 74.9766 68.5781V63.7969C74.9766 63.3586 74.618 63 74.1797 63H55.8516C55.4133 63 55.0547 63.3586 55.0547 63.7969V68.5781C55.0547 69.0164 55.4133 69.375 55.8516 69.375ZM40.7109 37.5C40.7109 38.5567 41.1307 39.5702 41.8779 40.3174C42.6251 41.0646 43.6386 41.4844 44.6953 41.4844C45.752 41.4844 46.7655 41.0646 47.5127 40.3174C48.2599 39.5702 48.6797 38.5567 48.6797 37.5C48.6797 36.4433 48.2599 35.4298 47.5127 34.6826C46.7655 33.9354 45.752 33.5156 44.6953 33.5156C43.6386 33.5156 42.6251 33.9354 41.8779 34.6826C41.1307 35.4298 40.7109 36.4433 40.7109 37.5V37.5ZM40.7109 51.8438C40.7109 52.9005 41.1307 53.9139 41.8779 54.6611C42.6251 55.4083 43.6386 55.8281 44.6953 55.8281C45.752 55.8281 46.7655 55.4083 47.5127 54.6611C48.2599 53.9139 48.6797 52.9005 48.6797 51.8438C48.6797 50.787 48.2599 49.7736 47.5127 49.0264C46.7655 48.2792 45.752 47.8594 44.6953 47.8594C43.6386 47.8594 42.6251 48.2792 41.8779 49.0264C41.1307 49.7736 40.7109 50.787 40.7109 51.8438ZM40.7109 66.1875C40.7109 67.2442 41.1307 68.2577 41.8779 69.0049C42.6251 69.7521 43.6386 70.1719 44.6953 70.1719C45.752 70.1719 46.7655 69.7521 47.5127 69.0049C48.2599 68.2577 48.6797 67.2442 48.6797 66.1875C48.6797 65.1308 48.2599 64.1173 47.5127 63.3701C46.7655 62.6229 45.752 62.2031 44.6953 62.2031C43.6386 62.2031 42.6251 62.6229 41.8779 63.3701C41.1307 64.1173 40.7109 65.1308 40.7109 66.1875V66.1875Z" fill="url(#paint0_linear)"/>
<defs>
<linearGradient id="paint0_linear" x1="57.8438" y1="12" x2="57.8438" y2="91.6875" gradientUnits="userSpaceOnUse">
<stop stop-color="#2F80ED"/>
<stop offset="1" stop-color="#C2CFE0"/>
</linearGradient>
</defs>
</svg>
