<svg width="283" height="283" viewBox="0 0 283 283" fill="none" xmlns="http://www.w3.org/2000/svg">
<path d="M0 20C0 8.95431 8.95431 0 20 0H263C274.046 0 283 8.95431 283 20V263C283 274.046 274.046 283 263 283H20C8.95431 283 0 274.046 0 263V20Z" fill="#F1F7FF"/>
<path d="M35.8902 188.9H37.6902V201.5H35.8902V188.9ZM46.2144 191.87C47.4264 191.87 48.3864 192.224 49.0944 192.932C49.8144 193.628 50.1744 194.654 50.1744 196.01V201.5H48.4464V196.208C48.4464 195.284 48.2244 194.588 47.7804 194.12C47.3364 193.652 46.7004 193.418 45.8724 193.418C44.9364 193.418 44.1984 193.694 43.6584 194.246C43.1184 194.786 42.8484 195.566 42.8484 196.586V201.5H41.1204V191.96H42.7764V193.4C43.1244 192.908 43.5924 192.53 44.1804 192.266C44.7804 192.002 45.4584 191.87 46.2144 191.87ZM61.5486 191.96L57.3726 201.5H55.6086L51.4326 191.96H53.2326L56.5086 199.61L59.8566 191.96H61.5486ZM63.0713 191.96H64.7993V201.5H63.0713V191.96ZM63.9353 190.124C63.5993 190.124 63.3173 190.016 63.0893 189.8C62.8733 189.584 62.7653 189.32 62.7653 189.008C62.7653 188.696 62.8733 188.432 63.0893 188.216C63.3173 187.988 63.5993 187.874 63.9353 187.874C64.2713 187.874 64.5473 187.982 64.7633 188.198C64.9913 188.402 65.1053 188.66 65.1053 188.972C65.1053 189.296 64.9913 189.572 64.7633 189.8C64.5473 190.016 64.2713 190.124 63.9353 190.124ZM73.3726 200.942C73.1206 201.158 72.8086 201.326 72.4366 201.446C72.0646 201.554 71.6806 201.608 71.2846 201.608C70.3246 201.608 69.5806 201.35 69.0526 200.834C68.5246 200.318 68.2606 199.58 68.2606 198.62V193.382H66.6406V191.96H68.2606V189.872H69.9886V191.96H72.7246V193.382H69.9886V198.548C69.9886 199.064 70.1146 199.46 70.3666 199.736C70.6306 200.012 71.0026 200.15 71.4826 200.15C72.0106 200.15 72.4606 200 72.8326 199.7L73.3726 200.942ZM83.6773 196.784C83.6773 196.916 83.6653 197.09 83.6413 197.306H75.9013C76.0093 198.146 76.3753 198.824 76.9993 199.34C77.6353 199.844 78.4213 200.096 79.3573 200.096C80.4973 200.096 81.4153 199.712 82.1113 198.944L83.0653 200.06C82.6333 200.564 82.0933 200.948 81.4453 201.212C80.8093 201.476 80.0953 201.608 79.3033 201.608C78.2953 201.608 77.4013 201.404 76.6213 200.996C75.8413 200.576 75.2353 199.994 74.8033 199.25C74.3833 198.506 74.1733 197.666 74.1733 196.73C74.1733 195.806 74.3773 194.972 74.7853 194.228C75.2053 193.484 75.7753 192.908 76.4953 192.5C77.2273 192.08 78.0493 191.87 78.9613 191.87C79.8733 191.87 80.6833 192.08 81.3913 192.5C82.1113 192.908 82.6693 193.484 83.0653 194.228C83.4733 194.972 83.6773 195.824 83.6773 196.784ZM78.9613 193.328C78.1333 193.328 77.4373 193.58 76.8733 194.084C76.3213 194.588 75.9973 195.248 75.9013 196.064H82.0213C81.9253 195.26 81.5953 194.606 81.0313 194.102C80.4793 193.586 79.7893 193.328 78.9613 193.328ZM94.2228 189.458C93.1908 189.458 92.6748 190.016 92.6748 191.132V191.96H95.4468V193.382H92.7108V201.5H90.9828V193.382H89.3628V191.96H90.9828V191.114C90.9828 190.166 91.2588 189.416 91.8108 188.864C92.3628 188.312 93.1368 188.036 94.1328 188.036C94.5168 188.036 94.8768 188.084 95.2128 188.18C95.5488 188.276 95.8368 188.414 96.0768 188.594L95.5548 189.908C95.1588 189.608 94.7148 189.458 94.2228 189.458ZM100.084 193.562C100.384 193.01 100.828 192.59 101.416 192.302C102.004 192.014 102.718 191.87 103.558 191.87V193.544C103.462 193.532 103.33 193.526 103.162 193.526C102.226 193.526 101.488 193.808 100.948 194.372C100.42 194.924 100.156 195.716 100.156 196.748V201.5H98.4279V191.96H100.084V193.562ZM105.598 191.96H107.326V201.5H105.598V191.96ZM106.462 190.124C106.126 190.124 105.844 190.016 105.616 189.8C105.4 189.584 105.292 189.32 105.292 189.008C105.292 188.696 105.4 188.432 105.616 188.216C105.844 187.988 106.126 187.874 106.462 187.874C106.798 187.874 107.074 187.982 107.29 188.198C107.518 188.402 107.632 188.66 107.632 188.972C107.632 189.296 107.518 189.572 107.29 189.8C107.074 190.016 106.798 190.124 106.462 190.124ZM119.157 196.784C119.157 196.916 119.145 197.09 119.121 197.306H111.381C111.489 198.146 111.855 198.824 112.479 199.34C113.115 199.844 113.901 200.096 114.837 200.096C115.977 200.096 116.895 199.712 117.591 198.944L118.545 200.06C118.113 200.564 117.573 200.948 116.925 201.212C116.289 201.476 115.575 201.608 114.783 201.608C113.775 201.608 112.881 201.404 112.101 200.996C111.321 200.576 110.715 199.994 110.283 199.25C109.863 198.506 109.653 197.666 109.653 196.73C109.653 195.806 109.857 194.972 110.265 194.228C110.685 193.484 111.255 192.908 111.975 192.5C112.707 192.08 113.529 191.87 114.441 191.87C115.353 191.87 116.163 192.08 116.871 192.5C117.591 192.908 118.149 193.484 118.545 194.228C118.953 194.972 119.157 195.824 119.157 196.784ZM114.441 193.328C113.613 193.328 112.917 193.58 112.353 194.084C111.801 194.588 111.477 195.248 111.381 196.064H117.501C117.405 195.26 117.075 194.606 116.511 194.102C115.959 193.586 115.269 193.328 114.441 193.328ZM126.561 191.87C127.773 191.87 128.733 192.224 129.441 192.932C130.161 193.628 130.521 194.654 130.521 196.01V201.5H128.793V196.208C128.793 195.284 128.571 194.588 128.127 194.12C127.683 193.652 127.047 193.418 126.219 193.418C125.283 193.418 124.545 193.694 124.005 194.246C123.465 194.786 123.195 195.566 123.195 196.586V201.5H121.467V191.96H123.123V193.4C123.471 192.908 123.939 192.53 124.527 192.266C125.127 192.002 125.805 191.87 126.561 191.87ZM142.681 188.144V201.5H141.025V199.988C140.641 200.516 140.155 200.918 139.567 201.194C138.979 201.47 138.331 201.608 137.623 201.608C136.699 201.608 135.871 201.404 135.139 200.996C134.407 200.588 133.831 200.018 133.411 199.286C133.003 198.542 132.799 197.69 132.799 196.73C132.799 195.77 133.003 194.924 133.411 194.192C133.831 193.46 134.407 192.89 135.139 192.482C135.871 192.074 136.699 191.87 137.623 191.87C138.307 191.87 138.937 192.002 139.513 192.266C140.089 192.518 140.569 192.896 140.953 193.4V188.144H142.681ZM137.767 200.096C138.367 200.096 138.913 199.958 139.405 199.682C139.897 199.394 140.281 198.998 140.557 198.494C140.833 197.978 140.971 197.39 140.971 196.73C140.971 196.07 140.833 195.488 140.557 194.984C140.281 194.468 139.897 194.072 139.405 193.796C138.913 193.52 138.367 193.382 137.767 193.382C137.155 193.382 136.603 193.52 136.111 193.796C135.631 194.072 135.247 194.468 134.959 194.984C134.683 195.488 134.545 196.07 134.545 196.73C134.545 197.39 134.683 197.978 134.959 198.494C135.247 198.998 135.631 199.394 136.111 199.682C136.603 199.958 137.155 200.096 137.767 200.096ZM148.597 201.608C147.817 201.608 147.067 201.506 146.347 201.302C145.627 201.086 145.063 200.816 144.655 200.492L145.375 199.124C145.795 199.424 146.305 199.664 146.905 199.844C147.505 200.024 148.111 200.114 148.723 200.114C150.235 200.114 150.991 199.682 150.991 198.818C150.991 198.53 150.889 198.302 150.685 198.134C150.481 197.966 150.223 197.846 149.911 197.774C149.611 197.69 149.179 197.6 148.615 197.504C147.847 197.384 147.217 197.246 146.725 197.09C146.245 196.934 145.831 196.67 145.483 196.298C145.135 195.926 144.961 195.404 144.961 194.732C144.961 193.868 145.321 193.178 146.041 192.662C146.761 192.134 147.727 191.87 148.939 191.87C149.575 191.87 150.211 191.948 150.847 192.104C151.483 192.26 152.005 192.47 152.413 192.734L151.675 194.102C150.895 193.598 149.977 193.346 148.921 193.346C148.189 193.346 147.631 193.466 147.247 193.706C146.863 193.946 146.671 194.264 146.671 194.66C146.671 194.972 146.779 195.218 146.995 195.398C147.211 195.578 147.475 195.71 147.787 195.794C148.111 195.878 148.561 195.974 149.137 196.082C149.905 196.214 150.523 196.358 150.991 196.514C151.471 196.658 151.879 196.91 152.215 197.27C152.551 197.63 152.719 198.134 152.719 198.782C152.719 199.646 152.347 200.336 151.603 200.852C150.871 201.356 149.869 201.608 148.597 201.608ZM164.896 200.942C164.644 201.158 164.332 201.326 163.96 201.446C163.588 201.554 163.204 201.608 162.808 201.608C161.848 201.608 161.104 201.35 160.576 200.834C160.048 200.318 159.784 199.58 159.784 198.62V193.382H158.164V191.96H159.784V189.872H161.512V191.96H164.248V193.382H161.512V198.548C161.512 199.064 161.638 199.46 161.89 199.736C162.154 200.012 162.526 200.15 163.006 200.15C163.534 200.15 163.984 200 164.356 199.7L164.896 200.942ZM170.665 201.608C169.717 201.608 168.865 201.398 168.109 200.978C167.353 200.558 166.759 199.982 166.327 199.25C165.907 198.506 165.697 197.666 165.697 196.73C165.697 195.794 165.907 194.96 166.327 194.228C166.759 193.484 167.353 192.908 168.109 192.5C168.865 192.08 169.717 191.87 170.665 191.87C171.613 191.87 172.459 192.08 173.203 192.5C173.959 192.908 174.547 193.484 174.967 194.228C175.399 194.96 175.615 195.794 175.615 196.73C175.615 197.666 175.399 198.506 174.967 199.25C174.547 199.982 173.959 200.558 173.203 200.978C172.459 201.398 171.613 201.608 170.665 201.608ZM170.665 200.096C171.277 200.096 171.823 199.958 172.303 199.682C172.795 199.394 173.179 198.998 173.455 198.494C173.731 197.978 173.869 197.39 173.869 196.73C173.869 196.07 173.731 195.488 173.455 194.984C173.179 194.468 172.795 194.072 172.303 193.796C171.823 193.52 171.277 193.382 170.665 193.382C170.053 193.382 169.501 193.52 169.009 193.796C168.529 194.072 168.145 194.468 167.857 194.984C167.581 195.488 167.443 196.07 167.443 196.73C167.443 197.39 167.581 197.978 167.857 198.494C168.145 198.998 168.529 199.394 169.009 199.682C169.501 199.958 170.053 200.096 170.665 200.096ZM184.315 193.562C184.615 193.01 185.059 192.59 185.647 192.302C186.235 192.014 186.949 191.87 187.789 191.87V193.544C187.693 193.532 187.561 193.526 187.393 193.526C186.457 193.526 185.719 193.808 185.179 194.372C184.651 194.924 184.387 195.716 184.387 196.748V201.5H182.659V191.96H184.315V193.562ZM198.363 196.784C198.363 196.916 198.351 197.09 198.327 197.306H190.587C190.695 198.146 191.061 198.824 191.685 199.34C192.321 199.844 193.107 200.096 194.043 200.096C195.183 200.096 196.101 199.712 196.797 198.944L197.751 200.06C197.319 200.564 196.779 200.948 196.131 201.212C195.495 201.476 194.781 201.608 193.989 201.608C192.981 201.608 192.087 201.404 191.307 200.996C190.527 200.576 189.921 199.994 189.489 199.25C189.069 198.506 188.859 197.666 188.859 196.73C188.859 195.806 189.063 194.972 189.471 194.228C189.891 193.484 190.461 192.908 191.181 192.5C191.913 192.08 192.735 191.87 193.647 191.87C194.559 191.87 195.369 192.08 196.077 192.5C196.797 192.908 197.355 193.484 197.751 194.228C198.159 194.972 198.363 195.824 198.363 196.784ZM193.647 193.328C192.819 193.328 192.123 193.58 191.559 194.084C191.007 194.588 190.683 195.248 190.587 196.064H196.707C196.611 195.26 196.281 194.606 195.717 194.102C195.165 193.586 194.475 193.328 193.647 193.328ZM204.83 201.608C203.858 201.608 202.988 201.398 202.22 200.978C201.464 200.558 200.87 199.982 200.438 199.25C200.006 198.506 199.79 197.666 199.79 196.73C199.79 195.794 200.006 194.96 200.438 194.228C200.87 193.484 201.464 192.908 202.22 192.5C202.988 192.08 203.858 191.87 204.83 191.87C205.694 191.87 206.462 192.044 207.134 192.392C207.818 192.74 208.346 193.244 208.718 193.904L207.404 194.75C207.104 194.294 206.732 193.952 206.288 193.724C205.844 193.496 205.352 193.382 204.812 193.382C204.188 193.382 203.624 193.52 203.12 193.796C202.628 194.072 202.238 194.468 201.95 194.984C201.674 195.488 201.536 196.07 201.536 196.73C201.536 197.402 201.674 197.996 201.95 198.512C202.238 199.016 202.628 199.406 203.12 199.682C203.624 199.958 204.188 200.096 204.812 200.096C205.352 200.096 205.844 199.982 206.288 199.754C206.732 199.526 207.104 199.184 207.404 198.728L208.718 199.556C208.346 200.216 207.818 200.726 207.134 201.086C206.462 201.434 205.694 201.608 204.83 201.608ZM219.347 196.784C219.347 196.916 219.335 197.09 219.311 197.306H211.571C211.679 198.146 212.045 198.824 212.669 199.34C213.305 199.844 214.091 200.096 215.027 200.096C216.167 200.096 217.085 199.712 217.781 198.944L218.735 200.06C218.303 200.564 217.763 200.948 217.115 201.212C216.479 201.476 215.765 201.608 214.973 201.608C213.965 201.608 213.071 201.404 212.291 200.996C211.511 200.576 210.905 199.994 210.473 199.25C210.053 198.506 209.843 197.666 209.843 196.73C209.843 195.806 210.047 194.972 210.455 194.228C210.875 193.484 211.445 192.908 212.165 192.5C212.897 192.08 213.719 191.87 214.631 191.87C215.543 191.87 216.353 192.08 217.061 192.5C217.781 192.908 218.339 193.484 218.735 194.228C219.143 194.972 219.347 195.824 219.347 196.784ZM214.631 193.328C213.803 193.328 213.107 193.58 212.543 194.084C211.991 194.588 211.667 195.248 211.571 196.064H217.691C217.595 195.26 217.265 194.606 216.701 194.102C216.149 193.586 215.459 193.328 214.631 193.328ZM221.656 191.96H223.384V201.5H221.656V191.96ZM222.52 190.124C222.184 190.124 221.902 190.016 221.674 189.8C221.458 189.584 221.35 189.32 221.35 189.008C221.35 188.696 221.458 188.432 221.674 188.216C221.902 187.988 222.184 187.874 222.52 187.874C222.856 187.874 223.132 187.982 223.348 188.198C223.576 188.402 223.69 188.66 223.69 188.972C223.69 189.296 223.576 189.572 223.348 189.8C223.132 190.016 222.856 190.124 222.52 190.124ZM235.036 191.96L230.86 201.5H229.096L224.92 191.96H226.72L229.996 199.61L233.344 191.96H235.036ZM244.917 196.784C244.917 196.916 244.905 197.09 244.881 197.306H237.141C237.249 198.146 237.615 198.824 238.239 199.34C238.875 199.844 239.661 200.096 240.597 200.096C241.737 200.096 242.655 199.712 243.351 198.944L244.305 200.06C243.873 200.564 243.333 200.948 242.685 201.212C242.049 201.476 241.335 201.608 240.543 201.608C239.535 201.608 238.641 201.404 237.861 200.996C237.081 200.576 236.475 199.994 236.043 199.25C235.623 198.506 235.413 197.666 235.413 196.73C235.413 195.806 235.617 194.972 236.025 194.228C236.445 193.484 237.015 192.908 237.735 192.5C238.467 192.08 239.289 191.87 240.201 191.87C241.113 191.87 241.923 192.08 242.631 192.5C243.351 192.908 243.909 193.484 244.305 194.228C244.713 194.972 244.917 195.824 244.917 196.784ZM240.201 193.328C239.373 193.328 238.677 193.58 238.113 194.084C237.561 194.588 237.237 195.248 237.141 196.064H243.261C243.165 195.26 242.835 194.606 242.271 194.102C241.719 193.586 241.029 193.328 240.201 193.328ZM255.444 191.87C256.764 191.87 257.772 192.194 258.468 192.842C259.176 193.49 259.53 194.456 259.53 195.74V201.5H257.892V200.24C257.604 200.684 257.19 201.026 256.65 201.266C256.122 201.494 255.492 201.608 254.76 201.608C253.692 201.608 252.834 201.35 252.186 200.834C251.55 200.318 251.232 199.64 251.232 198.8C251.232 197.96 251.538 197.288 252.15 196.784C252.762 196.268 253.734 196.01 255.066 196.01H257.802V195.668C257.802 194.924 257.586 194.354 257.154 193.958C256.722 193.562 256.086 193.364 255.246 193.364C254.682 193.364 254.13 193.46 253.59 193.652C253.05 193.832 252.594 194.078 252.222 194.39L251.502 193.094C251.994 192.698 252.582 192.398 253.266 192.194C253.95 191.978 254.676 191.87 255.444 191.87ZM255.048 200.276C255.708 200.276 256.278 200.132 256.758 199.844C257.238 199.544 257.586 199.124 257.802 198.584V197.252H255.138C253.674 197.252 252.942 197.744 252.942 198.728C252.942 199.208 253.128 199.586 253.5 199.862C253.872 200.138 254.388 200.276 255.048 200.276ZM93.0528 216.458C92.0208 216.458 91.5048 217.016 91.5048 218.132V218.96H94.2768V220.382H91.5408V228.5H89.8128V220.382H88.1928V218.96H89.8128V218.114C89.8128 217.166 90.0888 216.416 90.6408 215.864C91.1928 215.312 91.9668 215.036 92.9628 215.036C93.3468 215.036 93.7068 215.084 94.0428 215.18C94.3788 215.276 94.6668 215.414 94.9068 215.594L94.3848 216.908C93.9888 216.608 93.5448 216.458 93.0528 216.458ZM98.9139 220.562C99.2139 220.01 99.6579 219.59 100.246 219.302C100.834 219.014 101.548 218.87 102.388 218.87V220.544C102.292 220.532 102.16 220.526 101.992 220.526C101.056 220.526 100.318 220.808 99.7779 221.372C99.2499 221.924 98.9859 222.716 98.9859 223.748V228.5H97.2579V218.96H98.9139V220.562ZM112.962 223.784C112.962 223.916 112.95 224.09 112.926 224.306H105.186C105.294 225.146 105.66 225.824 106.284 226.34C106.92 226.844 107.706 227.096 108.642 227.096C109.782 227.096 110.7 226.712 111.396 225.944L112.35 227.06C111.918 227.564 111.378 227.948 110.73 228.212C110.094 228.476 109.38 228.608 108.588 228.608C107.58 228.608 106.686 228.404 105.906 227.996C105.126 227.576 104.52 226.994 104.088 226.25C103.668 225.506 103.458 224.666 103.458 223.73C103.458 222.806 103.662 221.972 104.07 221.228C104.49 220.484 105.06 219.908 105.78 219.5C106.512 219.08 107.334 218.87 108.246 218.87C109.158 218.87 109.968 219.08 110.676 219.5C111.396 219.908 111.954 220.484 112.35 221.228C112.758 221.972 112.962 222.824 112.962 223.784ZM108.246 220.328C107.418 220.328 106.722 220.58 106.158 221.084C105.606 221.588 105.282 222.248 105.186 223.064H111.306C111.21 222.26 110.88 221.606 110.316 221.102C109.764 220.586 109.074 220.328 108.246 220.328ZM123.893 223.784C123.893 223.916 123.881 224.09 123.857 224.306H116.117C116.225 225.146 116.591 225.824 117.215 226.34C117.851 226.844 118.637 227.096 119.573 227.096C120.713 227.096 121.631 226.712 122.327 225.944L123.281 227.06C122.849 227.564 122.309 227.948 121.661 228.212C121.025 228.476 120.311 228.608 119.519 228.608C118.511 228.608 117.617 228.404 116.837 227.996C116.057 227.576 115.451 226.994 115.019 226.25C114.599 225.506 114.389 224.666 114.389 223.73C114.389 222.806 114.593 221.972 115.001 221.228C115.421 220.484 115.991 219.908 116.711 219.5C117.443 219.08 118.265 218.87 119.177 218.87C120.089 218.87 120.899 219.08 121.607 219.5C122.327 219.908 122.885 220.484 123.281 221.228C123.689 221.972 123.893 222.824 123.893 223.784ZM119.177 220.328C118.349 220.328 117.653 220.58 117.089 221.084C116.537 221.588 116.213 222.248 116.117 223.064H122.237C122.141 222.26 121.811 221.606 121.247 221.102C120.695 220.586 120.005 220.328 119.177 220.328ZM133.701 217.466H129.381V215.9H139.803V217.466H135.483V228.5H133.701V217.466ZM144.385 218.87C145.705 218.87 146.713 219.194 147.409 219.842C148.117 220.49 148.471 221.456 148.471 222.74V228.5H146.833V227.24C146.545 227.684 146.131 228.026 145.591 228.266C145.063 228.494 144.433 228.608 143.701 228.608C142.633 228.608 141.775 228.35 141.127 227.834C140.491 227.318 140.173 226.64 140.173 225.8C140.173 224.96 140.479 224.288 141.091 223.784C141.703 223.268 142.675 223.01 144.007 223.01H146.743V222.668C146.743 221.924 146.527 221.354 146.095 220.958C145.663 220.562 145.027 220.364 144.187 220.364C143.623 220.364 143.071 220.46 142.531 220.652C141.991 220.832 141.535 221.078 141.163 221.39L140.443 220.094C140.935 219.698 141.523 219.398 142.207 219.194C142.891 218.978 143.617 218.87 144.385 218.87ZM143.989 227.276C144.649 227.276 145.219 227.132 145.699 226.844C146.179 226.544 146.527 226.124 146.743 225.584V224.252H144.079C142.615 224.252 141.883 224.744 141.883 225.728C141.883 226.208 142.069 226.586 142.441 226.862C142.813 227.138 143.329 227.276 143.989 227.276ZM156.637 218.87C157.561 218.87 158.389 219.074 159.121 219.482C159.853 219.89 160.423 220.46 160.831 221.192C161.251 221.924 161.461 222.77 161.461 223.73C161.461 224.69 161.251 225.542 160.831 226.286C160.423 227.018 159.853 227.588 159.121 227.996C158.389 228.404 157.561 228.608 156.637 228.608C155.953 228.608 155.323 228.476 154.747 228.212C154.183 227.948 153.703 227.564 153.307 227.06V231.992H151.579V218.96H153.235V220.472C153.619 219.944 154.105 219.548 154.693 219.284C155.281 219.008 155.929 218.87 156.637 218.87ZM156.493 227.096C157.105 227.096 157.651 226.958 158.131 226.682C158.623 226.394 159.007 225.998 159.283 225.494C159.571 224.978 159.715 224.39 159.715 223.73C159.715 223.07 159.571 222.488 159.283 221.984C159.007 221.468 158.623 221.072 158.131 220.796C157.651 220.52 157.105 220.382 156.493 220.382C155.893 220.382 155.347 220.526 154.855 220.814C154.375 221.09 153.991 221.48 153.703 221.984C153.427 222.488 153.289 223.07 153.289 223.73C153.289 224.39 153.427 224.978 153.703 225.494C153.979 225.998 154.363 226.394 154.855 226.682C155.347 226.958 155.893 227.096 156.493 227.096ZM172.661 228.608C171.689 228.608 170.819 228.398 170.051 227.978C169.295 227.558 168.701 226.982 168.269 226.25C167.837 225.506 167.621 224.666 167.621 223.73C167.621 222.794 167.837 221.96 168.269 221.228C168.701 220.484 169.295 219.908 170.051 219.5C170.819 219.08 171.689 218.87 172.661 218.87C173.525 218.87 174.293 219.044 174.965 219.392C175.649 219.74 176.177 220.244 176.549 220.904L175.235 221.75C174.935 221.294 174.563 220.952 174.119 220.724C173.675 220.496 173.183 220.382 172.643 220.382C172.019 220.382 171.455 220.52 170.951 220.796C170.459 221.072 170.069 221.468 169.781 221.984C169.505 222.488 169.367 223.07 169.367 223.73C169.367 224.402 169.505 224.996 169.781 225.512C170.069 226.016 170.459 226.406 170.951 226.682C171.455 226.958 172.019 227.096 172.643 227.096C173.183 227.096 173.675 226.982 174.119 226.754C174.563 226.526 174.935 226.184 175.235 225.728L176.549 226.556C176.177 227.216 175.649 227.726 174.965 228.086C174.293 228.434 173.525 228.608 172.661 228.608ZM182.17 218.87C183.49 218.87 184.498 219.194 185.194 219.842C185.902 220.49 186.256 221.456 186.256 222.74V228.5H184.618V227.24C184.33 227.684 183.916 228.026 183.376 228.266C182.848 228.494 182.218 228.608 181.486 228.608C180.418 228.608 179.56 228.35 178.912 227.834C178.276 227.318 177.958 226.64 177.958 225.8C177.958 224.96 178.264 224.288 178.876 223.784C179.488 223.268 180.46 223.01 181.792 223.01H184.528V222.668C184.528 221.924 184.312 221.354 183.88 220.958C183.448 220.562 182.812 220.364 181.972 220.364C181.408 220.364 180.856 220.46 180.316 220.652C179.776 220.832 179.32 221.078 178.948 221.39L178.228 220.094C178.72 219.698 179.308 219.398 179.992 219.194C180.676 218.978 181.402 218.87 182.17 218.87ZM181.774 227.276C182.434 227.276 183.004 227.132 183.484 226.844C183.964 226.544 184.312 226.124 184.528 225.584V224.252H181.864C180.4 224.252 179.668 224.744 179.668 225.728C179.668 226.208 179.854 226.586 180.226 226.862C180.598 227.138 181.114 227.276 181.774 227.276ZM191.02 220.562C191.32 220.01 191.764 219.59 192.352 219.302C192.94 219.014 193.654 218.87 194.494 218.87V220.544C194.398 220.532 194.266 220.526 194.098 220.526C193.162 220.526 192.424 220.808 191.884 221.372C191.356 221.924 191.092 222.716 191.092 223.748V228.5H189.364V218.96H191.02V220.562ZM205.446 215.144V228.5H203.79V226.988C203.406 227.516 202.92 227.918 202.332 228.194C201.744 228.47 201.096 228.608 200.388 228.608C199.464 228.608 198.636 228.404 197.904 227.996C197.172 227.588 196.596 227.018 196.176 226.286C195.768 225.542 195.564 224.69 195.564 223.73C195.564 222.77 195.768 221.924 196.176 221.192C196.596 220.46 197.172 219.89 197.904 219.482C198.636 219.074 199.464 218.87 200.388 218.87C201.072 218.87 201.702 219.002 202.278 219.266C202.854 219.518 203.334 219.896 203.718 220.4V215.144H205.446ZM200.532 227.096C201.132 227.096 201.678 226.958 202.17 226.682C202.662 226.394 203.046 225.998 203.322 225.494C203.598 224.978 203.736 224.39 203.736 223.73C203.736 223.07 203.598 222.488 203.322 221.984C203.046 221.468 202.662 221.072 202.17 220.796C201.678 220.52 201.132 220.382 200.532 220.382C199.92 220.382 199.368 220.52 198.876 220.796C198.396 221.072 198.012 221.468 197.724 221.984C197.448 222.488 197.31 223.07 197.31 223.73C197.31 224.39 197.448 224.978 197.724 225.494C198.012 225.998 198.396 226.394 198.876 226.682C199.368 226.958 199.92 227.096 200.532 227.096Z" fill="#8692A6"/>
<path fill-rule="evenodd" clip-rule="evenodd" d="M98.4248 79.4874L101.637 76.2749H185.162L188.375 79.4874V137.312L185.162 140.525H101.637L98.4248 137.312V79.4874ZM104.85 86.1373V134.1H181.95V86.1437L145.392 114.182H141.472L104.85 86.1373ZM175.718 82.6999H111.082L143.4 107.558L175.718 82.6999Z" fill="#8692A6"/>
</svg>
