<svg width="283" height="283" viewBox="0 0 283 283" fill="none" xmlns="http://www.w3.org/2000/svg">
<rect width="283" height="283" rx="20" fill="#F1F7FF"/>
<path d="M177.5 68H104.188C102.424 68 101 69.4244 101 71.1875V144.5C101 146.263 102.424 147.688 104.188 147.688H177.5C179.263 147.688 180.688 146.263 180.688 144.5V71.1875C180.688 69.4244 179.263 68 177.5 68ZM173.516 140.516H108.172V75.1719H173.516V140.516ZM138.852 96.6875H157.18C157.618 96.6875 157.977 96.3289 157.977 95.8906V91.1094C157.977 90.6711 157.618 90.3125 157.18 90.3125H138.852C138.413 90.3125 138.055 90.6711 138.055 91.1094V95.8906C138.055 96.3289 138.413 96.6875 138.852 96.6875ZM138.852 111.031H157.18C157.618 111.031 157.977 110.673 157.977 110.234V105.453C157.977 105.015 157.618 104.656 157.18 104.656H138.852C138.413 104.656 138.055 105.015 138.055 105.453V110.234C138.055 110.673 138.413 111.031 138.852 111.031ZM138.852 125.375H157.18C157.618 125.375 157.977 125.016 157.977 124.578V119.797C157.977 119.359 157.618 119 157.18 119H138.852C138.413 119 138.055 119.359 138.055 119.797V124.578C138.055 125.016 138.413 125.375 138.852 125.375ZM123.711 93.5C123.711 94.5567 124.131 95.5702 124.878 96.3174C125.625 97.0646 126.639 97.4844 127.695 97.4844C128.752 97.4844 129.765 97.0646 130.513 96.3174C131.26 95.5702 131.68 94.5567 131.68 93.5C131.68 92.4433 131.26 91.4298 130.513 90.6826C129.765 89.9354 128.752 89.5156 127.695 89.5156C126.639 89.5156 125.625 89.9354 124.878 90.6826C124.131 91.4298 123.711 92.4433 123.711 93.5ZM123.711 107.844C123.711 108.9 124.131 109.914 124.878 110.661C125.625 111.408 126.639 111.828 127.695 111.828C128.752 111.828 129.765 111.408 130.513 110.661C131.26 109.914 131.68 108.9 131.68 107.844C131.68 106.787 131.26 105.774 130.513 105.026C129.765 104.279 128.752 103.859 127.695 103.859C126.639 103.859 125.625 104.279 124.878 105.026C124.131 105.774 123.711 106.787 123.711 107.844ZM123.711 122.188C123.711 123.244 124.131 124.258 124.878 125.005C125.625 125.752 126.639 126.172 127.695 126.172C128.752 126.172 129.765 125.752 130.513 125.005C131.26 124.258 131.68 123.244 131.68 122.188C131.68 121.131 131.26 120.117 130.513 119.37C129.765 118.623 128.752 118.203 127.695 118.203C126.639 118.203 125.625 118.623 124.878 119.37C124.131 120.117 123.711 121.131 123.711 122.188Z" fill="#8692A6"/>
<path d="M63.5479 201.5L60.8299 197.63C60.4939 197.654 60.2299 197.666 60.0379 197.666H56.9239V201.5H55.1239V188.9H60.0379C61.6699 188.9 62.9539 189.29 63.8899 190.07C64.8259 190.85 65.2939 191.924 65.2939 193.292C65.2939 194.264 65.0539 195.092 64.5739 195.776C64.0939 196.46 63.4099 196.958 62.5219 197.27L65.5099 201.5H63.5479ZM59.9839 196.136C61.1239 196.136 61.9939 195.89 62.5939 195.398C63.1939 194.906 63.4939 194.204 63.4939 193.292C63.4939 192.38 63.1939 191.684 62.5939 191.204C61.9939 190.712 61.1239 190.466 59.9839 190.466H56.9239V196.136H59.9839ZM76.482 196.784C76.482 196.916 76.47 197.09 76.446 197.306H68.706C68.814 198.146 69.18 198.824 69.804 199.34C70.44 199.844 71.226 200.096 72.162 200.096C73.302 200.096 74.22 199.712 74.916 198.944L75.87 200.06C75.438 200.564 74.898 200.948 74.25 201.212C73.614 201.476 72.9 201.608 72.108 201.608C71.1 201.608 70.206 201.404 69.426 200.996C68.646 200.576 68.04 199.994 67.608 199.25C67.188 198.506 66.978 197.666 66.978 196.73C66.978 195.806 67.182 194.972 67.59 194.228C68.01 193.484 68.58 192.908 69.3 192.5C70.032 192.08 70.854 191.87 71.766 191.87C72.678 191.87 73.488 192.08 74.196 192.5C74.916 192.908 75.474 193.484 75.87 194.228C76.278 194.972 76.482 195.824 76.482 196.784ZM71.766 193.328C70.938 193.328 70.242 193.58 69.678 194.084C69.126 194.588 68.802 195.248 68.706 196.064H74.826C74.73 195.26 74.4 194.606 73.836 194.102C73.284 193.586 72.594 193.328 71.766 193.328ZM87.9175 191.96V200.204C87.9175 201.872 87.5035 203.102 86.6755 203.894C85.8475 204.698 84.6115 205.1 82.9675 205.1C82.0675 205.1 81.2095 204.974 80.3935 204.722C79.5775 204.482 78.9175 204.134 78.4135 203.678L79.2415 202.346C79.6855 202.73 80.2315 203.03 80.8795 203.246C81.5395 203.474 82.2175 203.588 82.9135 203.588C84.0295 203.588 84.8515 203.324 85.3795 202.796C85.9195 202.268 86.1895 201.464 86.1895 200.384V199.628C85.7815 200.12 85.2775 200.492 84.6775 200.744C84.0895 200.984 83.4475 201.104 82.7515 201.104C81.8395 201.104 81.0115 200.912 80.2675 200.528C79.5355 200.132 78.9595 199.586 78.5395 198.89C78.1195 198.182 77.9095 197.378 77.9095 196.478C77.9095 195.578 78.1195 194.78 78.5395 194.084C78.9595 193.376 79.5355 192.83 80.2675 192.446C81.0115 192.062 81.8395 191.87 82.7515 191.87C83.4715 191.87 84.1375 192.002 84.7495 192.266C85.3735 192.53 85.8835 192.92 86.2795 193.436V191.96H87.9175ZM82.9495 199.592C83.5735 199.592 84.1315 199.46 84.6235 199.196C85.1275 198.932 85.5175 198.566 85.7935 198.098C86.0815 197.618 86.2255 197.078 86.2255 196.478C86.2255 195.554 85.9195 194.81 85.3075 194.246C84.6955 193.67 83.9095 193.382 82.9495 193.382C81.9775 193.382 81.1855 193.67 80.5735 194.246C79.9615 194.81 79.6555 195.554 79.6555 196.478C79.6555 197.078 79.7935 197.618 80.0695 198.098C80.3575 198.566 80.7475 198.932 81.2395 199.196C81.7435 199.46 82.3135 199.592 82.9495 199.592ZM91.1293 191.96H92.8573V201.5H91.1293V191.96ZM91.9933 190.124C91.6573 190.124 91.3753 190.016 91.1473 189.8C90.9313 189.584 90.8233 189.32 90.8233 189.008C90.8233 188.696 90.9313 188.432 91.1473 188.216C91.3753 187.988 91.6573 187.874 91.9933 187.874C92.3293 187.874 92.6053 187.982 92.8213 188.198C93.0493 188.402 93.1633 188.66 93.1633 188.972C93.1633 189.296 93.0493 189.572 92.8213 189.8C92.6053 190.016 92.3293 190.124 91.9933 190.124ZM98.8026 201.608C98.0226 201.608 97.2726 201.506 96.5526 201.302C95.8326 201.086 95.2686 200.816 94.8606 200.492L95.5806 199.124C96.0006 199.424 96.5106 199.664 97.1106 199.844C97.7106 200.024 98.3166 200.114 98.9286 200.114C100.441 200.114 101.197 199.682 101.197 198.818C101.197 198.53 101.095 198.302 100.891 198.134C100.687 197.966 100.429 197.846 100.117 197.774C99.8166 197.69 99.3846 197.6 98.8206 197.504C98.0526 197.384 97.4226 197.246 96.9306 197.09C96.4506 196.934 96.0366 196.67 95.6886 196.298C95.3406 195.926 95.1666 195.404 95.1666 194.732C95.1666 193.868 95.5266 193.178 96.2466 192.662C96.9666 192.134 97.9326 191.87 99.1446 191.87C99.7806 191.87 100.417 191.948 101.053 192.104C101.689 192.26 102.211 192.47 102.619 192.734L101.881 194.102C101.101 193.598 100.183 193.346 99.1266 193.346C98.3946 193.346 97.8366 193.466 97.4526 193.706C97.0686 193.946 96.8766 194.264 96.8766 194.66C96.8766 194.972 96.9846 195.218 97.2006 195.398C97.4166 195.578 97.6806 195.71 97.9926 195.794C98.3166 195.878 98.7666 195.974 99.3426 196.082C100.111 196.214 100.729 196.358 101.197 196.514C101.677 196.658 102.085 196.91 102.421 197.27C102.757 197.63 102.925 198.134 102.925 198.782C102.925 199.646 102.553 200.336 101.809 200.852C101.077 201.356 100.075 201.608 98.8026 201.608ZM110.358 200.942C110.106 201.158 109.794 201.326 109.422 201.446C109.05 201.554 108.666 201.608 108.27 201.608C107.31 201.608 106.566 201.35 106.038 200.834C105.51 200.318 105.246 199.58 105.246 198.62V193.382H103.626V191.96H105.246V189.872H106.974V191.96H109.71V193.382H106.974V198.548C106.974 199.064 107.1 199.46 107.352 199.736C107.616 200.012 107.988 200.15 108.468 200.15C108.996 200.15 109.446 200 109.818 199.7L110.358 200.942ZM120.663 196.784C120.663 196.916 120.651 197.09 120.627 197.306H112.887C112.995 198.146 113.361 198.824 113.985 199.34C114.621 199.844 115.407 200.096 116.343 200.096C117.483 200.096 118.401 199.712 119.097 198.944L120.051 200.06C119.619 200.564 119.079 200.948 118.431 201.212C117.795 201.476 117.081 201.608 116.289 201.608C115.281 201.608 114.387 201.404 113.607 200.996C112.827 200.576 112.221 199.994 111.789 199.25C111.369 198.506 111.159 197.666 111.159 196.73C111.159 195.806 111.363 194.972 111.771 194.228C112.191 193.484 112.761 192.908 113.481 192.5C114.213 192.08 115.035 191.87 115.947 191.87C116.859 191.87 117.669 192.08 118.377 192.5C119.097 192.908 119.655 193.484 120.051 194.228C120.459 194.972 120.663 195.824 120.663 196.784ZM115.947 193.328C115.119 193.328 114.423 193.58 113.859 194.084C113.307 194.588 112.983 195.248 112.887 196.064H119.007C118.911 195.26 118.581 194.606 118.017 194.102C117.465 193.586 116.775 193.328 115.947 193.328ZM124.628 193.562C124.928 193.01 125.372 192.59 125.96 192.302C126.548 192.014 127.262 191.87 128.102 191.87V193.544C128.006 193.532 127.874 193.526 127.706 193.526C126.77 193.526 126.032 193.808 125.492 194.372C124.964 194.924 124.7 195.716 124.7 196.748V201.5H122.972V191.96H124.628V193.562ZM138.483 191.87C139.803 191.87 140.811 192.194 141.507 192.842C142.215 193.49 142.569 194.456 142.569 195.74V201.5H140.931V200.24C140.643 200.684 140.229 201.026 139.689 201.266C139.161 201.494 138.531 201.608 137.799 201.608C136.731 201.608 135.873 201.35 135.225 200.834C134.589 200.318 134.271 199.64 134.271 198.8C134.271 197.96 134.577 197.288 135.189 196.784C135.801 196.268 136.773 196.01 138.105 196.01H140.841V195.668C140.841 194.924 140.625 194.354 140.193 193.958C139.761 193.562 139.125 193.364 138.285 193.364C137.721 193.364 137.169 193.46 136.629 193.652C136.089 193.832 135.633 194.078 135.261 194.39L134.541 193.094C135.033 192.698 135.621 192.398 136.305 192.194C136.989 191.978 137.715 191.87 138.483 191.87ZM138.087 200.276C138.747 200.276 139.317 200.132 139.797 199.844C140.277 199.544 140.625 199.124 140.841 198.584V197.252H138.177C136.713 197.252 135.981 197.744 135.981 198.728C135.981 199.208 136.167 199.586 136.539 199.862C136.911 200.138 137.427 200.276 138.087 200.276ZM150.771 191.87C151.983 191.87 152.943 192.224 153.651 192.932C154.371 193.628 154.731 194.654 154.731 196.01V201.5H153.003V196.208C153.003 195.284 152.781 194.588 152.337 194.12C151.893 193.652 151.257 193.418 150.429 193.418C149.493 193.418 148.755 193.694 148.215 194.246C147.675 194.786 147.405 195.566 147.405 196.586V201.5H145.677V191.96H147.333V193.4C147.681 192.908 148.149 192.53 148.737 192.266C149.337 192.002 150.015 191.87 150.771 191.87ZM166.892 188.144V201.5H165.236V199.988C164.852 200.516 164.366 200.918 163.778 201.194C163.19 201.47 162.542 201.608 161.834 201.608C160.91 201.608 160.082 201.404 159.35 200.996C158.618 200.588 158.042 200.018 157.622 199.286C157.214 198.542 157.01 197.69 157.01 196.73C157.01 195.77 157.214 194.924 157.622 194.192C158.042 193.46 158.618 192.89 159.35 192.482C160.082 192.074 160.91 191.87 161.834 191.87C162.518 191.87 163.148 192.002 163.724 192.266C164.3 192.518 164.78 192.896 165.164 193.4V188.144H166.892ZM161.978 200.096C162.578 200.096 163.124 199.958 163.616 199.682C164.108 199.394 164.492 198.998 164.768 198.494C165.044 197.978 165.182 197.39 165.182 196.73C165.182 196.07 165.044 195.488 164.768 194.984C164.492 194.468 164.108 194.072 163.616 193.796C163.124 193.52 162.578 193.382 161.978 193.382C161.366 193.382 160.814 193.52 160.322 193.796C159.842 194.072 159.458 194.468 159.17 194.984C158.894 195.488 158.756 196.07 158.756 196.73C158.756 197.39 158.894 197.978 159.17 198.494C159.458 198.998 159.842 199.394 160.322 199.682C160.814 199.958 161.366 200.096 161.978 200.096ZM178.973 201.608C178.001 201.608 177.131 201.398 176.363 200.978C175.607 200.558 175.013 199.982 174.581 199.25C174.149 198.506 173.933 197.666 173.933 196.73C173.933 195.794 174.149 194.96 174.581 194.228C175.013 193.484 175.607 192.908 176.363 192.5C177.131 192.08 178.001 191.87 178.973 191.87C179.837 191.87 180.605 192.044 181.277 192.392C181.961 192.74 182.489 193.244 182.861 193.904L181.547 194.75C181.247 194.294 180.875 193.952 180.431 193.724C179.987 193.496 179.495 193.382 178.955 193.382C178.331 193.382 177.767 193.52 177.263 193.796C176.771 194.072 176.381 194.468 176.093 194.984C175.817 195.488 175.679 196.07 175.679 196.73C175.679 197.402 175.817 197.996 176.093 198.512C176.381 199.016 176.771 199.406 177.263 199.682C177.767 199.958 178.331 200.096 178.955 200.096C179.495 200.096 179.987 199.982 180.431 199.754C180.875 199.526 181.247 199.184 181.547 198.728L182.861 199.556C182.489 200.216 181.961 200.726 181.277 201.086C180.605 201.434 179.837 201.608 178.973 201.608ZM186.664 193.562C186.964 193.01 187.408 192.59 187.996 192.302C188.584 192.014 189.298 191.87 190.138 191.87V193.544C190.042 193.532 189.91 193.526 189.742 193.526C188.806 193.526 188.068 193.808 187.528 194.372C187 194.924 186.736 195.716 186.736 196.748V201.5H185.008V191.96H186.664V193.562ZM200.712 196.784C200.712 196.916 200.7 197.09 200.676 197.306H192.936C193.044 198.146 193.41 198.824 194.034 199.34C194.67 199.844 195.456 200.096 196.392 200.096C197.532 200.096 198.45 199.712 199.146 198.944L200.1 200.06C199.668 200.564 199.128 200.948 198.48 201.212C197.844 201.476 197.13 201.608 196.338 201.608C195.33 201.608 194.436 201.404 193.656 200.996C192.876 200.576 192.27 199.994 191.838 199.25C191.418 198.506 191.208 197.666 191.208 196.73C191.208 195.806 191.412 194.972 191.82 194.228C192.24 193.484 192.81 192.908 193.53 192.5C194.262 192.08 195.084 191.87 195.996 191.87C196.908 191.87 197.718 192.08 198.426 192.5C199.146 192.908 199.704 193.484 200.1 194.228C200.508 194.972 200.712 195.824 200.712 196.784ZM195.996 193.328C195.168 193.328 194.472 193.58 193.908 194.084C193.356 194.588 193.032 195.248 192.936 196.064H199.056C198.96 195.26 198.63 194.606 198.066 194.102C197.514 193.586 196.824 193.328 195.996 193.328ZM206.232 191.87C207.552 191.87 208.56 192.194 209.256 192.842C209.964 193.49 210.318 194.456 210.318 195.74V201.5H208.68V200.24C208.392 200.684 207.978 201.026 207.438 201.266C206.91 201.494 206.28 201.608 205.548 201.608C204.48 201.608 203.622 201.35 202.974 200.834C202.338 200.318 202.02 199.64 202.02 198.8C202.02 197.96 202.326 197.288 202.938 196.784C203.55 196.268 204.522 196.01 205.854 196.01H208.59V195.668C208.59 194.924 208.374 194.354 207.942 193.958C207.51 193.562 206.874 193.364 206.034 193.364C205.47 193.364 204.918 193.46 204.378 193.652C203.838 193.832 203.382 194.078 203.01 194.39L202.29 193.094C202.782 192.698 203.37 192.398 204.054 192.194C204.738 191.978 205.464 191.87 206.232 191.87ZM205.836 200.276C206.496 200.276 207.066 200.132 207.546 199.844C208.026 199.544 208.374 199.124 208.59 198.584V197.252H205.926C204.462 197.252 203.73 197.744 203.73 198.728C203.73 199.208 203.916 199.586 204.288 199.862C204.66 200.138 205.176 200.276 205.836 200.276ZM218.79 200.942C218.538 201.158 218.226 201.326 217.854 201.446C217.482 201.554 217.098 201.608 216.702 201.608C215.742 201.608 214.998 201.35 214.47 200.834C213.942 200.318 213.678 199.58 213.678 198.62V193.382H212.058V191.96H213.678V189.872H215.406V191.96H218.142V193.382H215.406V198.548C215.406 199.064 215.532 199.46 215.784 199.736C216.048 200.012 216.42 200.15 216.9 200.15C217.428 200.15 217.878 200 218.25 199.7L218.79 200.942ZM229.095 196.784C229.095 196.916 229.083 197.09 229.059 197.306H221.319C221.427 198.146 221.793 198.824 222.417 199.34C223.053 199.844 223.839 200.096 224.775 200.096C225.915 200.096 226.833 199.712 227.529 198.944L228.483 200.06C228.051 200.564 227.511 200.948 226.863 201.212C226.227 201.476 225.513 201.608 224.721 201.608C223.713 201.608 222.819 201.404 222.039 200.996C221.259 200.576 220.653 199.994 220.221 199.25C219.801 198.506 219.591 197.666 219.591 196.73C219.591 195.806 219.795 194.972 220.203 194.228C220.623 193.484 221.193 192.908 221.913 192.5C222.645 192.08 223.467 191.87 224.379 191.87C225.291 191.87 226.101 192.08 226.809 192.5C227.529 192.908 228.087 193.484 228.483 194.228C228.891 194.972 229.095 195.824 229.095 196.784ZM224.379 193.328C223.551 193.328 222.855 193.58 222.291 194.084C221.739 194.588 221.415 195.248 221.319 196.064H227.439C227.343 195.26 227.013 194.606 226.449 194.102C225.897 193.586 225.207 193.328 224.379 193.328ZM99.3571 218.96L94.7311 229.454C94.3231 230.426 93.8431 231.11 93.2911 231.506C92.7511 231.902 92.0971 232.1 91.3291 232.1C90.8611 232.1 90.4051 232.022 89.9611 231.866C89.5291 231.722 89.1691 231.506 88.8811 231.218L89.6191 229.922C90.1111 230.39 90.6811 230.624 91.3291 230.624C91.7491 230.624 92.0971 230.51 92.3731 230.282C92.6611 230.066 92.9191 229.688 93.1471 229.148L93.4531 228.482L89.2411 218.96H91.0411L94.3711 226.592L97.6651 218.96H99.3571ZM104.702 228.608C103.754 228.608 102.902 228.398 102.146 227.978C101.39 227.558 100.796 226.982 100.364 226.25C99.9442 225.506 99.7342 224.666 99.7342 223.73C99.7342 222.794 99.9442 221.96 100.364 221.228C100.796 220.484 101.39 219.908 102.146 219.5C102.902 219.08 103.754 218.87 104.702 218.87C105.65 218.87 106.496 219.08 107.24 219.5C107.996 219.908 108.584 220.484 109.004 221.228C109.436 221.96 109.652 222.794 109.652 223.73C109.652 224.666 109.436 225.506 109.004 226.25C108.584 226.982 107.996 227.558 107.24 227.978C106.496 228.398 105.65 228.608 104.702 228.608ZM104.702 227.096C105.314 227.096 105.86 226.958 106.34 226.682C106.832 226.394 107.216 225.998 107.492 225.494C107.768 224.978 107.906 224.39 107.906 223.73C107.906 223.07 107.768 222.488 107.492 221.984C107.216 221.468 106.832 221.072 106.34 220.796C105.86 220.52 105.314 220.382 104.702 220.382C104.09 220.382 103.538 220.52 103.046 220.796C102.566 221.072 102.182 221.468 101.894 221.984C101.618 222.488 101.48 223.07 101.48 223.73C101.48 224.39 101.618 224.978 101.894 225.494C102.182 225.998 102.566 226.394 103.046 226.682C103.538 226.958 104.09 227.096 104.702 227.096ZM120.844 218.96V228.5H119.206V227.06C118.858 227.552 118.396 227.936 117.82 228.212C117.256 228.476 116.638 228.608 115.966 228.608C114.694 228.608 113.692 228.26 112.96 227.564C112.228 226.856 111.862 225.818 111.862 224.45V218.96H113.59V224.252C113.59 225.176 113.812 225.878 114.256 226.358C114.7 226.826 115.336 227.06 116.164 227.06C117.076 227.06 117.796 226.784 118.324 226.232C118.852 225.68 119.116 224.9 119.116 223.892V218.96H120.844ZM125.7 220.562C126 220.01 126.444 219.59 127.032 219.302C127.62 219.014 128.334 218.87 129.174 218.87V220.544C129.078 220.532 128.946 220.526 128.778 220.526C127.842 220.526 127.104 220.808 126.564 221.372C126.036 221.924 125.772 222.716 125.772 223.748V228.5H124.044V218.96H125.7V220.562ZM141.138 218.87C142.062 218.87 142.89 219.074 143.622 219.482C144.354 219.89 144.924 220.46 145.332 221.192C145.752 221.924 145.962 222.77 145.962 223.73C145.962 224.69 145.752 225.542 145.332 226.286C144.924 227.018 144.354 227.588 143.622 227.996C142.89 228.404 142.062 228.608 141.138 228.608C140.454 228.608 139.824 228.476 139.248 228.212C138.684 227.948 138.204 227.564 137.808 227.06V231.992H136.08V218.96H137.736V220.472C138.12 219.944 138.606 219.548 139.194 219.284C139.782 219.008 140.43 218.87 141.138 218.87ZM140.994 227.096C141.606 227.096 142.152 226.958 142.632 226.682C143.124 226.394 143.508 225.998 143.784 225.494C144.072 224.978 144.216 224.39 144.216 223.73C144.216 223.07 144.072 222.488 143.784 221.984C143.508 221.468 143.124 221.072 142.632 220.796C142.152 220.52 141.606 220.382 140.994 220.382C140.394 220.382 139.848 220.526 139.356 220.814C138.876 221.09 138.492 221.48 138.204 221.984C137.928 222.488 137.79 223.07 137.79 223.73C137.79 224.39 137.928 224.978 138.204 225.494C138.48 225.998 138.864 226.394 139.356 226.682C139.848 226.958 140.394 227.096 140.994 227.096ZM149.916 220.562C150.216 220.01 150.66 219.59 151.248 219.302C151.836 219.014 152.55 218.87 153.39 218.87V220.544C153.294 220.532 153.162 220.526 152.994 220.526C152.058 220.526 151.32 220.808 150.78 221.372C150.252 221.924 149.988 222.716 149.988 223.748V228.5H148.26V218.96H149.916V220.562ZM159.428 228.608C158.48 228.608 157.628 228.398 156.872 227.978C156.116 227.558 155.522 226.982 155.09 226.25C154.67 225.506 154.46 224.666 154.46 223.73C154.46 222.794 154.67 221.96 155.09 221.228C155.522 220.484 156.116 219.908 156.872 219.5C157.628 219.08 158.48 218.87 159.428 218.87C160.376 218.87 161.222 219.08 161.966 219.5C162.722 219.908 163.31 220.484 163.73 221.228C164.162 221.96 164.378 222.794 164.378 223.73C164.378 224.666 164.162 225.506 163.73 226.25C163.31 226.982 162.722 227.558 161.966 227.978C161.222 228.398 160.376 228.608 159.428 228.608ZM159.428 227.096C160.04 227.096 160.586 226.958 161.066 226.682C161.558 226.394 161.942 225.998 162.218 225.494C162.494 224.978 162.632 224.39 162.632 223.73C162.632 223.07 162.494 222.488 162.218 221.984C161.942 221.468 161.558 221.072 161.066 220.796C160.586 220.52 160.04 220.382 159.428 220.382C158.816 220.382 158.264 220.52 157.772 220.796C157.292 221.072 156.908 221.468 156.62 221.984C156.344 222.488 156.206 223.07 156.206 223.73C156.206 224.39 156.344 224.978 156.62 225.494C156.908 225.998 157.292 226.394 157.772 226.682C158.264 226.958 158.816 227.096 159.428 227.096ZM170.17 216.458C169.138 216.458 168.622 217.016 168.622 218.132V218.96H171.394V220.382H168.658V228.5H166.93V220.382H165.31V218.96H166.93V218.114C166.93 217.166 167.206 216.416 167.758 215.864C168.31 215.312 169.084 215.036 170.08 215.036C170.464 215.036 170.824 215.084 171.16 215.18C171.496 215.276 171.784 215.414 172.024 215.594L171.502 216.908C171.106 216.608 170.662 216.458 170.17 216.458ZM174.472 218.96H176.2V228.5H174.472V218.96ZM175.336 217.124C175 217.124 174.718 217.016 174.49 216.8C174.274 216.584 174.166 216.32 174.166 216.008C174.166 215.696 174.274 215.432 174.49 215.216C174.718 214.988 175 214.874 175.336 214.874C175.672 214.874 175.948 214.982 176.164 215.198C176.392 215.402 176.506 215.66 176.506 215.972C176.506 216.296 176.392 216.572 176.164 216.8C175.948 217.016 175.672 217.124 175.336 217.124ZM179.402 215.144H181.13V228.5H179.402V215.144ZM192.961 223.784C192.961 223.916 192.949 224.09 192.925 224.306H185.185C185.293 225.146 185.659 225.824 186.283 226.34C186.919 226.844 187.705 227.096 188.641 227.096C189.781 227.096 190.699 226.712 191.395 225.944L192.349 227.06C191.917 227.564 191.377 227.948 190.729 228.212C190.093 228.476 189.379 228.608 188.587 228.608C187.579 228.608 186.685 228.404 185.905 227.996C185.125 227.576 184.519 226.994 184.087 226.25C183.667 225.506 183.457 224.666 183.457 223.73C183.457 222.806 183.661 221.972 184.069 221.228C184.489 220.484 185.059 219.908 185.779 219.5C186.511 219.08 187.333 218.87 188.245 218.87C189.157 218.87 189.967 219.08 190.675 219.5C191.395 219.908 191.953 220.484 192.349 221.228C192.757 221.972 192.961 222.824 192.961 223.784ZM188.245 220.328C187.417 220.328 186.721 220.58 186.157 221.084C185.605 221.588 185.281 222.248 185.185 223.064H191.305C191.209 222.26 190.879 221.606 190.315 221.102C189.763 220.586 189.073 220.328 188.245 220.328Z" fill="#8692A6"/>
</svg>
