<svg width="72" height="73" viewBox="0 0 72 73" fill="none" xmlns="http://www.w3.org/2000/svg">
<rect y="0.5" width="72" height="72" rx="36" fill="#F4F5F7"/>
<path d="M48.6562 21.6562H21.3438C20.6869 21.6562 20.1562 22.1869 20.1562 22.8438V50.1562C20.1562 50.8131 20.6869 51.3438 21.3438 51.3438H48.6562C49.3131 51.3438 49.8438 50.8131 49.8438 50.1562V22.8438C49.8438 22.1869 49.3131 21.6562 48.6562 21.6562ZM29.6562 45.1094C29.6562 45.2727 29.5227 45.4062 29.3594 45.4062H26.3906C26.2273 45.4062 26.0938 45.2727 26.0938 45.1094V27.8906C26.0938 27.7273 26.2273 27.5938 26.3906 27.5938H29.3594C29.5227 27.5938 29.6562 27.7273 29.6562 27.8906V45.1094ZM36.7812 34.7188C36.7812 34.882 36.6477 35.0156 36.4844 35.0156H33.5156C33.3523 35.0156 33.2188 34.882 33.2188 34.7188V27.8906C33.2188 27.7273 33.3523 27.5938 33.5156 27.5938H36.4844C36.6477 27.5938 36.7812 27.7273 36.7812 27.8906V34.7188ZM43.9062 37.3906C43.9062 37.5539 43.7727 37.6875 43.6094 37.6875H40.6406C40.4773 37.6875 40.3438 37.5539 40.3438 37.3906V27.8906C40.3438 27.7273 40.4773 27.5938 40.6406 27.5938H43.6094C43.7727 27.5938 43.9062 27.7273 43.9062 27.8906V37.3906Z" fill="#2F80ED"/>
</svg>
