<svg width="23" height="31" viewBox="0 0 23 31" fill="none" xmlns="http://www.w3.org/2000/svg">
<path d="M7.66632 0C6.64967 0 5.67465 0.403866 4.95576 1.12275C4.23687 1.84164 3.83301 2.81666 3.83301 3.83332V22.9999C3.83301 24.0166 4.23687 24.9916 4.95576 25.7105C5.67465 26.4294 6.64967 26.8332 7.66632 26.8332H19.1663C20.1829 26.8332 21.158 26.4294 21.8768 25.7105C22.5957 24.9916 22.9996 24.0166 22.9996 22.9999V3.83332C22.9996 2.81666 22.5957 1.84164 21.8768 1.12275C21.158 0.403866 20.1829 0 19.1663 0H7.66632ZM5.74967 3.83332C5.74967 3.32499 5.9516 2.83748 6.31104 2.47803C6.67049 2.11859 7.158 1.91666 7.66632 1.91666H19.1663C19.6746 1.91666 20.1621 2.11859 20.5216 2.47803C20.881 2.83748 21.0829 3.32499 21.0829 3.83332V22.9999C21.0829 23.5082 20.881 23.9957 20.5216 24.3552C20.1621 24.7146 19.6746 24.9166 19.1663 24.9166H7.66632C7.158 24.9166 6.67049 24.7146 6.31104 24.3552C5.9516 23.9957 5.74967 23.5082 5.74967 22.9999V3.83332Z" fill="#1E1E1E"/>
<path d="M0 7.66707C1.70936e-05 6.99419 0.177149 6.33318 0.513592 5.75046C0.850035 5.16774 1.33394 4.68385 1.91666 4.34741V23.9587C1.91666 25.2295 2.42149 26.4483 3.3201 27.3469C4.21871 28.2455 5.43748 28.7503 6.70831 28.7503H18.6529C18.3165 29.333 17.8326 29.8169 17.2499 30.1534C16.6672 30.4898 16.0061 30.667 15.3333 30.667H6.70831C4.92915 30.667 3.22287 29.9602 1.96482 28.7022C0.706766 27.4441 0 25.7378 0 23.9587V7.66707Z" fill="#1E1E1E"/>
</svg>
