<svg width="1333" height="1018" viewBox="0 0 1333 1018" fill="none" xmlns="http://www.w3.org/2000/svg">
<path fill-rule="evenodd" clip-rule="evenodd" d="M661.742 434.589C661.742 496.697 611.298 547.045 549.073 547.045C486.847 547.045 436.403 496.697 436.403 434.589C436.403 372.481 486.847 322.133 549.073 322.133C611.298 322.133 661.742 372.481 661.742 434.589" fill="#DFEEFB"/>
<path d="M549.073 402.088V632.104" stroke="#B6D4FF" stroke-width="8"/>
<path d="M549.072 508.739L574.154 483.705" stroke="#B6D4FF" stroke-width="8"/>
<path d="M550.02 433.596L562.934 420.706" stroke="#B6D4FF" stroke-width="8"/>
<path d="M549.073 471.391L525.035 447.399" stroke="#B6D4FF" stroke-width="8"/>
<path fill-rule="evenodd" clip-rule="evenodd" d="M1115.27 512.193C1115.27 565.74 1080.24 589.771 1037.2 589.771C994.161 589.771 959.129 565.74 959.129 512.193C959.129 412.447 1001.74 319.298 1037.2 319.298C1072.67 319.298 1115.27 412.447 1115.27 512.193" fill="#ECF6FF"/>
<path d="M1037.2 425.498V634.216" stroke="#CCE3FF" stroke-width="8" stroke-linecap="square"/>
<path d="M1038.62 554.629L1067.62 525.69" stroke="#CCE3FF" stroke-width="8" stroke-linecap="square"/>
<path d="M1038.15 461.525L1056.16 443.542" stroke="#CCE3FF" stroke-width="8" stroke-linecap="square"/>
<path d="M1036.25 512.369L1009.52 485.689" stroke="#CCE3FF" stroke-width="8" stroke-linecap="square"/>
<path fill-rule="evenodd" clip-rule="evenodd" d="M935.011 493.057C935.011 547.241 899.62 577.469 853.523 577.469C807.426 577.469 772.034 547.241 772.034 493.057C772.034 378.976 824.045 247.458 853.523 247.458C883.001 247.458 935.011 378.976 935.011 493.057" fill="#CCE3FF"/>
<path d="M853.523 412.463V662.551" stroke="#ECF6FF" stroke-width="8" stroke-linecap="square"/>
<path d="M854.497 544.947L883.338 516.131" stroke="#ECF6FF" stroke-width="8" stroke-linecap="square"/>
<path d="M851.108 490.043L827.508 466.463" stroke="#ECF6FF" stroke-width="8" stroke-linecap="square"/>
<path d="M854.943 453.105L872.96 435.104" stroke="#ECF6FF" stroke-width="8" stroke-linecap="square"/>
<path fill-rule="evenodd" clip-rule="evenodd" d="M826.848 689.733L849.153 793.635H863.909L841.603 689.733H826.848Z" fill="#CCE3FF"/>
<path fill-rule="evenodd" clip-rule="evenodd" d="M468.255 689.732H850.184V673.659H468.255V689.732Z" fill="#D7EBFF"/>
<path fill-rule="evenodd" clip-rule="evenodd" d="M769.2 747.94H843.664V731.866H769.2V747.94Z" fill="#D7EBFF"/>
<path fill-rule="evenodd" clip-rule="evenodd" d="M547.168 583.955L530.43 673.659H550.629L567.368 583.955H547.168Z" fill="#CCE3FF"/>
<path fill-rule="evenodd" clip-rule="evenodd" d="M838.307 583.955L821.568 673.659H841.768L858.506 583.955H838.307Z" fill="#CCE3FF"/>
<path fill-rule="evenodd" clip-rule="evenodd" d="M760.622 689.732H850.185V673.66H760.622V689.732Z" fill="#B6D4FF"/>
<path fill-rule="evenodd" clip-rule="evenodd" d="M878.652 642.43L875.657 658.506H855.454L858.454 642.43H878.652Z" fill="#CCE3FF"/>
<path fill-rule="evenodd" clip-rule="evenodd" d="M858.454 642.43L855.454 658.506H515.521L518.522 642.43H858.454Z" fill="#D7EBFF"/>
<path fill-rule="evenodd" clip-rule="evenodd" d="M884.105 613.193L881.11 629.264H860.907L863.907 613.193H884.105Z" fill="#CCE3FF"/>
<path fill-rule="evenodd" clip-rule="evenodd" d="M863.908 613.193L860.908 629.264H520.975L523.975 613.193H863.908Z" fill="#D7EBFF"/>
<path fill-rule="evenodd" clip-rule="evenodd" d="M869.361 583.957L866.367 600.028H886.564L889.558 583.957H869.361Z" fill="#CCE3FF"/>
<path fill-rule="evenodd" clip-rule="evenodd" d="M529.434 583.957L526.434 600.028H866.367L869.361 583.957H529.434Z" fill="#D7EBFF"/>
<path fill-rule="evenodd" clip-rule="evenodd" d="M769.201 689.733L746.896 793.635H761.651L783.956 689.733H769.201Z" fill="#CCE3FF"/>
<path fill-rule="evenodd" clip-rule="evenodd" d="M534.654 689.732L556.96 793.635H571.715L549.41 689.732H534.654Z" fill="#CCE3FF"/>
<path fill-rule="evenodd" clip-rule="evenodd" d="M477.007 747.939H551.471V731.866H477.007V747.939Z" fill="#D7EBFF"/>
<path fill-rule="evenodd" clip-rule="evenodd" d="M477.007 689.732L454.702 793.635H469.458L491.763 689.732H477.007Z" fill="#CCE3FF"/>
<path fill-rule="evenodd" clip-rule="evenodd" d="M1093.43 587.88H1103.94V120.175H1093.43V587.88Z" fill="#D7EBFF"/>
<path fill-rule="evenodd" clip-rule="evenodd" d="M985.421 132.078L902.23 104.501C898.755 103.349 896.853 99.5626 898.006 96.0876L902.156 83.5689C903.308 80.0939 907.094 78.1932 910.569 79.3449L993.76 106.922C997.235 108.074 999.136 111.861 997.984 115.336L993.834 127.854C992.682 131.329 988.896 133.23 985.421 132.078" fill="#ECF6FF"/>
<path fill-rule="evenodd" clip-rule="evenodd" d="M1078.54 761.284H1118.83V606.276H1078.54V761.284Z" fill="#CCE3FF"/>
<path fill-rule="evenodd" clip-rule="evenodd" d="M1087.08 635.184H1110.29V582.146H1087.08V635.184Z" fill="#CCE3FF"/>
<path fill-rule="evenodd" clip-rule="evenodd" d="M1089.03 131.356H1108.35V108.868H1089.03V131.356Z" fill="#CCE3FF"/>
<path d="M957.218 95.0332C957.218 95.0332 1098.69 126.313 1098.69 202.341" stroke="#DCEEFF" stroke-width="15" stroke-linejoin="bevel"/>
<path fill-rule="evenodd" clip-rule="evenodd" d="M994.71 123.621L903.511 93.3885C895.349 90.6835 890.885 81.7915 893.59 73.63L894.41 71.1583C897.115 62.9969 906.007 58.5325 914.169 61.2381L1005.37 91.47C1013.53 94.1756 1017.99 103.067 1015.29 111.229L1014.47 113.701C1011.76 121.862 1002.87 126.327 994.71 123.621" fill="#CCE3FF"/>
<path d="M883.759 368.129C883.151 368.948 882.839 369.82 882.879 370.746C881.693 374.685 881.054 378.854 881.048 383.167C881.047 383.72 881.057 384.27 881.076 384.818L881.01 432.544L971.573 432.687L971.642 383.376L971.61 383.376C971.61 383.35 971.61 383.325 971.61 383.299C971.648 358.88 951.405 339.056 926.396 339.02C906.798 338.991 890.088 351.125 883.759 368.129Z" fill="#19141E"/>
<path fill-rule="evenodd" clip-rule="evenodd" d="M919.068 427.816C919.068 427.816 927.564 428.067 931.185 426.089L919.519 433.413L919.068 427.816Z" fill="#CF3E83"/>
<path d="M937.324 398.007C932.466 397.617 902.555 394.507 886.113 376.093L886.032 376.115C886.032 376.115 885.632 416.646 900.132 424.97C904.645 427.559 912.353 428.203 919.067 427.815L920.611 446.895L942.536 437.874C942.536 437.874 940.433 416.824 939.52 408.742C943.928 404.741 951.431 402.888 951.445 396.095C951.451 393.749 950.079 389.676 945.007 389.669C938.193 389.662 939.165 397.816 939.165 397.816C938.552 398.055 937.938 398.11 937.324 398.007V398.007Z" fill="#5E93D1"/>
<path fill-rule="evenodd" clip-rule="evenodd" d="M900.599 397.803L895.737 409.59L901.378 409.477L900.599 397.803Z" fill="#2437A8"/>
<path fill-rule="evenodd" clip-rule="evenodd" d="M905.776 398.314C905.898 400.669 907.282 402.503 908.869 402.412C910.457 402.321 911.645 400.338 911.524 397.983C911.403 395.628 910.018 393.793 908.43 393.885C906.844 393.977 905.655 395.959 905.776 398.314" fill="#0D0B6D"/>
<path fill-rule="evenodd" clip-rule="evenodd" d="M890.871 397.938C890.992 400.293 892.377 402.127 893.964 402.036C895.551 401.945 896.74 399.962 896.618 397.607C896.497 395.252 895.113 393.417 893.525 393.509C891.938 393.6 890.749 395.583 890.871 397.938" fill="#0D0B6D"/>
<path d="M902.762 415.123C902.762 415.123 906.438 416.309 910.12 412.214" stroke="#1C295E" stroke-width="3"/>
<path opacity="0.395159" fill-rule="evenodd" clip-rule="evenodd" d="M919.082 427.816C919.082 427.816 927.577 428.067 931.198 426.089L919.533 433.413L919.082 427.816Z" fill="black"/>
<path fill-rule="evenodd" clip-rule="evenodd" d="M1039.63 823.704L1023.53 807.597L1029.12 791.305L1062.97 819.216L1040.02 871.737C1040.02 871.737 1037.99 857.339 1038.1 842.633C1038.17 832.474 1039.63 823.704 1039.63 823.704ZM845.068 862.788L848.697 849.008L865.218 849.626L852.22 888.165L800.679 855.873C816.233 850.389 845.068 862.788 845.068 862.788Z" fill="#0D0B6D"/>
<path fill-rule="evenodd" clip-rule="evenodd" d="M1027.59 811.702L1029.36 791.29L1049.2 807.662L1039.63 823.704L1027.59 811.702ZM851.452 838.328L868.364 841.481L858.692 868.659L845.068 862.789L851.452 838.328Z" fill="#E576C6"/>
<path d="M936.514 745.569C962.768 797.821 1007.96 842.117 1007.96 842.117L1048.43 782.113C1048.43 782.113 994.519 734.783 969.079 630.268C973.355 613.096 976.395 598.951 977.462 589.886C980.961 560.2 963.305 540.212 958.567 535.442H956.393L903.156 535.442C902.019 539.675 897.508 563.403 899.068 598.357C894.369 613.974 888.866 632.826 882.492 655.455C846.204 784.268 829.375 841.074 829.375 841.074L898.361 865.681C898.361 865.681 918.163 806.384 936.514 745.569V745.569Z" fill="#0D0B6D"/>
<path opacity="0.14688" fill-rule="evenodd" clip-rule="evenodd" d="M829.375 841.074L898.361 865.681C898.361 865.681 919.083 803.63 937.777 741.378C949.451 702.545 961.315 661.418 969.08 630.267C973.356 613.096 976.395 598.951 977.462 589.886C980.962 560.2 963.305 540.212 958.567 535.442H919.507C916.259 544.217 909.714 563.037 899.069 598.357C894.369 613.974 888.867 632.825 882.493 655.455C846.205 784.268 829.375 841.074 829.375 841.074" fill="white"/>
<path fill-rule="evenodd" clip-rule="evenodd" d="M873.548 588.955C873.548 588.955 899.062 548.18 900.335 538.067C901.684 527.352 900.473 513.515 900.473 513.515L883.244 503.259L878.885 528.763L860.293 587.114" fill="#E576C6"/>
<path fill-rule="evenodd" clip-rule="evenodd" d="M1010.37 586.627C1010.37 586.627 1011.18 527.526 1007.42 517.793C1003.67 508.06 996.87 495.011 996.87 495.011L976.715 508.486L987.525 525.992L994.976 585.701" fill="#E576C6"/>
<path fill-rule="evenodd" clip-rule="evenodd" d="M918.485 449.964L915.469 536.112L929.464 535.902L928.255 450.286L928.74 449.931L928.235 449.964C928.235 449.964 936.158 441.752 939.233 438.664C937.21 438.802 935.212 438.953 933.248 439.058C927.9 439.334 923.34 439.518 919.351 439.82C918.853 440.497 917.742 442.343 917.873 445.299C917.986 447.711 918.163 448.88 918.294 449.445C918.386 449.839 918.459 449.938 918.478 449.958L918.485 449.964Z" fill="#CE3D29"/>
<path d="M952.896 485.552L965.699 504.95" stroke="#FF9929" stroke-width="3"/>
<path fill-rule="evenodd" clip-rule="evenodd" d="M925.875 452.441C937.382 451.361 942.51 441.734 944.382 438.055C941.592 438.023 938.871 438.239 936.21 438.45C934.973 438.548 933.75 438.645 932.538 438.716C931.271 438.789 930.054 438.856 928.883 438.921C922.965 439.246 918.227 439.507 914.215 440.228C913.896 441.381 911.51 453.783 925.875 452.441ZM880.629 593.523L866.972 587.764C869.069 585.306 870.691 583.439 870.691 583.439C870.691 583.439 878.117 584.372 879.53 587.696C880.271 589.437 880.594 591.43 880.629 593.523ZM857.78 599.163C858.202 598.334 860.333 595.676 862.745 592.774L880.038 599.731C878.628 607.236 875.196 614.199 875.196 614.199C875.196 614.199 878.746 612.034 879.452 613.927C879.766 614.77 880.479 621.503 867.18 621.957C865.769 622.005 862.372 619.133 862.372 619.133C862.372 619.133 864.848 623.861 861.057 624.79C861.057 624.79 854.946 615.634 854.852 613.597C854.759 611.56 856.72 601.246 857.78 599.163ZM990.308 594.198L992.165 588.261L1012.52 589.875C1013.92 593.704 1015.55 598.358 1016.15 600.904C1016.62 602.898 1016.06 609.86 1014.93 613.679C1014.3 615.842 1012.89 617.847 1012.89 617.847C1012.89 617.847 1011.2 621.822 1010.54 622.168C1008.67 623.148 1007.85 621.236 1007.85 621.236C1007.85 621.236 1006.59 626.975 1005.32 626.414C1004.53 626.067 1003.37 624.995 1003.34 623.566C1003.16 614.472 1001.38 604.971 998.25 603.331C996.243 602.278 995.517 605.853 994.837 609.2C994.458 611.066 994.093 612.862 993.528 613.746C992 616.139 985.984 617.844 987.503 613.661C989.584 607.928 989.635 605.52 989.712 601.929C989.715 601.76 989.719 601.588 989.723 601.412C989.811 597.523 990.308 594.198 990.308 594.198Z" fill="#E576C6"/>
<path opacity="0.146601" d="M872.48 595.721C872.48 595.721 870.614 602.77 864.21 604.966C861.971 605.734 862.53 614.801 857.041 613.716" stroke="black" stroke-width="3"/>
<path fill-rule="evenodd" clip-rule="evenodd" d="M939.962 536.438V444.456H910.143V536.438H939.962ZM889.098 597.093L859.617 584.663L857.38 590.616L887.366 602.679L889.098 597.093ZM980.225 581.048L1013.48 583.928L1013.38 589.943L980.225 587.315V581.048Z" fill="#FCBDA4"/>
<path fill-rule="evenodd" clip-rule="evenodd" d="M992.158 588.261L980.217 587.315V581.048L1013.47 583.928L1013.47 583.936L1016.12 584.153C1016.12 584.153 1015.29 532.183 1005.32 503.878C996.589 479.129 980.67 452.25 968.24 444.425C967.497 443.959 966.754 443.519 966.018 443.118L968.469 439.787L941.512 432.316C941.512 432.316 942.34 435.555 939.508 438.381C939.453 438.44 939.393 438.499 939.331 438.56L939.331 438.56C939.296 438.594 939.261 438.628 939.226 438.663C936.15 441.751 928.227 449.964 928.227 449.964L928.733 449.931L928.247 450.286L929.456 535.901L931.137 655.511L1000.05 653.435L994.78 609.445C994.418 611.222 994.061 612.901 993.521 613.746C991.993 616.139 985.976 617.844 987.495 613.661C989.577 607.929 989.628 605.521 989.704 601.929C989.708 601.76 989.712 601.588 989.716 601.412C989.804 597.523 990.301 594.198 990.301 594.198L992.158 588.261ZM890.627 597.733L884.471 655.511H911.29L915.469 536.112L902.144 536.306L915.469 536.112L918.484 449.964L918.479 449.957C918.458 449.938 918.386 449.839 918.294 449.445C918.162 448.88 917.986 447.71 917.873 445.299C917.743 442.342 918.852 440.496 919.352 439.82C919.496 439.629 919.588 439.53 919.588 439.53L919.102 434.944L897.841 445.476L898.951 446.061L902.88 448.147L898.951 446.061C898.413 446.482 897.881 446.935 897.355 447.421C880.115 463.242 877.598 521.007 877.598 521.007L857.435 583.739L890.627 597.733ZM904.076 471.435L897.638 531.894L904.076 471.435L908.34 448.939L903.433 448.44L908.34 448.939L904.076 471.435Z" fill="#CE3D29"/>
<path fill-rule="evenodd" clip-rule="evenodd" d="M918.478 449.959L918.293 449.445C918.385 449.84 918.458 449.939 918.478 449.959" fill="#CE3D29"/>
<path opacity="0.20459" d="M968.478 439.785C968.478 439.785 959.601 451.164 949.463 453.186C939.87 455.099 928.234 449.962 928.234 449.962" stroke="black" stroke-width="3"/>
<path opacity="0.20459" d="M897.84 445.479C897.84 445.479 898.62 451.127 902.308 452.542C908.77 455.021 917.191 449.535 917.191 449.535" stroke="black" stroke-width="3"/>
<path opacity="0.201265" d="M890.611 597.852L898.104 490.447" stroke="black" stroke-width="3"/>
<path opacity="0.201265" fill-rule="evenodd" clip-rule="evenodd" d="M906.332 495.352C906.401 497.611 907.968 499.396 909.835 499.34C911.701 499.284 913.159 497.407 913.09 495.148C913.023 492.889 911.454 491.103 909.589 491.16C907.722 491.216 906.264 493.093 906.332 495.352" fill="black"/>
<path opacity="0.201265" fill-rule="evenodd" clip-rule="evenodd" d="M908.016 465.222C908.084 467.481 909.652 469.266 911.518 469.211C913.384 469.154 914.842 467.277 914.774 465.018C914.706 462.759 913.138 460.974 911.272 461.03C909.405 461.086 907.948 462.963 908.016 465.222" fill="black"/>
<path opacity="0.201265" fill-rule="evenodd" clip-rule="evenodd" d="M904.65 525.482C904.718 527.741 906.286 529.527 908.152 529.471C910.018 529.414 911.476 527.537 911.408 525.278C911.34 523.02 909.772 521.234 907.906 521.29C906.039 521.346 904.581 523.223 904.65 525.482" fill="black"/>
<path opacity="0.196568" d="M952.895 481.448L965.699 519.76L971.396 580.071L980.225 581.048" stroke="black" stroke-width="3"/>
<path opacity="0.201265" d="M970.466 570.223L1008.46 573.567" stroke="black" stroke-width="3"/>
<path opacity="0.201265" d="M890.61 588.955L866.409 578.016" stroke="black" stroke-width="3"/>
<path fill-rule="evenodd" clip-rule="evenodd" d="M417.612 362.065C417.612 371.484 411.556 379.119 404.085 379.119C396.615 379.119 390.559 371.484 390.559 362.065C390.559 352.646 396.615 345.01 404.085 345.01C411.556 345.01 417.612 352.646 417.612 362.065" fill="#19141E"/>
<path d="M385.602 429.625L385.036 410.037C385.036 410.037 408.786 411.933 413.866 409.288C413.866 409.288 420.076 377.224 412.67 359.468L412.52 358.777L362.402 352.901L359.592 381.725C357.904 376.734 343.971 371.075 340.329 378.222C332.436 393.708 360.657 404.135 360.657 404.135L357.791 429.86" fill="#E576C6"/>
<path opacity="0.398926" fill-rule="evenodd" clip-rule="evenodd" d="M385.036 410.037L369.021 406.596L384.96 417.386L385.036 410.037Z" fill="black"/>
<path fill-rule="evenodd" clip-rule="evenodd" d="M397.839 381.359L403.372 394.919L396.74 395.003L397.839 381.359Z" fill="#405FD3"/>
<path fill-rule="evenodd" clip-rule="evenodd" d="M391.937 381.881C392.267 383.707 391.056 385.455 389.235 385.785C387.413 386.115 385.669 384.903 385.339 383.077C385.01 381.251 386.219 379.503 388.041 379.173C389.863 378.843 391.607 380.055 391.937 381.881" fill="#0D0B6D"/>
<path fill-rule="evenodd" clip-rule="evenodd" d="M410.533 381.881C410.862 383.707 409.652 385.455 407.831 385.785C406.008 386.115 404.264 384.903 403.935 383.077C403.605 381.251 404.815 379.503 406.637 379.173C408.459 378.843 410.203 380.055 410.533 381.881" fill="#0D0B6D"/>
<path d="M363.313 386.645C358.561 378.494 351.686 376.008 348.6 375.279C347.369 371.714 346.431 367.579 345.772 363.181C344.004 351.411 352.542 340.672 359.439 337.589C366.421 334.468 378.459 330.144 396.079 336.014C407.925 339.963 415.497 330.508 422.468 334.546C434.38 341.448 423.3 371.666 393.096 363.99C371.491 358.499 370.936 359.876 370.75 363.868C370.151 376.77 368.144 384.36 363.313 386.645V386.645Z" fill="#2F2F3D"/>
<path fill-rule="evenodd" clip-rule="evenodd" d="M388.625 395.507C388.625 395.507 390.754 399.385 395.356 399.293Z" fill="white"/>
<path d="M388.625 395.507C388.625 395.507 390.754 399.385 395.356 399.293" stroke="#252535" stroke-width="4"/>
<path fill-rule="evenodd" clip-rule="evenodd" d="M396.231 382.043C396.231 386.288 392.797 389.729 388.561 389.729C384.326 389.729 380.892 386.288 380.892 382.043C380.892 377.798 384.326 374.356 388.561 374.356C392.797 374.356 396.231 377.798 396.231 382.043Z" stroke="#252535" stroke-width="4"/>
<path fill-rule="evenodd" clip-rule="evenodd" d="M415.543 382.043C415.543 386.288 412.109 389.729 407.873 389.729C403.637 389.729 400.203 386.288 400.203 382.043C400.203 377.798 403.637 374.356 407.873 374.356C412.109 374.356 415.543 377.798 415.543 382.043Z" stroke="#252535" stroke-width="4"/>
<path d="M399.579 382.399H396.263" stroke="#252535" stroke-width="4"/>
<path d="M380.891 382.043H361.944" stroke="#252535" stroke-width="4"/>
<path fill-rule="evenodd" clip-rule="evenodd" d="M405.325 869.867L405.512 853.802L384.814 843.37L381.81 889.293H453.52C441.319 875.539 405.325 869.867 405.325 869.867ZM313.467 870.493L313.654 852.45L300.16 863.444L289.302 869.495L285.718 889.293H334.799C328.628 872.473 313.467 870.493 313.467 870.493Z" fill="#0D0B6D"/>
<path fill-rule="evenodd" clip-rule="evenodd" d="M313.654 852.45L292.956 846.225L289.301 869.495L313.467 870.493L313.654 852.45ZM405.512 853.803L384.814 847.579L383.145 868.869L405.326 869.867L405.512 853.803Z" fill="#E576C6"/>
<path d="M408.48 848.535L408.003 863.444H380.701L381.179 848.491C378.121 847.263 375.935 844.31 375.861 840.821L371.466 617.507L323.98 842.962C323.311 846.133 320.961 848.596 317.976 849.504L316.19 863.444H287.564L290.028 848.053C287.644 846.204 286.262 843.163 286.738 839.915L330.455 541.103L369.962 541.103L369.96 540.989H417.811L414.942 840.403C414.903 844.341 412.165 847.634 408.48 848.535V848.535Z" fill="#2F2F3D"/>
<path opacity="0.197824" fill-rule="evenodd" clip-rule="evenodd" d="M371.222 621.046L379.6 583.878L373.296 696.56L371.222 621.046Z" fill="black"/>
<path d="M340.675 541.384L345.26 542.133L295.254 846.643L290.655 845.874L340.675 541.384Z" fill="#EFEFEF"/>
<path fill-rule="evenodd" clip-rule="evenodd" d="M483.534 438.677L483.205 433.007C483.205 433.007 483.212 429.062 483.724 424.804C483.853 423.735 484.135 422.618 484.437 421.425L484.437 421.425C485.337 417.862 486.408 413.623 484.066 407.991C480.938 400.48 488.415 405.666 490.071 409.239C490.711 410.62 490.897 412.707 491.082 414.777V414.777C491.295 417.172 491.507 419.544 492.416 420.774C493.849 419.996 494.801 418.984 494.801 418.984L510.918 398.2C511.437 397.501 512.396 397.292 513.165 397.704L514.032 398.174C514.945 398.671 515.234 399.833 514.65 400.682C513.532 402.314 511.58 405.066 509.54 407.942C505.838 413.162 501.846 418.791 502.015 418.879L502.442 419.395L521.371 399.552C521.962 398.893 522.954 398.775 523.684 399.278L524.82 400.062C525.648 400.63 525.826 401.767 525.208 402.55C523.19 405.142 518.193 410.754 514.033 415.426L514.033 415.426C510.434 419.468 507.462 422.807 507.587 422.877L508.152 423.419L525.773 407.945C526.397 407.253 527.462 407.175 528.184 407.756L529.045 408.455C529.8 409.062 529.912 410.166 529.295 410.911L512.652 426.469L513.132 427.22L527.58 417.129C528.243 416.541 529.242 416.541 529.912 417.122L530.313 417.482C531.023 418.109 531.101 419.186 530.484 419.911C529.5 421.068 527.554 422.588 525.233 424.4L525.233 424.4C522.563 426.485 519.397 428.957 516.634 431.707C515.112 433.223 513.885 434.708 512.642 436.213C510.61 438.671 508.536 441.181 505.064 443.961C502.992 445.626 501.116 446.594 499.331 447.516C499.079 447.646 498.828 447.776 498.579 447.906L483.534 438.677ZM353.635 425.669C353.635 425.669 364.77 425.647 372.806 425.621C380.841 425.593 390.946 428.971 390.946 428.971C390.946 428.971 396.204 440.777 377.939 439.708C359.674 438.638 353.635 425.669 353.635 425.669ZM292.734 473.446C292.734 473.446 274.91 500.188 275.314 515.06C275.791 532.595 331.864 575.68 331.864 575.68L346.396 563.848L311.096 514.658L323.934 487.326L292.734 473.446Z" fill="#E576C6"/>
<path d="M342.174 542.407L350.854 554.049L324.708 576.826C324.708 576.826 276.728 541.679 275.247 514.122C274.303 496.57 289.668 471.516 289.668 471.516C289.668 471.516 308.952 440.712 331.245 430.316C335.82 428.183 346.911 426.403 353.635 425.669C355.696 425.444 354.464 426.246 355.172 427.605C355.911 429.024 358.161 431.127 359.717 432.698C362.957 435.97 369.342 438.447 372.772 438.954C375.386 439.34 380.437 439.94 382.867 439.614C385.297 439.288 387.939 438.191 388.645 437.54C389.351 436.889 390.401 436.074 390.946 434.818C391.491 433.563 391.463 433.923 391.463 432.765C391.463 431.607 391.403 431.778 391.29 431.227C391.176 430.676 391.176 430.344 391.109 430.06C390.814 428.799 390.946 428.971 390.946 428.971C404.106 432.943 410.772 434.413 415.566 440.192L452.203 465.889L477.271 433.197L509.616 454.902C509.616 454.902 480.977 508.227 460.222 514.122C443.503 518.871 426.566 504.102 420.611 498.178L427.686 534.076C428.82 540.273 423.39 542.619 418.552 542.4L342.174 542.407Z" fill="#72A065"/>
<path opacity="0.201242" fill-rule="evenodd" clip-rule="evenodd" d="M420.5 498.199L416.121 480.904L427.945 504.54L420.5 498.199Z" fill="black"/>
<path opacity="0.200591" d="M338.927 538.238L318.509 509.298L343.172 471.917" stroke="black" stroke-width="5"/>
<path d="M204.555 740.777L196.004 820.037" stroke="#19141E" stroke-width="23" stroke-linecap="round"/>
<path d="M137.674 740.777L129.123 820.037" stroke="#19141E" stroke-width="23" stroke-linecap="round"/>
<path d="M192.405 598.689L204.238 729.995" stroke="#19141E" stroke-width="23" stroke-linecap="round"/>
<path d="M131.339 597.695C131.36 593.522 134.738 590.156 138.884 590.177C143.029 590.198 146.373 593.598 146.352 597.77L145.7 728.744C145.679 732.917 142.301 736.283 138.156 736.262C134.01 736.241 130.666 732.841 130.687 728.668L131.339 597.695Z" fill="#19141E"/>
<path fill-rule="evenodd" clip-rule="evenodd" d="M122.874 593.31C122.896 600.119 126.206 606.18 131.278 609.968L131.339 597.695C131.36 593.522 134.738 590.156 138.884 590.177C143.029 590.198 146.373 593.598 146.352 597.77L146.271 614.053L190.4 613.904C201.778 613.865 211.056 604.464 211.018 593.012C210.98 581.56 201.64 572.222 190.261 572.26L143.491 572.419C132.113 572.457 122.835 581.858 122.874 593.31ZM166.96 874.304L165.333 889.345C161.901 882.183 155.369 876.809 147.489 874.988L156.542 791.067C157.012 786.711 153.886 782.802 149.558 782.329L116.111 778.669C111.777 778.196 107.893 781.344 107.423 785.7L97.8665 874.304L94.9944 900.854L94.1328 908.857H237.032V900.854C237.026 888.246 228.292 877.695 216.582 874.988L225.636 791.067C226.106 786.711 222.979 782.802 218.651 782.329L185.204 778.669C180.87 778.196 176.986 781.344 176.516 785.7L166.96 874.304ZM155.03 734.091C155.03 744.524 146.627 752.982 136.262 752.982C125.896 752.982 117.493 744.524 117.493 734.091C117.493 723.657 125.896 715.199 136.262 715.199C146.627 715.199 155.03 723.657 155.03 734.091ZM205.277 752.982C215.642 752.982 224.046 744.524 224.046 734.091C224.046 723.657 215.642 715.199 205.277 715.199C194.912 715.199 186.508 723.657 186.508 734.091C186.508 744.524 194.912 752.982 205.277 752.982Z" fill="#6CA1FF"/>
<path opacity="0.397182" fill-rule="evenodd" clip-rule="evenodd" d="M167.889 900.795C167.887 896.671 166.951 892.767 165.283 889.286L166.91 874.245L176.466 785.641C176.936 781.285 180.82 778.137 185.154 778.611L218.601 782.27C222.929 782.743 226.055 786.652 225.585 791.008L216.532 874.929C228.242 877.636 236.976 888.187 236.982 900.795V908.798H94.1328L94.9944 900.795H167.889Z" fill="black"/>
<path opacity="0.401204" fill-rule="evenodd" clip-rule="evenodd" d="M224.035 734.053C224.035 744.486 215.631 752.944 205.266 752.944C194.901 752.944 186.497 744.486 186.497 734.053C186.497 723.619 194.901 715.162 205.266 715.162C215.631 715.162 224.035 723.619 224.035 734.053" fill="black"/>
<path opacity="0.596656" fill-rule="evenodd" clip-rule="evenodd" d="M123.863 796.504C123.863 799.518 121.437 801.961 118.442 801.961C115.448 801.961 113.021 799.518 113.021 796.504C113.021 793.49 115.448 791.047 118.442 791.047C121.437 791.047 123.863 793.49 123.863 796.504ZM121.947 814.299C121.947 817.313 119.52 819.756 116.526 819.756C113.532 819.756 111.104 817.313 111.104 814.299C111.104 811.285 113.532 808.842 116.526 808.842C119.52 808.842 121.947 811.285 121.947 814.299Z" fill="black"/>
<path opacity="0.396019" fill-rule="evenodd" clip-rule="evenodd" d="M118.188 881.666C118.188 885.631 114.995 888.846 111.056 888.846C107.117 888.846 103.924 885.631 103.924 881.666C103.924 877.702 107.117 874.488 111.056 874.488C114.995 874.488 118.188 877.702 118.188 881.666" fill="black"/>
<path d="M210.711 558.218L240.166 621.825" stroke="#19141E" stroke-width="16" stroke-linecap="round"/>
<path fill-rule="evenodd" clip-rule="evenodd" d="M153.132 572.26H175.976V553.864H153.132V572.26Z" fill="#19141E"/>
<path d="M99.9902 628.408L106.309 559.063" stroke="#19141E" stroke-width="16" stroke-linecap="round"/>
<path fill-rule="evenodd" clip-rule="evenodd" d="M124.55 554.676L124.097 555.572C120.057 563.559 110.217 566.788 102.231 562.748L100.884 562.067C92.8977 558.027 89.6685 548.187 93.7085 540.2L116.566 495.011C119.641 488.931 126.077 485.608 132.498 486.15C135.532 484.906 138.848 484.22 142.317 484.22H186.792C193.042 484.22 198.797 486.448 203.301 490.149C209.241 491.466 214.225 496.072 215.682 502.366L227.113 551.701C229.133 560.42 223.651 569.207 214.932 571.228L213.462 571.568C205.158 573.492 196.791 568.611 194.269 560.608C191.898 561.323 189.388 561.707 186.792 561.707H142.317C135.469 561.707 129.216 559.032 124.55 554.676ZM246.25 649L238.898 655.563C238.562 655.186 238.031 654.551 237.369 653.69C236.287 652.284 235.207 650.727 234.195 649.048C231.462 644.517 229.686 639.931 229.375 635.376C228.958 629.252 231.314 623.807 236.692 619.883C242.075 615.955 247.685 615.617 252.487 618.71C255.911 620.915 258.549 624.573 260.72 629.281C261.816 631.659 262.723 634.169 263.462 636.675C263.72 637.549 263.94 638.364 264.122 639.101C264.235 639.558 264.313 639.898 264.357 640.104L254.716 642.148C254.694 642.047 254.641 641.815 254.556 641.469C254.407 640.869 254.225 640.193 254.01 639.463C253.396 637.384 252.646 635.309 251.77 633.407C250.312 630.246 248.676 627.978 247.15 626.995C245.881 626.177 244.686 626.249 242.501 627.844C239.945 629.709 239.014 631.861 239.207 634.706C239.394 637.435 240.639 640.65 242.634 643.959C243.442 645.297 244.312 646.553 245.179 647.68C245.479 648.07 245.755 648.413 245.998 648.704C246.133 648.866 246.22 648.966 246.25 649ZM80.1121 654.117L89.9502 653.536C89.9488 653.511 89.9447 653.423 89.9401 653.279C89.9065 652.228 89.9265 650.878 90.0415 649.353C90.207 647.16 90.5441 645.017 91.0807 643.058C92.6734 637.245 95.4164 634.436 100.144 634.623C104.218 634.783 105.231 636.669 104.494 641.968C104.206 644.037 103.604 646.327 102.78 648.682C102.346 649.921 101.881 651.094 101.417 652.158C101.257 652.526 101.109 652.851 100.979 653.129C100.906 653.285 100.858 653.384 100.841 653.42L109.668 657.802C109.839 657.458 110.111 656.876 110.452 656.095C111.008 654.818 111.563 653.42 112.081 651.938C113.105 649.013 113.867 646.116 114.255 643.327C114.878 638.85 114.52 634.895 112.75 631.603C110.478 627.376 106.228 625 100.533 624.775C90.42 624.377 84.2497 630.695 81.5757 640.454C80.3166 645.05 79.9656 649.703 80.0899 653.593C80.0974 653.829 80.1055 654.005 80.1121 654.117Z" fill="#6CA1FF"/>
<path fill-rule="evenodd" clip-rule="evenodd" d="M165.06 536.31H186.893C191.23 536.31 194.777 532.762 194.777 528.426V515.622C194.777 511.286 191.23 507.738 186.893 507.738H165.06C160.723 507.738 157.176 511.286 157.176 515.622V528.426C157.176 532.762 160.723 536.31 165.06 536.31" fill="#19141E"/>
<path opacity="0.399182" fill-rule="evenodd" clip-rule="evenodd" d="M116.497 495.11C120.537 487.123 130.377 483.894 138.364 487.934L139.71 488.614C147.696 492.654 150.926 502.494 146.886 510.482L124.029 555.671C119.988 563.658 110.149 566.887 102.162 562.847L100.816 562.166C92.829 558.126 89.5997 548.286 93.6397 540.299L116.497 495.11ZM207.464 561.834C204.998 560.322 203.906 557.42 204.58 554.755C201.702 557.413 198.23 559.435 194.392 560.592C196.915 568.595 205.281 573.476 213.586 571.552L215.056 571.212C223.775 569.191 229.256 560.404 227.237 551.685L215.806 502.35C214.348 496.056 209.364 491.45 203.425 490.133C209.258 494.926 212.995 502.189 212.995 510.283V535.613C212.995 541.077 211.291 546.163 208.389 550.366C210.226 549.615 212.383 549.719 214.205 550.835C217.242 552.696 218.195 556.667 216.334 559.704C214.473 562.742 210.502 563.695 207.464 561.834ZM238.784 655.21L246.136 648.647C246.106 648.614 246.019 648.514 245.884 648.352C245.641 648.061 245.365 647.718 245.065 647.328C244.198 646.201 243.328 644.945 242.52 643.606C240.525 640.297 239.279 637.083 239.093 634.353C238.9 631.509 239.831 629.357 242.387 627.492C244.572 625.897 245.767 625.825 247.036 626.643C248.562 627.626 250.198 629.893 251.656 633.055C252.532 634.956 253.282 637.031 253.895 639.111C254.111 639.841 254.293 640.516 254.442 641.117C254.527 641.462 254.58 641.695 254.602 641.795L264.242 639.751C264.199 639.546 264.121 639.205 264.008 638.748C263.826 638.012 263.606 637.197 263.348 636.322C262.609 633.817 261.702 631.307 260.606 628.929C258.435 624.22 255.797 620.563 252.373 618.358C247.571 615.265 241.961 615.603 236.578 619.53C231.2 623.455 228.844 628.899 229.261 635.023C229.571 639.578 231.348 644.164 234.081 648.696C235.093 650.374 236.173 651.932 237.255 653.338C237.917 654.198 238.448 654.834 238.784 655.21ZM111.404 540.419C114.814 541.449 116.742 545.049 115.713 548.459C114.682 551.869 111.083 553.797 107.673 552.767C104.263 551.737 102.334 548.137 103.364 544.728C104.394 541.317 107.994 539.389 111.404 540.419ZM137.162 506.054C138.192 502.644 136.263 499.045 132.853 498.014C129.443 496.983 125.843 498.912 124.813 502.322C123.783 505.732 125.712 509.331 129.122 510.362C132.532 511.393 136.132 509.464 137.162 506.054ZM80.117 654.182L89.9551 653.6C89.9536 653.575 89.9496 653.488 89.945 653.343C89.9114 652.292 89.9314 650.943 90.0464 649.418C90.2118 647.224 90.5489 645.081 91.0855 643.123C92.6783 637.31 95.4213 634.501 100.149 634.687C104.223 634.848 105.236 636.733 104.499 642.033C104.211 644.102 103.609 646.392 102.784 648.747C102.351 649.985 101.885 651.158 101.422 652.223C101.261 652.59 101.114 652.916 100.984 653.194C100.911 653.35 100.863 653.448 100.845 653.484L109.673 657.867C109.844 657.522 110.116 656.941 110.457 656.159C111.013 654.882 111.568 653.485 112.086 652.003C113.11 649.078 113.872 646.181 114.26 643.392C114.883 638.915 114.525 634.96 112.755 631.668C110.483 627.441 106.233 625.064 100.537 624.84C90.4248 624.441 84.2546 630.759 81.5806 640.519C80.3215 645.114 79.9705 649.768 80.0948 653.658C80.1023 653.893 80.1104 654.07 80.117 654.182Z" fill="black"/>
<path opacity="0.601772" fill-rule="evenodd" clip-rule="evenodd" d="M115.693 548.444C114.663 551.854 111.063 553.782 107.653 552.753C104.244 551.722 102.315 548.123 103.345 544.713C104.375 541.302 107.975 539.374 111.385 540.404C114.795 541.434 116.723 545.034 115.693 548.444ZM137.143 506.039C136.112 509.449 132.513 511.378 129.103 510.348C125.693 509.317 123.764 505.718 124.794 502.308C125.824 498.898 129.424 496.969 132.834 497.999C136.244 499.03 138.173 502.629 137.143 506.039ZM216.329 559.743C214.468 562.78 210.497 563.733 207.459 561.872C204.423 560.011 203.469 556.04 205.331 553.002C207.191 549.966 211.162 549.012 214.2 550.873C217.237 552.734 218.19 556.705 216.329 559.743Z" fill="black"/>
<path d="M156.882 505H158.087V498.93H160.417V497.8H154.552V498.93H156.882V505ZM160.521 505H161.761L162.251 503.44H165.091L165.586 505H166.826L164.556 497.8H162.791L160.521 505ZM162.606 502.315L163.661 498.965L164.731 502.315H162.606ZM167.73 505H168.935V502.485H170.705C170.772 502.485 170.86 502.482 170.97 502.475C171.084 502.468 171.187 502.458 171.28 502.445C171.9 502.348 172.36 502.09 172.66 501.67C172.964 501.247 173.115 500.738 173.115 500.145C173.115 499.548 172.965 499.04 172.665 498.62C172.369 498.197 171.907 497.937 171.28 497.84C171.187 497.823 171.085 497.813 170.975 497.81C170.865 497.803 170.775 497.8 170.705 497.8H167.73V505ZM168.935 501.36V498.93H170.655C170.722 498.93 170.797 498.933 170.88 498.94C170.964 498.947 171.04 498.958 171.11 498.975C171.31 499.025 171.467 499.115 171.58 499.245C171.697 499.372 171.779 499.515 171.825 499.675C171.875 499.835 171.9 499.992 171.9 500.145C171.9 500.298 171.875 500.455 171.825 500.615C171.779 500.775 171.697 500.918 171.58 501.045C171.467 501.172 171.31 501.26 171.11 501.31C171.04 501.33 170.964 501.343 170.88 501.35C170.797 501.357 170.722 501.36 170.655 501.36H168.935ZM176.707 505.15C177.22 505.15 177.67 505.042 178.057 504.825C178.447 504.605 178.75 504.3 178.967 503.91C179.187 503.52 179.297 503.07 179.297 502.56V500.24C179.297 499.727 179.187 499.277 178.967 498.89C178.75 498.5 178.447 498.197 178.057 497.98C177.67 497.76 177.22 497.65 176.707 497.65C176.194 497.65 175.742 497.76 175.352 497.98C174.965 498.197 174.662 498.5 174.442 498.89C174.225 499.277 174.117 499.727 174.117 500.24V502.56C174.117 503.07 174.225 503.52 174.442 503.91C174.662 504.3 174.965 504.605 175.352 504.825C175.742 505.042 176.194 505.15 176.707 505.15ZM176.707 504.005C176.454 504.005 176.224 503.945 176.017 503.825C175.814 503.702 175.65 503.538 175.527 503.335C175.407 503.128 175.347 502.898 175.347 502.645V500.15C175.347 499.893 175.407 499.663 175.527 499.46C175.65 499.253 175.814 499.09 176.017 498.97C176.224 498.847 176.454 498.785 176.707 498.785C176.96 498.785 177.189 498.847 177.392 498.97C177.599 499.09 177.762 499.253 177.882 499.46C178.005 499.663 178.067 499.893 178.067 500.15V502.645C178.067 502.898 178.005 503.128 177.882 503.335C177.762 503.538 177.599 503.702 177.392 503.825C177.189 503.945 176.96 504.005 176.707 504.005ZM183.289 505.15C183.802 505.15 184.252 505.042 184.639 504.825C185.029 504.605 185.332 504.3 185.549 503.91C185.769 503.52 185.879 503.07 185.879 502.56V500.24C185.879 499.727 185.769 499.277 185.549 498.89C185.332 498.5 185.029 498.197 184.639 497.98C184.252 497.76 183.802 497.65 183.289 497.65C182.776 497.65 182.324 497.76 181.934 497.98C181.547 498.197 181.244 498.5 181.024 498.89C180.807 499.277 180.699 499.727 180.699 500.24V502.56C180.699 503.07 180.807 503.52 181.024 503.91C181.244 504.3 181.547 504.605 181.934 504.825C182.324 505.042 182.776 505.15 183.289 505.15ZM183.289 504.005C183.036 504.005 182.806 503.945 182.599 503.825C182.396 503.702 182.232 503.538 182.109 503.335C181.989 503.128 181.929 502.898 181.929 502.645V500.15C181.929 499.893 181.989 499.663 182.109 499.46C182.232 499.253 182.396 499.09 182.599 498.97C182.806 498.847 183.036 498.785 183.289 498.785C183.542 498.785 183.771 498.847 183.974 498.97C184.181 499.09 184.344 499.253 184.464 499.46C184.587 499.663 184.649 499.893 184.649 500.15V502.645C184.649 502.898 184.587 503.128 184.464 503.335C184.344 503.538 184.181 503.702 183.974 503.825C183.771 503.945 183.542 504.005 183.289 504.005ZM188.531 505H189.761V497.8H188.531L187.181 498.61V499.94L188.531 499.115V505ZM194.256 505.15C194.769 505.15 195.219 505.042 195.606 504.825C195.996 504.605 196.299 504.3 196.516 503.91C196.736 503.52 196.846 503.07 196.846 502.56V500.24C196.846 499.727 196.736 499.277 196.516 498.89C196.299 498.5 195.996 498.197 195.606 497.98C195.219 497.76 194.769 497.65 194.256 497.65C193.742 497.65 193.291 497.76 192.901 497.98C192.514 498.197 192.211 498.5 191.991 498.89C191.774 499.277 191.666 499.727 191.666 500.24V502.56C191.666 503.07 191.774 503.52 191.991 503.91C192.211 504.3 192.514 504.605 192.901 504.825C193.291 505.042 193.742 505.15 194.256 505.15ZM194.256 504.005C194.002 504.005 193.772 503.945 193.566 503.825C193.362 503.702 193.199 503.538 193.076 503.335C192.956 503.128 192.896 502.898 192.896 502.645V500.15C192.896 499.893 192.956 499.663 193.076 499.46C193.199 499.253 193.362 499.09 193.566 498.97C193.772 498.847 194.002 498.785 194.256 498.785C194.509 498.785 194.737 498.847 194.941 498.97C195.147 499.09 195.311 499.253 195.431 499.46C195.554 499.663 195.616 499.893 195.616 500.15V502.645C195.616 502.898 195.554 503.128 195.431 503.335C195.311 503.538 195.147 503.702 194.941 503.825C194.737 503.945 194.509 504.005 194.256 504.005Z" fill="#19141E"/>
<path d="M208.828 441.598V395.708" stroke="#19141E" stroke-width="7"/>
<path fill-rule="evenodd" clip-rule="evenodd" d="M212.957 461.077H193.982V432.794H212.957C220.735 432.794 227.098 439.157 227.098 446.935C227.098 454.713 220.735 461.077 212.957 461.077" fill="#19141E"/>
<path fill-rule="evenodd" clip-rule="evenodd" d="M198.654 386.705C199.31 381.671 203.615 377.784 208.828 377.784C214.494 377.784 219.088 382.378 219.088 388.044C219.088 393.711 214.494 398.305 208.828 398.305C204.683 398.305 201.113 395.848 199.493 392.31L192.338 386.836L182.601 394.285L172.872 386.836L163.139 394.285L153.41 386.836L143.678 394.285L138.306 390.173C137.326 394.818 133.204 398.305 128.267 398.305C122.601 398.305 118.007 393.711 118.007 388.044C118.007 382.378 122.601 377.784 128.267 377.784C132.887 377.784 136.793 380.837 138.079 385.035L143.678 389.321L153.41 381.872L163.14 389.321L172.872 381.872L182.602 389.321L192.338 381.872L198.654 386.705ZM205.121 481.976H131.266C125.386 481.976 120.619 477.209 120.619 471.329V422.541C120.619 416.661 125.386 411.894 131.266 411.894H205.121C211.002 411.894 215.768 416.661 215.768 422.541V471.329C215.768 477.209 211.002 481.976 205.121 481.976ZM138.149 491.633H198.238C200.904 491.633 203.066 489.471 203.066 486.804C203.066 484.138 200.904 481.976 198.238 481.976H138.149C135.483 481.976 133.321 484.138 133.321 486.804C133.321 489.471 135.483 491.633 138.149 491.633Z" fill="#6CA1FF"/>
<path opacity="0.404367" d="M153.41 386.836L143.678 394.285L138.307 390.213L138.054 385.017L143.678 389.321L153.41 381.872L163.14 389.321L172.872 381.872L182.602 389.321L192.338 381.872L198.567 386.836L199.604 392.344L192.338 386.836L182.601 394.285L172.872 386.836L163.14 394.285L153.41 386.836Z" fill="black"/>
<path opacity="0.395624" fill-rule="evenodd" clip-rule="evenodd" d="M198.238 491.633H138.15C135.484 491.633 133.321 489.471 133.321 486.804C133.321 484.138 135.484 481.976 138.15 481.976H198.238C200.905 481.976 203.066 484.138 203.066 486.804C203.066 489.471 200.905 491.633 198.238 491.633" fill="black"/>
<path fill-rule="evenodd" clip-rule="evenodd" d="M117.209 461.077H136.183V432.794H117.209C109.431 432.794 103.067 439.157 103.067 446.935C103.067 454.713 109.431 461.077 117.209 461.077" fill="#19141E"/>
<path fill-rule="evenodd" clip-rule="evenodd" d="M208.828 446.935C208.828 457.749 201.824 466.516 193.185 466.516C184.546 466.516 177.543 457.749 177.543 446.935C177.543 436.12 184.546 427.353 193.185 427.353C201.824 427.353 208.828 436.12 208.828 446.935" fill="#19141E"/>
<path fill-rule="evenodd" clip-rule="evenodd" d="M185.834 466.516H193.185V427.353H185.834V466.516Z" fill="#19141E"/>
<path fill-rule="evenodd" clip-rule="evenodd" d="M201.477 446.935C201.477 457.749 194.473 466.516 185.834 466.516C177.195 466.516 170.191 457.749 170.191 446.935C170.191 436.12 177.195 427.353 185.834 427.353C194.473 427.353 201.477 436.12 201.477 446.935" fill="white"/>
<path fill-rule="evenodd" clip-rule="evenodd" d="M193.842 445.621C193.842 449.428 191.377 452.514 188.336 452.514C185.294 452.514 182.829 449.428 182.829 445.621C182.829 441.814 185.294 438.728 188.336 438.728C191.377 438.728 193.842 441.814 193.842 445.621" fill="#19141E"/>
<path d="M128.268 441.599V397.823" stroke="#19141E" stroke-width="7"/>
<path d="M1141.23 566.569L1129.39 697.385" stroke="#19141E" stroke-width="16" stroke-linecap="round"/>
<path d="M1129.39 709.201L1134.31 859.583" stroke="#19141E" stroke-width="16" stroke-linecap="round"/>
<path d="M1188.26 565.616L1188.91 696.1" stroke="#19141E" stroke-width="16" stroke-linecap="round"/>
<path d="M1188.91 701.682L1206.47 863.812" stroke="#19141E" stroke-width="16" stroke-linecap="round"/>
<path fill-rule="evenodd" clip-rule="evenodd" d="M1194.23 561.073C1194.23 566.153 1190.09 570.309 1185.02 570.309H1143.52C1138.46 570.309 1134.31 566.153 1134.31 561.073C1134.31 555.993 1138.46 551.837 1143.52 551.837H1185.02C1190.09 551.837 1194.23 555.993 1194.23 561.073ZM1185.73 682.582C1185.7 682.582 1185.67 682.582 1185.64 682.582C1178.7 682.582 1173.07 689.796 1173.07 698.695C1173.07 707.593 1178.7 714.806 1185.64 714.807L1192.55 714.807V714.801C1199.33 714.568 1204.78 707.447 1204.78 698.695C1204.78 689.943 1199.33 682.821 1192.55 682.588V682.582H1192.3C1192.27 682.582 1192.24 682.582 1192.21 682.582C1192.18 682.582 1192.15 682.582 1192.12 682.582H1185.73ZM1126.87 682.582C1126.84 682.582 1126.81 682.582 1126.78 682.582C1119.84 682.582 1114.21 689.796 1114.21 698.695C1114.21 707.593 1119.84 714.806 1126.78 714.807L1133.69 714.807V714.801C1140.48 714.568 1145.92 707.446 1145.92 698.695C1145.92 689.943 1140.48 682.821 1133.69 682.588V682.582H1133.44L1133.38 682.582L1133.35 682.582C1133.32 682.582 1133.29 682.582 1133.26 682.582H1126.87ZM1167.74 875.578H1219.86L1211.62 854.43L1167.74 875.578ZM1144.48 875.578H1092.36L1136.24 854.43L1144.48 875.578Z" fill="#6CA1FF"/>
<path opacity="0.403041" fill-rule="evenodd" clip-rule="evenodd" d="M1133.87 714.707C1140.65 714.474 1146.1 707.352 1146.1 698.601C1146.1 689.849 1140.65 682.727 1133.87 682.494V682.488H1133.61C1133.58 682.488 1133.55 682.488 1133.53 682.488C1133.5 682.488 1133.47 682.488 1133.44 682.488H1127.05C1127.02 682.488 1126.99 682.488 1126.96 682.488C1120.01 682.488 1114.39 689.702 1114.39 698.601C1114.39 707.499 1120.01 714.712 1126.96 714.713L1133.87 714.713V714.707ZM1141.77 698.601C1141.77 703.81 1138.95 708.033 1135.48 708.033C1132.01 708.033 1129.2 703.81 1129.2 698.601C1129.2 693.391 1132.01 689.168 1135.48 689.168C1138.95 689.168 1141.77 693.391 1141.77 698.601ZM1192.62 714.786C1199.4 714.553 1204.84 707.431 1204.84 698.679C1204.84 689.927 1199.4 682.805 1192.62 682.572V682.567H1192.36C1192.33 682.567 1192.3 682.567 1192.27 682.567C1192.24 682.567 1192.21 682.567 1192.18 682.567H1185.79C1185.76 682.567 1185.73 682.567 1185.7 682.567C1178.76 682.567 1173.13 689.781 1173.13 698.679C1173.13 707.578 1178.76 714.791 1185.7 714.792L1192.62 714.792V714.786V714.786ZM1200.52 698.666C1200.52 703.875 1197.7 708.098 1194.23 708.098C1190.76 708.098 1187.95 703.875 1187.95 698.666C1187.95 693.456 1190.76 689.233 1194.23 689.233C1197.7 689.233 1200.52 693.456 1200.52 698.666Z" fill="black"/>
<path opacity="0.602888" fill-rule="evenodd" clip-rule="evenodd" d="M1200.5 698.728C1200.5 703.937 1197.69 708.161 1194.22 708.161C1190.75 708.161 1187.93 703.937 1187.93 698.728C1187.93 693.519 1190.75 689.295 1194.22 689.295C1197.69 689.295 1200.5 693.519 1200.5 698.728" fill="black"/>
<path opacity="0.603864" fill-rule="evenodd" clip-rule="evenodd" d="M1141.72 698.597C1141.72 703.806 1138.91 708.03 1135.44 708.03C1131.97 708.03 1129.15 703.806 1129.15 698.597C1129.15 693.388 1131.97 689.165 1135.44 689.165C1138.91 689.165 1141.72 693.388 1141.72 698.597" fill="black"/>
<path opacity="0.39588" fill-rule="evenodd" clip-rule="evenodd" d="M1167.74 875.72H1219.86L1211.62 854.573L1167.74 875.72Z" fill="black"/>
<path opacity="0.39588" fill-rule="evenodd" clip-rule="evenodd" d="M1092.36 875.72H1144.47L1136.24 854.573L1092.36 875.72Z" fill="black"/>
<path d="M1067.7 552.865L1082.99 440.772" stroke="#19141E" stroke-width="27" stroke-linecap="round"/>
<path fill-rule="evenodd" clip-rule="evenodd" d="M1210.06 539.032H1114.72L1100.18 523.381H1224.6L1210.06 539.032Z" fill="#19141E"/>
<path d="M1266.76 549.139L1250.64 437.162" stroke="#19141E" stroke-width="27" stroke-linecap="round"/>
<path fill-rule="evenodd" clip-rule="evenodd" d="M1075.04 500.958V469.354C1074.29 469.208 1073.53 469.029 1072.78 468.814C1058.88 464.839 1050.84 450.35 1054.81 436.45C1058.79 422.551 1073.28 414.505 1087.17 418.48C1087.75 418.645 1088.32 418.828 1088.87 419.028C1092.53 417.068 1096.7 415.954 1101.12 415.954H1223.66C1227.64 415.954 1231.42 416.858 1234.8 418.469C1238.79 416.001 1243.5 414.577 1248.54 414.577C1263 414.577 1274.72 426.296 1274.72 440.753C1274.72 454.808 1263.64 466.276 1249.74 466.901V500.958C1249.74 515.301 1238 527.037 1223.66 527.037H1101.12C1086.77 527.037 1075.04 515.301 1075.04 500.958ZM1042.47 696.248C1042.23 690.117 1044.27 684.424 1047.83 679.988C1037.3 674.077 1030.16 662.777 1030.2 649.906L1030.44 579.012C1030.5 560.129 1046 544.732 1064.88 544.795C1083.77 544.859 1099.16 560.36 1099.1 579.242L1098.86 650.137C1098.82 661.664 1093.03 671.892 1084.23 678.097C1088.21 682.098 1090.83 687.461 1091.28 693.429C1091.35 694.329 1091.37 695.222 1091.34 696.104C1091.21 700.099 1086.09 701.602 1083.82 698.317C1081.22 694.573 1077.64 692.31 1073.78 692.463C1066.36 692.755 1060.71 701.835 1061.14 712.745C1061.14 712.757 1061.14 712.768 1061.14 712.78C1061.14 712.792 1061.14 712.803 1061.14 712.815C1061.27 716.067 1057.86 718.245 1055.01 716.66C1047.82 712.647 1042.82 705.089 1042.47 696.248ZM1273.51 680.734C1285.49 676.087 1294.42 664.868 1295.44 651.261L1300.71 580.563C1302.12 561.732 1287.86 545.176 1269.03 543.771C1250.2 542.366 1233.64 556.623 1232.24 575.454L1226.96 646.152C1226.08 657.974 1231.37 668.9 1240.09 675.743C1234.06 680.026 1230.01 686.966 1229.74 694.794C1229.7 695.697 1229.72 696.589 1229.78 697.469C1230.07 701.457 1235.24 702.756 1237.39 699.385C1239.84 695.541 1243.32 693.139 1247.19 693.139C1254.61 693.139 1260.62 701.989 1260.62 712.908V712.978C1260.61 716.232 1264.11 718.274 1266.89 716.578C1273.93 712.285 1278.62 704.536 1278.62 695.688C1278.62 690.055 1276.72 684.868 1273.51 680.734ZM1184.84 538.951V554.062H1139.94V538.951H1184.84Z" fill="#6CA1FF"/>
<path opacity="0.394764" fill-rule="evenodd" clip-rule="evenodd" d="M1229.73 694.794C1229.7 695.697 1229.72 696.59 1229.78 697.469C1230.07 701.457 1235.24 702.756 1237.39 699.385C1239.84 695.541 1243.32 693.139 1247.19 693.139C1254.61 693.139 1260.62 701.989 1260.62 712.908V712.978C1260.61 716.232 1264.11 718.274 1266.89 716.579C1273.93 712.285 1278.62 704.536 1278.62 695.688C1278.62 681.937 1267.27 670.836 1253.41 671.252C1240.65 671.635 1230.19 682.035 1229.73 694.794ZM1109.73 469.583C1109.73 486.337 1121.92 500.239 1137.92 502.907C1138.15 502.867 1138.37 502.828 1138.6 502.782C1154.27 499.852 1166.12 486.1 1166.12 469.583C1166.12 453.066 1154.27 439.314 1138.6 436.384C1138.37 436.338 1138.15 436.299 1137.92 436.259C1121.92 438.927 1109.73 452.829 1109.73 469.583ZM1163.23 469.628C1163.23 480.437 1154.47 489.199 1143.66 489.199C1132.85 489.199 1124.09 480.437 1124.09 469.628C1124.09 458.819 1132.85 450.056 1143.66 450.056C1154.47 450.056 1163.23 458.819 1163.23 469.628ZM1274.85 440.753C1274.85 426.297 1263.13 414.578 1248.68 414.578C1234.22 414.578 1222.5 426.297 1222.5 440.753C1222.5 455.209 1234.22 466.929 1248.68 466.929C1263.13 466.929 1274.85 455.209 1274.85 440.753ZM1268.54 435.901C1268.54 442.914 1262.85 448.599 1255.84 448.599C1248.83 448.599 1243.14 442.914 1243.14 435.901C1243.14 428.888 1248.83 423.203 1255.84 423.203C1262.85 423.203 1268.54 428.888 1268.54 435.901ZM1088.92 419.097C1088.36 418.897 1087.8 418.715 1087.22 418.55C1073.32 414.575 1058.83 422.621 1054.86 436.52C1050.88 450.42 1058.93 464.909 1072.83 468.883C1073.58 469.098 1074.33 469.278 1075.09 469.423V442.102C1075.09 432.177 1080.7 423.501 1088.92 419.097ZM1047.83 679.86C1044.27 684.296 1042.23 689.989 1042.47 696.12C1042.82 704.961 1047.82 712.519 1055.01 716.532C1057.86 718.117 1061.27 715.939 1061.14 712.687C1061.14 712.664 1061.14 712.641 1061.14 712.618C1060.71 701.707 1066.36 692.627 1073.78 692.335C1077.64 692.182 1081.22 694.445 1083.82 698.19C1086.09 701.474 1091.21 699.971 1091.34 695.976C1091.37 695.094 1091.35 694.201 1091.28 693.301C1090.83 687.333 1088.21 681.971 1084.23 677.969C1093.03 671.764 1098.83 661.536 1098.86 650.009L1099.1 579.114C1099.17 560.232 1083.77 544.731 1064.89 544.667C1046 544.604 1030.5 560.001 1030.44 578.884L1030.2 649.778C1030.16 662.649 1037.3 673.949 1047.83 679.86H1047.83ZM1184.05 496.688C1184.05 492.976 1181.04 489.966 1177.33 489.966C1173.61 489.966 1170.6 492.976 1170.6 496.688C1170.6 500.4 1173.61 503.41 1177.33 503.41C1181.04 503.41 1184.05 500.4 1184.05 496.688ZM1203.48 496.688C1203.48 492.976 1200.47 489.966 1196.76 489.966C1193.04 489.966 1190.03 492.976 1190.03 496.688C1190.03 500.4 1193.04 503.41 1196.76 503.41C1200.47 503.41 1203.48 500.4 1203.48 496.688ZM1292.04 585.814C1292.33 582.113 1289.56 578.88 1285.86 578.593C1282.16 578.307 1278.93 581.075 1278.64 584.776C1278.35 588.477 1281.12 591.71 1284.82 591.997C1288.53 592.283 1291.76 589.515 1292.04 585.814ZM1290.61 604.357C1290.89 600.656 1288.13 597.423 1284.43 597.136C1280.72 596.85 1277.49 599.618 1277.2 603.319C1276.92 607.02 1279.69 610.253 1283.39 610.54C1287.09 610.826 1290.32 608.058 1290.61 604.357ZM1289.14 623.349C1289.42 619.648 1286.66 616.415 1282.95 616.128C1279.25 615.841 1276.02 618.609 1275.73 622.31C1275.45 626.012 1278.21 629.245 1281.92 629.531C1285.62 629.819 1288.85 627.051 1289.14 623.349ZM1185.17 553.865V538.754H1139.84V553.865H1185.17Z" fill="black"/>
<path fill-rule="evenodd" clip-rule="evenodd" d="M1138.08 502.95C1122.08 500.283 1109.88 486.38 1109.88 469.627C1109.88 452.873 1122.08 438.97 1138.08 436.303C1136.26 436 1134.4 435.843 1132.5 435.843C1113.84 435.843 1098.72 450.967 1098.72 469.627C1098.72 488.286 1113.84 503.41 1132.5 503.41C1134.4 503.41 1136.26 503.253 1138.08 502.95V502.95Z" fill="#19141E"/>
<path d="M1160.22 443H1162.14V433.288H1165.87V431.48H1156.49V433.288H1160.22V443ZM1166.04 443H1168.02L1168.81 440.504H1173.35L1174.14 443H1176.13L1172.49 431.48H1169.67L1166.04 443ZM1169.37 438.704L1171.06 433.344L1172.77 438.704H1169.37ZM1177.57 443H1179.5V438.976H1182.33C1182.44 438.976 1182.58 438.971 1182.76 438.96C1182.94 438.95 1183.1 438.934 1183.25 438.912C1184.25 438.758 1184.98 438.344 1185.46 437.672C1185.95 436.995 1186.19 436.182 1186.19 435.232C1186.19 434.278 1185.95 433.464 1185.47 432.792C1184.99 432.115 1184.26 431.699 1183.25 431.544C1183.1 431.518 1182.94 431.502 1182.77 431.496C1182.59 431.486 1182.45 431.48 1182.33 431.48H1177.57V443ZM1179.5 437.176V433.288H1182.25C1182.36 433.288 1182.48 433.294 1182.61 433.304C1182.75 433.315 1182.87 433.334 1182.98 433.36C1183.3 433.44 1183.55 433.584 1183.73 433.792C1183.92 433.995 1184.05 434.224 1184.13 434.48C1184.21 434.736 1184.25 434.987 1184.25 435.232C1184.25 435.478 1184.21 435.728 1184.13 435.984C1184.05 436.24 1183.92 436.47 1183.73 436.672C1183.55 436.875 1183.3 437.016 1182.98 437.096C1182.87 437.128 1182.75 437.15 1182.61 437.16C1182.48 437.171 1182.36 437.176 1182.25 437.176H1179.5ZM1191.94 443.24C1192.76 443.24 1193.48 443.067 1194.1 442.72C1194.72 442.368 1195.21 441.88 1195.55 441.256C1195.9 440.632 1196.08 439.912 1196.08 439.096V435.384C1196.08 434.563 1195.9 433.843 1195.55 433.224C1195.21 432.6 1194.72 432.115 1194.1 431.768C1193.48 431.416 1192.76 431.24 1191.94 431.24C1191.11 431.24 1190.39 431.416 1189.77 431.768C1189.15 432.115 1188.66 432.6 1188.31 433.224C1187.97 433.843 1187.79 434.563 1187.79 435.384V439.096C1187.79 439.912 1187.97 440.632 1188.31 441.256C1188.66 441.88 1189.15 442.368 1189.77 442.72C1190.39 443.067 1191.11 443.24 1191.94 443.24ZM1191.94 441.408C1191.53 441.408 1191.16 441.312 1190.83 441.12C1190.51 440.923 1190.25 440.662 1190.05 440.336C1189.86 440.006 1189.76 439.638 1189.76 439.232V435.24C1189.76 434.83 1189.86 434.462 1190.05 434.136C1190.25 433.806 1190.51 433.544 1190.83 433.352C1191.16 433.155 1191.53 433.056 1191.94 433.056C1192.34 433.056 1192.71 433.155 1193.03 433.352C1193.36 433.544 1193.62 433.806 1193.82 434.136C1194.01 434.462 1194.11 434.83 1194.11 435.24V439.232C1194.11 439.638 1194.01 440.006 1193.82 440.336C1193.62 440.662 1193.36 440.923 1193.03 441.12C1192.71 441.312 1192.34 441.408 1191.94 441.408ZM1202.47 443.24C1203.29 443.24 1204.01 443.067 1204.63 442.72C1205.25 442.368 1205.74 441.88 1206.08 441.256C1206.44 440.632 1206.61 439.912 1206.61 439.096V435.384C1206.61 434.563 1206.44 433.843 1206.08 433.224C1205.74 432.6 1205.25 432.115 1204.63 431.768C1204.01 431.416 1203.29 431.24 1202.47 431.24C1201.65 431.24 1200.92 431.416 1200.3 431.768C1199.68 432.115 1199.2 432.6 1198.84 433.224C1198.5 433.843 1198.32 434.563 1198.32 435.384V439.096C1198.32 439.912 1198.5 440.632 1198.84 441.256C1199.2 441.88 1199.68 442.368 1200.3 442.72C1200.92 443.067 1201.65 443.24 1202.47 443.24ZM1202.47 441.408C1202.06 441.408 1201.69 441.312 1201.36 441.12C1201.04 440.923 1200.78 440.662 1200.58 440.336C1200.39 440.006 1200.29 439.638 1200.29 439.232V435.24C1200.29 434.83 1200.39 434.462 1200.58 434.136C1200.78 433.806 1201.04 433.544 1201.36 433.352C1201.69 433.155 1202.06 433.056 1202.47 433.056C1202.87 433.056 1203.24 433.155 1203.56 433.352C1203.89 433.544 1204.16 433.806 1204.35 434.136C1204.54 434.462 1204.64 434.83 1204.64 435.24V439.232C1204.64 439.638 1204.54 440.006 1204.35 440.336C1204.16 440.662 1203.89 440.923 1203.56 441.12C1203.24 441.312 1202.87 441.408 1202.47 441.408ZM1212.57 431.256C1211.85 431.256 1211.19 431.43 1210.58 431.776C1209.98 432.118 1209.49 432.582 1209.13 433.168C1208.76 433.75 1208.58 434.4 1208.58 435.12C1208.58 435.846 1208.74 436.494 1209.05 437.064C1209.37 437.63 1209.81 438.078 1210.37 438.408C1210.93 438.734 1211.57 438.896 1212.29 438.896C1213.16 438.896 1213.93 438.608 1214.59 438.032V439.2C1214.59 439.59 1214.5 439.955 1214.31 440.296C1214.12 440.638 1213.86 440.915 1213.53 441.128C1213.2 441.336 1212.81 441.44 1212.36 441.44C1212.04 441.44 1211.74 441.371 1211.45 441.232C1211.15 441.094 1210.91 440.904 1210.7 440.664L1209.31 442.016C1209.72 442.443 1210.18 442.755 1210.69 442.952C1211.22 443.144 1211.77 443.24 1212.36 443.24C1213.2 443.24 1213.93 443.064 1214.56 442.712C1215.19 442.355 1215.68 441.856 1216.03 441.216C1216.38 440.571 1216.56 439.811 1216.56 438.936V435.432C1216.56 434.616 1216.38 433.894 1216.03 433.264C1215.68 432.635 1215.2 432.144 1214.6 431.792C1214 431.435 1213.33 431.256 1212.57 431.256ZM1212.57 433.104C1212.95 433.104 1213.29 433.198 1213.59 433.384C1213.89 433.566 1214.14 433.811 1214.32 434.12C1214.5 434.424 1214.59 434.758 1214.59 435.12C1214.59 435.494 1214.5 435.835 1214.31 436.144C1214.13 436.454 1213.88 436.702 1213.57 436.888C1213.27 437.07 1212.93 437.16 1212.56 437.16C1212.19 437.16 1211.84 437.07 1211.53 436.888C1211.23 436.702 1210.99 436.454 1210.81 436.144C1210.63 435.835 1210.53 435.494 1210.53 435.12C1210.53 434.747 1210.63 434.408 1210.81 434.104C1210.99 433.8 1211.24 433.558 1211.55 433.376C1211.86 433.195 1212.2 433.104 1212.57 433.104Z" fill="#19141E"/>
<path d="M1124.28 368.748H1144.3" stroke="#19141E" stroke-width="5" stroke-linecap="round"/>
<path d="M1185.38 341.45C1189.19 341.45 1192.3 344.564 1192.3 348.37" stroke="white" stroke-width="5" stroke-linecap="round"/>
<path d="M1215.05 368.748H1190.43" stroke="#19141E" stroke-width="5" stroke-linecap="round"/>
<path fill-rule="evenodd" clip-rule="evenodd" d="M1125.21 405.708C1121.57 405.967 1118.7 408.998 1118.7 412.699V415.849H1212.16V412.699C1212.16 408.998 1209.29 405.967 1205.66 405.708V404.46C1205.66 400.195 1202.54 396.622 1198.47 395.906V344.462C1198.47 339.662 1194.55 335.735 1189.75 335.735H1141.12C1136.32 335.735 1132.39 339.662 1132.39 344.462V395.906C1128.32 396.622 1125.21 400.195 1125.21 404.46V405.708ZM1110.37 368.748C1110.37 373.43 1114.17 377.227 1118.85 377.227C1123.53 377.227 1127.33 373.43 1127.33 368.748C1127.33 364.065 1123.53 360.27 1118.85 360.27C1114.17 360.27 1110.37 364.065 1110.37 368.748ZM1214.8 360.27C1219.48 360.27 1223.28 364.065 1223.28 368.748C1223.28 373.43 1219.48 377.227 1214.8 377.227C1210.12 377.227 1206.32 373.43 1206.32 368.748C1206.32 364.065 1210.12 360.27 1214.8 360.27Z" fill="#6CA1FF"/>
<path opacity="0.395926" fill-rule="evenodd" clip-rule="evenodd" d="M1205.66 405.708V403.543C1205.28 399.618 1201.75 395.776 1196.97 395.776H1133.89C1129.11 395.776 1125.74 399.323 1125.21 403.26V405.708C1121.57 405.967 1118.7 408.998 1118.7 412.698V415.849H1212.16V412.698C1212.16 408.998 1209.29 405.967 1205.66 405.708V405.708ZM1110.37 368.748C1110.37 373.43 1114.17 377.226 1118.85 377.226C1123.53 377.226 1127.33 373.43 1127.33 368.748C1127.33 364.065 1123.53 360.27 1118.85 360.27C1114.17 360.27 1110.37 364.065 1110.37 368.748ZM1223.28 368.748C1223.28 364.065 1219.48 360.27 1214.8 360.27C1210.12 360.27 1206.32 364.065 1206.32 368.748C1206.32 373.43 1210.12 377.226 1214.8 377.226C1219.48 377.226 1223.28 373.43 1223.28 368.748Z" fill="black"/>
<path d="M1205.11 405.916H1125.4" stroke="#19141E" stroke-width="5"/>
<path d="M1184.87 382.575H1132.39" stroke="#19141E" stroke-width="7"/>
<path fill-rule="evenodd" clip-rule="evenodd" d="M1171.15 357.628C1174.85 360.672 1175.38 366.139 1172.34 369.838C1169.29 373.537 1163.83 374.068 1160.13 371.023C1156.43 367.978 1155.9 362.511 1158.94 358.812C1161.99 355.113 1167.46 354.583 1171.15 357.628" fill="white"/>
<path fill-rule="evenodd" clip-rule="evenodd" d="M1166.52 361.342C1168.22 362.74 1168.46 365.251 1167.06 366.951C1165.66 368.65 1163.15 368.894 1161.45 367.495C1159.75 366.096 1159.51 363.585 1160.91 361.886C1162.31 360.186 1164.82 359.943 1166.52 361.342" fill="#19141E"/>
<path fill-rule="evenodd" clip-rule="evenodd" d="M1148.34 357.628C1152.04 360.672 1152.57 366.139 1149.52 369.838C1146.48 373.537 1141.01 374.068 1137.31 371.023C1133.61 367.978 1133.08 362.511 1136.13 358.812C1139.17 355.113 1144.64 354.583 1148.34 357.628" fill="white"/>
<path fill-rule="evenodd" clip-rule="evenodd" d="M1143.7 361.342C1145.4 362.74 1145.64 365.251 1144.24 366.951C1142.85 368.65 1140.33 368.894 1138.64 367.495C1136.94 366.096 1136.69 363.585 1138.09 361.886C1139.49 360.186 1142 359.943 1143.7 361.342" fill="#19141E"/>
</svg>
