<svg width="20" height="21" viewBox="0 0 20 21" fill="none" xmlns="http://www.w3.org/2000/svg">
<path d="M1.49206 16.0619H1.60059L6.83699 14.9224C6.93898 14.9054 7.03349 14.8582 7.10827 14.7867L15.9802 5.91475C16.6283 5.26805 16.9899 4.38843 16.9841 3.47294C16.9853 2.55032 16.6249 1.66401 15.9802 1.00396C15.3336 0.355861 14.454 -0.00573737 13.5384 0.000130868C12.617 -0.00802235 11.7333 0.365104 11.0966 1.03112L2.25171 9.90308C2.17371 9.96586 2.11684 10.0511 2.0889 10.1473L0.949426 15.3836C0.918319 15.5716 0.978767 15.7632 1.11223 15.8992C1.21241 16.0014 1.34893 16.0599 1.49206 16.0619ZM13.5384 1.08539C14.842 1.08529 15.8989 2.14204 15.899 3.44567C15.899 3.45476 15.899 3.46385 15.8988 3.47294C15.9077 4.09398 15.6627 4.69176 15.2206 5.12794L11.8834 1.76362C12.3231 1.32672 12.9186 1.08264 13.5384 1.08539ZM11.1237 2.55048L14.4609 5.88764L6.7284 13.593L3.39124 10.2829L11.1237 2.55048ZM2.95714 11.3682L5.64314 14.0542L2.19744 14.8139L2.95714 11.3682Z" fill="#1666C5"/>
<path d="M18.7207 18.9921H0.542631C0.242935 18.9921 0 19.2351 0 19.5348C0 19.8345 0.242935 20.0774 0.542631 20.0774H18.7207C19.0204 20.0774 19.2634 19.8345 19.2634 19.5348C19.2634 19.2351 19.0204 18.9921 18.7207 18.9921Z" fill="#1666C5"/>
</svg>
