<svg width="14" height="14" viewBox="0 0 14 14" fill="none" xmlns="http://www.w3.org/2000/svg">
<path fill-rule="evenodd" clip-rule="evenodd" d="M13.4 6.99123C13.4 7.42404 13.3559 7.85626 13.2694 8.27758C13.185 8.68888 13.06 9.09268 12.8962 9.4787C12.7363 9.85789 12.5378 10.2233 12.3059 10.5641C12.0775 10.9027 11.8143 11.2204 11.5252 11.5099C11.2355 11.7983 10.9168 12.0607 10.5783 12.2901C10.2364 12.5204 9.8705 12.7186 9.49109 12.8793C9.10452 13.0422 8.69978 13.167 8.28883 13.2513C7.86696 13.338 7.43316 13.3823 6.99972 13.3823C6.56595 13.3823 6.13218 13.338 5.71091 13.2513C5.29933 13.167 4.89462 13.0422 4.50835 12.8793C4.12896 12.7186 3.76267 12.5204 3.42079 12.2901C3.08234 12.0607 2.76357 11.7983 2.47449 11.5099C2.18511 11.2204 1.92196 10.9027 1.6932 10.5641C1.46256 10.2233 1.26379 9.85787 1.10317 9.4787C0.939387 9.09268 0.814086 8.68886 0.729391 8.27758C0.643769 7.85626 0.600006 7.42404 0.600006 6.99123C0.600006 6.55808 0.643744 6.12494 0.729416 5.70455C0.814111 5.29324 0.939412 4.88882 1.10319 4.50342C1.26381 4.12396 1.46259 3.75823 1.69322 3.41744C1.92198 3.07854 2.18514 2.76147 2.47452 2.47155C2.7636 2.18319 3.08236 1.92139 3.42081 1.69234C3.7627 1.46108 4.12898 1.26295 4.50837 1.10191C4.89465 0.938663 5.29933 0.813543 5.71093 0.729921C6.1322 0.643797 6.56597 0.600098 6.99974 0.600098C7.43319 0.600098 7.86696 0.643797 8.28885 0.729921C8.6998 0.813568 9.10452 0.938689 9.49112 1.10191C9.8705 1.26292 10.2365 1.46108 10.5783 1.69234C10.9168 1.92139 11.2356 2.18319 11.5253 2.47155C11.8144 2.76147 12.0775 3.07854 12.3059 3.41744C12.5378 3.75823 12.7363 4.12398 12.8962 4.50342C13.06 4.88882 13.185 5.29324 13.2694 5.70455C13.3559 6.12494 13.4 6.55808 13.4 6.99123ZM4.6677 2.05463C3.14354 2.77334 2.00598 4.17575 1.65127 5.86591C1.79536 5.86716 4.07298 5.89587 6.69717 5.19963C5.75119 3.52133 4.74052 2.15171 4.6677 2.05463ZM7.15 6.04006C4.3358 6.88136 1.63534 6.82082 1.53847 6.8171C1.53689 6.87575 1.53408 6.93254 1.53408 6.99122C1.53408 8.39331 2.06379 9.67153 2.93447 10.638C2.93259 10.6352 4.42831 7.98546 7.37783 7.03304C7.44907 7.00933 7.52159 6.98809 7.59346 6.96751C7.45629 6.65733 7.30656 6.34651 7.15 6.04006ZM10.6093 2.89504C9.64701 2.04776 8.38353 1.53382 6.9997 1.53382C6.55561 1.53382 6.12464 1.5875 5.71182 1.68673C5.79368 1.79659 6.82031 3.15656 7.75504 4.8704C9.81735 4.09837 10.5958 2.915 10.6093 2.89504ZM7.96602 7.87187C7.95385 7.8759 7.94168 7.87937 7.92978 7.88373C4.70498 9.00632 3.65187 11.2687 3.64048 11.2934C4.56836 12.0139 5.73217 12.4486 6.99974 12.4486C7.75663 12.4486 8.4776 12.2947 9.13357 12.0161C9.05263 11.5393 8.73512 9.86785 7.96602 7.87187ZM10.0539 11.5174C11.2812 10.6905 12.1528 9.37729 12.3959 7.85624C12.2834 7.82004 10.7543 7.33664 8.99009 7.61908C9.707 9.58636 9.99829 11.1885 10.0539 11.5174ZM8.17573 5.68366C8.30259 5.94393 8.42543 6.20883 8.53886 6.47505C8.57919 6.57056 8.61857 6.66418 8.657 6.75779C10.5346 6.52185 12.3844 6.9188 12.4635 6.93501C12.451 5.64121 11.9875 4.45379 11.2206 3.52416C11.2103 3.5388 10.3337 4.80361 8.17573 5.68366Z" fill="white"/>
</svg>
